<?xml version="1.0" encoding="UTF-8"?>
<svg id="LOGO" xmlns="http://www.w3.org/2000/svg" version="1.1" viewBox="0 0 144.8 144.4">
  <defs>
    <style>
      .cls-1 {
        fill: #9b1685;
        stroke-width: 0px;
      }
    </style>
  </defs>
  <path id="BILDMARKE" class="cls-1" d="M117.6,47.8c10.2-5.4,10.1-20-.2-25.2L73,0,28.7,22.6c-10.2,5.2-10.4,19.8-.2,25.2l37.8,20.1c2.1,1.1,4.4,1.7,6.7,1.7s4.6-.6,6.6-1.6l38-20.1h0ZM73,58c-.4,0-.9-.1-1.3-.3l-37.8-20.1c-1.2-.6-1.4-1.7-1.4-2.4s.3-1.8,1.5-2.4l39-19.9,39.2,19.9c1.2.6,1.5,1.6,1.5,2.4s-.2,1.8-1.4,2.4l-38,20.1c-.4.2-.8.3-1.3.3h0ZM144.6,65.2c0-8.2-6.8-14.2-14.2-14.2s-4.4.5-6.6,1.7l-39.4,20.7c-4.7,2.5-7.6,7.3-7.6,12.6v44c0,8.3,6.8,14.2,14.2,14.2s4.6-.6,6.8-1.8l47-25.7-.2-51.6h0ZM92.2,132.1c-.4.2-.8.3-1.1.3-.8,0-2.4-.6-2.4-2.4v-44c0-.9.5-1.7,1.3-2.1l39.4-20.7c.4-.2.7-.3,1.1-.3,1,0,2.4.8,2.4,2.4l.2,44.5-40.8,22.3h0ZM68.3,87.3v43.5c0,4.8-2.5,9.2-6.6,11.6-2.1,1.3-4.5,1.9-6.9,1.9s-4.4-.6-6.5-1.7L0,116.4v-15.7c.1-3.2,2.8-5.9,6-5.9h0c3.3,0,5.9,2.7,5.9,5.9v8.6c0,0,42,22.9,42,22.9.8.4,1.4.2,1.7,0,.3-.2.8-.6.8-1.5v-43.5c0-2.2-1.2-4.2-3.2-5.2l-32.7-17.2-6.5-3.5c-.6-.3-1.1-.1-1.5,0-.3.2-.7.6-.7,1.3v10.2c0,3.3-2.6,5.9-5.9,5.9S0,76.3,0,73.1v-10.2c0-4.7,2.4-8.9,6.4-11.4,4-2.4,8.9-2.6,13-.5h0s6.6,3.6,6.6,3.6l32.6,17.1c5.8,3.1,9.5,9.1,9.5,15.7h0Z"/>
</svg>
