<?xml version="1.0" encoding="UTF-8" standalone="no"?><svg xmlns="http://www.w3.org/2000/svg" xmlns:xlink="http://www.w3.org/1999/xlink" contentScriptType="application/ecmascript" contentStyleType="text/css" height="1201px" preserveAspectRatio="none" style="width:879px;height:1201px;background:#FFFFFF;" version="1.1" viewBox="0 0 879 1201" width="879px" zoomAndPan="magnify"><defs><filter height="300%" id="f1b983owg00dh" width="300%" x="-1" y="-1"><feGaussianBlur result="blurOut" stdDeviation="2.0"/><feColorMatrix in="blurOut" result="blurOut2" type="matrix" values="0 0 0 0 0 0 0 0 0 0 0 0 0 0 0 0 0 0 .4 0"/><feOffset dx="4.0" dy="4.0" in="blurOut2" result="blurOut3"/><feBlend in="SourceGraphic" in2="blurOut3" mode="normal"/></filter></defs><g><text fill="#000000" font-family="sans-serif" font-size="18" lengthAdjust="spacing" textLength="312" x="277" y="16.708">ID-Connector Primary Components</text><text fill="#000000" font-family="sans-serif" font-size="18" lengthAdjust="spacing" textLength="0" x="436" y="37.6611"/><!--MD5=[8e9ea18b1f07097689a5765e87d47f37]
cluster primary--><rect fill="#EBEDF1" filter="url(#f1b983owg00dh)" height="594" style="stroke:#000000;stroke-width:1.5;" width="700" x="7" y="211.9063"/><path d="M104,211.9063 L104,237.5 L94,247.5 L7,247.5 " fill="none" style="stroke:#000000;stroke-width:1.5;"/><text fill="#000000" font-family="sans-serif" font-size="14" font-weight="bold" lengthAdjust="spacing" textLength="87" x="10" y="225.9014">DC Primary</text><text fill="#000000" font-family="sans-serif" font-size="14" font-style="italic" font-weight="bold" lengthAdjust="spacing" textLength="31" x="38" y="242.1982">UCS</text><!--MD5=[1be1e8e9c1fa15d6e082466842209191]
entity ldap--><path d="M464,272.9063 C464,262.9063 530,262.9063 530,262.9063 C530,262.9063 596,262.9063 596,272.9063 L596,347.0938 C596,357.0938 530,357.0938 530,357.0938 C530,357.0938 464,357.0938 464,347.0938 L464,272.9063 " fill="#B0CAE4" filter="url(#f1b983owg00dh)" style="stroke:#000000;stroke-width:1.5;"/><path d="M464,272.9063 C464,282.9063 530,282.9063 530,282.9063 C530,282.9063 596,282.9063 596,272.9063 " fill="none" style="stroke:#000000;stroke-width:1.5;"/><text fill="#000000" font-family="sans-serif" font-size="14" font-weight="bold" lengthAdjust="spacing" textLength="41" x="509.5" y="299.9014">LDAP</text><text fill="#000000" font-family="sans-serif" font-size="14" font-style="italic" lengthAdjust="spacing" textLength="65" x="497.5" y="316.1982">openldap</text><text fill="#000000" font-family="sans-serif" font-size="14" lengthAdjust="spacing" textLength="0" x="532" y="332.4951"/><text fill="#000000" font-family="sans-serif" font-size="14" lengthAdjust="spacing" textLength="112" x="474" y="348.792">User/group data</text><!--MD5=[c4def0b39757ced8a2cbaa90cdcbeb42]
entity listener--><rect fill="#85BBF0" filter="url(#f1b983owg00dh)" height="101.4844" rx="35" ry="35" style="stroke:#000000;stroke-width:1.5;" width="204" x="220" y="463.9063"/><text fill="#000000" font-family="sans-serif" font-size="14" font-weight="bold" lengthAdjust="spacing" textLength="169" x="237.5" y="486.9014">ID-Connector listener</text><text fill="#000000" font-family="sans-serif" font-size="14" font-style="italic" lengthAdjust="spacing" textLength="144" x="250" y="503.1982">python listener script</text><text fill="#000000" font-family="sans-serif" font-size="14" lengthAdjust="spacing" textLength="0" x="324" y="519.4951"/><text fill="#000000" font-family="sans-serif" font-size="14" lengthAdjust="spacing" textLength="184" x="230" y="535.792">Handles LDAP write events</text><text fill="#000000" font-family="sans-serif" font-size="14" lengthAdjust="spacing" textLength="110" x="267" y="552.0889">for id-connector</text><!--MD5=[5ee9985dad366ed98710f937d17dcbd6]
entity converter--><rect fill="#438DD5" filter="url(#f1b983owg00dh)" height="117.7813" style="stroke:#6A8198;stroke-width:1.5;" width="207" x="483.5" y="671.9063"/><text fill="#FFFFFF" font-family="sans-serif" font-size="14" font-weight="bold" lengthAdjust="spacing" textLength="80" x="547" y="694.9014">Converter</text><text fill="#FFFFFF" font-family="sans-serif" font-size="14" font-style="italic" lengthAdjust="spacing" textLength="156" x="509" y="711.1982">app daemon in python</text><text fill="#FFFFFF" font-family="sans-serif" font-size="14" lengthAdjust="spacing" textLength="0" x="589" y="727.4951"/><text fill="#FFFFFF" font-family="sans-serif" font-size="14" lengthAdjust="spacing" textLength="153" x="510.5" y="743.792">Reads uuid and writes</text><text fill="#FFFFFF" font-family="sans-serif" font-size="14" lengthAdjust="spacing" textLength="187" x="493.5" y="760.0889">json representation of udm</text><text fill="#FFFFFF" font-family="sans-serif" font-size="14" lengthAdjust="spacing" textLength="51" x="561.5" y="776.3857">objects</text><!--MD5=[f3a3e5a00b11f193b7dfc5c6e4fee227]
entity small_queue--><polygon fill="#B0CAE4" filter="url(#f1b983owg00dh)" points="180,679.4063,226,679.4063,233,700.4063,326,700.4063,326,782.5938,180,782.5938,180,679.4063" style="stroke:#000000;stroke-width:1.5;"/><line style="stroke:#000000;stroke-width:1.5;" x1="180" x2="233" y1="700.4063" y2="700.4063"/><text fill="#000000" font-family="sans-serif" font-size="14" font-weight="bold" lengthAdjust="spacing" textLength="116" x="190" y="720.4014">Small in-queue</text><text fill="#000000" font-family="sans-serif" font-size="14" font-style="italic" lengthAdjust="spacing" textLength="65" x="215.5" y="736.6982">JSON files</text><text fill="#000000" font-family="sans-serif" font-size="14" lengthAdjust="spacing" textLength="0" x="250" y="752.9951"/><text fill="#000000" font-family="sans-serif" font-size="14" lengthAdjust="spacing" textLength="106" x="195" y="769.292">just entryUUIDs</text><path d="M23.5,703.4063 L23.5,758.8047 A0,0 0 0 0 23.5,758.8047 L144.5,758.8047 A0,0 0 0 0 144.5,758.8047 L144.5,734.9063 L179.84,730.9063 L144.5,726.9063 L144.5,713.4063 L134.5,703.4063 L23.5,703.4063 A0,0 0 0 0 23.5,703.4063 " fill="#FFFFFF" filter="url(#f1b983owg00dh)" style="stroke:#A9A9A9;stroke-width:1.0;"/><path d="M134.5,703.4063 L134.5,713.4063 L144.5,713.4063 L134.5,703.4063 " fill="#FFFFFF" style="stroke:#A9A9A9;stroke-width:1.0;"/><text fill="#808080" font-family="sans-serif" font-size="13" lengthAdjust="spacing" textLength="88" x="35.5" y="720.4731">You can inject</text><text fill="#808080" font-family="sans-serif" font-size="13" lengthAdjust="spacing" textLength="100" x="29.5" y="735.606">data here using</text><text fill="#808080" font-family="sans-serif" font-size="13" font-style="italic" lengthAdjust="spacing" textLength="92" x="33.5" y="750.7388">schedule_user</text><!--MD5=[47722de4571988dbdff5f58bebd85cab]
entity importer--><rect fill="#438DD5" filter="url(#f1b983owg00dh)" height="85.1875" style="stroke:#6A8198;stroke-width:1.5;" width="179" x="440.5" y="48.9063"/><text fill="#FFFFFF" font-family="sans-serif" font-size="14" font-weight="bold" lengthAdjust="spacing" textLength="155" x="452.5" y="71.9014">UCS@School import</text><text fill="#FFFFFF" font-family="sans-serif" font-size="14" font-style="italic" lengthAdjust="spacing" textLength="49" x="505.5" y="88.1982">python</text><text fill="#FFFFFF" font-family="sans-serif" font-size="14" lengthAdjust="spacing" textLength="0" x="532" y="104.4951"/><text fill="#FFFFFF" font-family="sans-serif" font-size="14" lengthAdjust="spacing" textLength="159" x="450.5" y="120.792">Import user/group data</text><path d="M655,63.9063 L655,87.4063 L619.82,91.4063 L655,95.4063 L655,119.3047 A0,0 0 0 0 655,119.3047 L843,119.3047 A0,0 0 0 0 843,119.3047 L843,73.9063 L833,63.9063 L655,63.9063 A0,0 0 0 0 655,63.9063 " fill="#FFFFFF" filter="url(#f1b983owg00dh)" style="stroke:#A9A9A9;stroke-width:1.0;"/><path d="M833,63.9063 L833,73.9063 L843,73.9063 L833,63.9063 " fill="#FFFFFF" style="stroke:#A9A9A9;stroke-width:1.0;"/><text fill="#808080" font-family="sans-serif" font-size="13" lengthAdjust="spacing" textLength="167" x="661" y="80.9731">This could also be another</text><text fill="#808080" font-family="sans-serif" font-size="13" lengthAdjust="spacing" textLength="117" x="686" y="96.106">source of changes</text><text fill="#808080" font-family="sans-serif" font-size="13" lengthAdjust="spacing" textLength="58" x="715.5" y="111.2388">e.g. UMC</text><!--MD5=[7ae70b43012fc5e1ca54de92c75677c7]
entity large_queue--><polygon fill="#B0CAE4" filter="url(#f1b983owg00dh)" points="509,898.9063,555,898.9063,562,919.9063,659,919.9063,659,1002.0938,509,1002.0938,509,898.9063" style="stroke:#000000;stroke-width:1.5;"/><line style="stroke:#000000;stroke-width:1.5;" x1="509" x2="562" y1="919.9063" y2="919.9063"/><text fill="#000000" font-family="sans-serif" font-size="14" font-weight="bold" lengthAdjust="spacing" textLength="120" x="519" y="939.9014">Large in-queue</text><text fill="#000000" font-family="sans-serif" font-size="14" font-style="italic" lengthAdjust="spacing" textLength="65" x="546.5" y="956.1982">JSON files</text><text fill="#000000" font-family="sans-serif" font-size="14" lengthAdjust="spacing" textLength="0" x="581" y="972.4951"/><text fill="#000000" font-family="sans-serif" font-size="14" lengthAdjust="spacing" textLength="53" x="552.5" y="988.792">full data</text><!--MD5=[95ae849d304a5fc23ac94743b97c1c67]
entity id_connector--><rect fill="#EBEDF1" filter="url(#f1b983owg00dh)" height="95.1875" style="stroke:#000000;stroke-width:1.5;" width="149" x="596.5" y="1093.9063"/><path d="M646.1667,1093.9063 L646.1667,1098.9063 L639.1667,1105.9063 L596.5,1105.9063 " fill="none" style="stroke:#000000;stroke-width:1.5;"/><text fill="#000000" font-family="sans-serif" font-size="14" font-weight="bold" lengthAdjust="spacing" textLength="104" x="614" y="1126.9014">ID-Connector</text><text fill="#000000" font-family="sans-serif" font-size="14" font-style="italic" lengthAdjust="spacing" textLength="50" x="641" y="1143.1982">Docker</text><text fill="#000000" font-family="sans-serif" font-size="14" lengthAdjust="spacing" textLength="0" x="668" y="1159.4951"/><text fill="#000000" font-family="sans-serif" font-size="14" lengthAdjust="spacing" textLength="109" x="611.5" y="1175.792">syncs user data</text><!--MD5=[c9d20122752c08dd96b959ce5906c64c]
link importer to ldap--><path d="M530,134.1463 C530,169.2863 530,219.6762 530,257.3362 " fill="none" id="importer-to-ldap" style="stroke:#666666;stroke-width:1.0;"/><polygon fill="#666666" points="530,262.7963,534,253.7963,530,257.7963,526,253.7963,530,262.7963" style="stroke:#666666;stroke-width:1.0;"/><text fill="#666666" font-family="sans-serif" font-size="13" font-weight="bold" lengthAdjust="spacing" textLength="162" x="531" y="176.9731">write user/group data</text><text fill="#666666" font-family="sans-serif" font-size="13" font-style="italic" lengthAdjust="spacing" textLength="45" x="589.5" y="192.106">python</text><!--MD5=[0778b217ed62fbcddf9240b82e53e7fd]
link ldap to listener--><path d="M468.47,356.9763 C456.71,366.5063 444.73,376.7463 434,386.9063 C410.14,409.4963 385.71,436.5363 365.79,459.8063 " fill="none" id="ldap-to-listener" style="stroke:#666666;stroke-width:1.0;"/><polygon fill="#666666" points="362.37,463.8063,371.2549,459.5568,365.6157,460.0029,365.1696,454.3637,362.37,463.8063" style="stroke:#666666;stroke-width:1.0;"/><text fill="#666666" font-family="sans-serif" font-size="13" font-weight="bold" lengthAdjust="spacing" textLength="85" x="435" y="399.9731">call listener</text><text fill="#666666" font-family="sans-serif" font-size="13" font-weight="bold" lengthAdjust="spacing" textLength="60" x="450" y="415.106">on write</text><text fill="#666666" font-family="sans-serif" font-size="13" font-style="italic" lengthAdjust="spacing" textLength="45" x="455" y="430.2388">python</text><!--MD5=[e1cf6d1f8cc7a3865de975f755036974]
link listener to small_queue--><path d="M306,565.1563 C295.49,597.8263 281.72,640.6163 270.86,674.3963 " fill="none" id="listener-to-small_queue" style="stroke:#666666;stroke-width:1.0;"/><polygon fill="#666666" points="269.28,679.3063,275.8415,671.9614,270.8096,674.546,268.225,669.5141,269.28,679.3063" style="stroke:#666666;stroke-width:1.0;"/><text fill="#666666" font-family="sans-serif" font-size="13" font-weight="bold" lengthAdjust="spacing" textLength="123" x="296" y="607.9731">write entryUUIDs</text><text fill="#666666" font-family="sans-serif" font-size="13" font-weight="bold" lengthAdjust="spacing" textLength="95" x="310" y="623.106">and changes</text><text fill="#666666" font-family="sans-serif" font-size="13" font-style="italic" lengthAdjust="spacing" textLength="32" x="341.5" y="638.2388">JSON</text><!--MD5=[3009a6f81879c83195bf7057e3c4e0f0]
link small_queue to converter--><path d="M326.3,730.9063 C370.85,730.9063 428.57,730.9063 478.36,730.9063 " fill="none" id="small_queue-to-converter" style="stroke:#666666;stroke-width:1.0;"/><polygon fill="#666666" points="483.47,730.9063,474.47,726.9063,478.47,730.9063,474.47,734.9063,483.47,730.9063" style="stroke:#666666;stroke-width:1.0;"/><text fill="#666666" font-family="sans-serif" font-size="13" font-weight="bold" lengthAdjust="spacing" textLength="121" x="344.25" y="693.9731">read entryUUIDS</text><text fill="#666666" font-family="sans-serif" font-size="13" font-weight="bold" lengthAdjust="spacing" textLength="95" x="357.25" y="709.106">and changes</text><text fill="#666666" font-family="sans-serif" font-size="13" font-style="italic" lengthAdjust="spacing" textLength="32" x="388.75" y="724.2388">JSON</text><!--MD5=[e8e5414d468394fb89da731946ef0d96]
link converter to large_queue--><path d="M586.2,789.9063 C585.76,822.0363 585.21,861.7963 584.77,893.5763 " fill="none" id="converter-to-large_queue" style="stroke:#666666;stroke-width:1.0;"/><polygon fill="#666666" points="584.7,898.6063,588.8282,889.6643,584.7714,893.6068,580.829,889.55,584.7,898.6063" style="stroke:#666666;stroke-width:1.0;"/><text fill="#666666" font-family="sans-serif" font-size="13" font-weight="bold" lengthAdjust="spacing" textLength="37" x="630" y="834.9731">write</text><text fill="#666666" font-family="sans-serif" font-size="13" font-weight="bold" lengthAdjust="spacing" textLength="120" x="591" y="850.106">user/group data</text><text fill="#666666" font-family="sans-serif" font-size="13" font-style="italic" lengthAdjust="spacing" textLength="32" x="632.5" y="865.2388">JSON</text><!--MD5=[49a1fd460c504e41ef9380d9304d4e49]
link large_queue to id_connector--><path d="M569.83,1002.1663 C566.87,1022.2563 566.95,1045.0063 576,1063.9063 C580.56,1073.4263 586.94,1082.1363 594.27,1089.9963 " fill="none" id="large_queue-to-id_connector" style="stroke:#666666;stroke-width:1.0;"/><polygon fill="#666666" points="597.94,1093.7863,594.5532,1084.538,594.4619,1090.1942,588.8058,1090.1029,597.94,1093.7863" style="stroke:#666666;stroke-width:1.0;"/><text fill="#666666" font-family="sans-serif" font-size="13" font-weight="bold" lengthAdjust="spacing" textLength="159" x="577" y="1044.9731">read user/group data</text><text fill="#666666" font-family="sans-serif" font-size="13" font-style="italic" lengthAdjust="spacing" textLength="32" x="640.5" y="1060.106">JSON</text><!--MD5=[c4d11be3261513966a2da79344b804fe]
link ldap to converter--><path d="M536.26,356.9462 C546.5,432.1863 566.83,581.6363 578.41,666.7363 " fill="none" id="ldap-to-converter" style="stroke:#666666;stroke-width:1.0;"/><polygon fill="#666666" points="579.09,671.7463,581.8458,662.2908,578.4189,666.7915,573.9182,663.3646,579.09,671.7463" style="stroke:#666666;stroke-width:1.0;"/><text fill="#666666" font-family="sans-serif" font-size="13" font-weight="bold" lengthAdjust="spacing" textLength="159" x="565" y="511.4731">read user/group data</text><text fill="#666666" font-family="sans-serif" font-size="13" font-style="italic" lengthAdjust="spacing" textLength="77" x="606" y="526.606">python-ldap</text><!--MD5=[1e40fc3ca1fec662f86fbb6f316bf06f]
reverse link id_connector to ldap--><path d="M724.15,1089.7063 C730.59,1081.5863 736.47,1072.8863 741,1063.9063 C763.94,1018.4163 763,1002.3563 763,951.4063 C763,513.4063 763,513.4063 763,513.4063 C763,424.4363 665.03,365.7062 596.15,335.4063 " fill="none" id="id_connector-backto-ldap" style="stroke:#666666;stroke-width:1.0;"/><polygon fill="#666666" points="720.95,1093.6463,729.7298,1089.1836,724.103,1089.7657,723.5209,1084.1389,720.95,1093.6463" style="stroke:#666666;stroke-width:1.0;"/><text fill="#666666" font-family="sans-serif" font-size="13" font-weight="bold" lengthAdjust="spacing" textLength="107" x="764" y="727.9731">get extra data</text><text fill="#666666" font-family="sans-serif" font-size="13" font-style="italic" lengthAdjust="spacing" textLength="77" x="779" y="743.106">python-ldap</text><!--MD5=[0e0a54e475cd3fd1cde5d6b2d4a8eef2]
@startuml

title ID-Connector Primary Components\n

!include styling.puml
' skinparam linetype ortho

!include object_importer.puml
!include object_note_importer.puml

frame "DC Primary\n<i>UCS" as primary {
    !include object_ldap.puml
    !include object_listener.puml
    !include object_converter.puml
    !include object_small_queue.puml
    !include object_note_schedule_user.puml
}



!include object_large_queue.puml

!include object_id_connector.puml

importer - -> ldap: <b>write user/group data\n<i>python
ldap - -> listener: <b>call listener\n<b> on write\n<i>python
listener - -> small_queue: <b>write entryUUIDs\n<b>and changes\n<i>JSON
small_queue -right-> converter:  <b>read entryUUIDS\n<b>and changes\n<i>JSON
converter - -> large_queue: <b>write\n<b> user/group data\n<i>JSON
large_queue - ->id_connector:<b>read user/group data\n<i>JSON
ldap - -> converter: <b>read user/group data\n<i>python-ldap
ldap -left-> id_connector : <b>get extra data\n<i>python-ldap
' id_connector - -> ldap
@enduml

@startuml

title ID-Connector Primary Components\n

skinparam backgroundColor white
skinparam defaultTextAlignment center

skinparam AgentBackgroundColor #438dd5
skinparam AgentFontColor white
skinparam AgentBorderColor #6a8198

skinparam FolderBackgroundColor #b0cae4
skinparam StorageBackgroundColor #85bbf0
skinparam DatabaseBackgroundColor #b0cae4

skinparam NoteBackgroundColor white
skinparam NoteFontColor grey
skinparam NoteBorderColor darkgrey

skinparam FileBackgroundColor lightgrey
skinparam UsecaseBackgroundColor white
skinparam UsecaseFontColor #777777
skinparam UsecaseBorderColor grey

skinparam ArrowColor #666666
skinparam ArrowFontColor #666666

skinparam FrameBackgroundColor #ebedf1

    agent "<b>UCS@School import\n<i>python\n\nImport user/group data" as importer
    note right
        This could also be another
        source of changes
        e.g. UMC
    endnote

frame "DC Primary\n<i>UCS" as primary {
    database "<b>LDAP\n<i>openldap\n\nUser/group data" as ldap
    storage "<b>ID-Connector listener\n<i>python listener script\n\nHandles LDAP write events\nfor id-connector" as listener
    agent "<b>Converter\n<i>app daemon in python\n\nReads uuid and writes\njson representation of udm\nobjects" as converter
    folder "<b>Small in-queue\n<i>JSON files\n\njust entryUUIDs" as small_queue
    note left
        You can inject
        data here using
        <i>schedule_user
    endnote
}



    folder "<b>Large in-queue\n<i>JSON files\n\nfull data" as large_queue


    frame "<b>ID-Connector\n<i>Docker\n\nsyncs user data" as id_connector

importer - -> ldap: <b>write user/group data\n<i>python
ldap - -> listener: <b>call listener\n<b> on write\n<i>python
listener - -> small_queue: <b>write entryUUIDs\n<b>and changes\n<i>JSON
small_queue -right-> converter:  <b>read entryUUIDS\n<b>and changes\n<i>JSON
converter - -> large_queue: <b>write\n<b> user/group data\n<i>JSON
large_queue - ->id_connector:<b>read user/group data\n<i>JSON
ldap - -> converter: <b>read user/group data\n<i>python-ldap
ldap -left-> id_connector : <b>get extra data\n<i>python-ldap
@enduml

PlantUML version 1.2021.14(Fri Nov 12 17:46:50 CET 2021)
(GPL source distribution)
Java Runtime: OpenJDK Runtime Environment
JVM: OpenJDK 64-Bit Server VM
Default Encoding: UTF-8
Language: en
Country: US
--></g></svg>
