<?xml version="1.0" encoding="UTF-8" standalone="no"?><svg xmlns="http://www.w3.org/2000/svg" xmlns:xlink="http://www.w3.org/1999/xlink" contentScriptType="application/ecmascript" contentStyleType="text/css" height="2082px" preserveAspectRatio="none" style="width:1173px;height:2082px;background:#FFFFFF;" version="1.1" viewBox="0 0 1173 2082" width="1173px" zoomAndPan="magnify"><defs><filter height="300%" id="f95c8hgamfkiy" width="300%" x="-1" y="-1"><feGaussianBlur result="blurOut" stdDeviation="2.0"/><feColorMatrix in="blurOut" result="blurOut2" type="matrix" values="0 0 0 0 0 0 0 0 0 0 0 0 0 0 0 0 0 0 .4 0"/><feOffset dx="4.0" dy="4.0" in="blurOut2" result="blurOut3"/><feBlend in="SourceGraphic" in2="blurOut3" mode="normal"/></filter></defs><g><!--MD5=[8e9ea18b1f07097689a5765e87d47f37]
cluster primary--><rect fill="#EDEDED" filter="url(#f95c8hgamfkiy)" height="629" style="stroke:#000000;stroke-width:1.5;" width="700" x="7" y="359"/><path d="M104,359 L104,384.5938 L94,394.5938 L7,394.5938 " fill="none" style="stroke:#000000;stroke-width:1.5;"/><text fill="#000000" font-family="sans-serif" font-size="14" font-weight="bold" lengthAdjust="spacing" textLength="87" x="10" y="372.9951">DC Primary</text><text fill="#000000" font-family="sans-serif" font-size="14" font-style="italic" font-weight="bold" lengthAdjust="spacing" textLength="26" x="40.5" y="389.292">ucs</text><!--MD5=[3bce4743bc9b5320e352a2c28149f890]
cluster id_connector--><rect fill="#EDEDED" filter="url(#f95c8hgamfkiy)" height="632" style="stroke:#000000;stroke-width:1.5;" width="713" x="407" y="1262"/><path d="M520,1262 L520,1287.5938 L510,1297.5938 L407,1297.5938 " fill="none" style="stroke:#000000;stroke-width:1.5;"/><text fill="#000000" font-family="sans-serif" font-size="14" font-weight="bold" lengthAdjust="spacing" textLength="103" x="410" y="1275.9951">ID Connector</text><text fill="#000000" font-family="sans-serif" font-size="14" font-weight="bold" lengthAdjust="spacing" textLength="56" x="433.5" y="1292.292">Docker</text><!--MD5=[1be1e8e9c1fa15d6e082466842209191]
entity ldap--><path d="M464,455 C464,445 530,445 530,445 C530,445 596,445 596,455 L596,529.1875 C596,539.1875 530,539.1875 530,539.1875 C530,539.1875 464,539.1875 464,529.1875 L464,455 " fill="#BDBDBB" filter="url(#f95c8hgamfkiy)" style="stroke:#000000;stroke-width:1.5;"/><path d="M464,455 C464,465 530,465 530,465 C530,465 596,465 596,455 " fill="none" style="stroke:#000000;stroke-width:1.5;"/><text fill="#000000" font-family="sans-serif" font-size="14" font-weight="bold" lengthAdjust="spacing" textLength="41" x="509.5" y="481.9951">LDAP</text><text fill="#000000" font-family="sans-serif" font-size="14" font-style="italic" lengthAdjust="spacing" textLength="65" x="497.5" y="498.292">openldap</text><text fill="#000000" font-family="sans-serif" font-size="14" lengthAdjust="spacing" textLength="0" x="532" y="514.5889"/><text fill="#000000" font-family="sans-serif" font-size="14" lengthAdjust="spacing" textLength="112" x="474" y="530.8857">User/group data</text><!--MD5=[c4def0b39757ced8a2cbaa90cdcbeb42]
entity listener--><rect fill="#7AB51D" filter="url(#f95c8hgamfkiy)" height="101.4844" rx="35" ry="35" style="stroke:#000000;stroke-width:1.5;" width="204" x="220" y="646"/><text fill="#000000" font-family="sans-serif" font-size="14" font-weight="bold" lengthAdjust="spacing" textLength="169" x="237.5" y="668.9951">ID-Connector listener</text><text fill="#000000" font-family="sans-serif" font-size="14" font-style="italic" lengthAdjust="spacing" textLength="144" x="250" y="685.292">python listener script</text><text fill="#000000" font-family="sans-serif" font-size="14" lengthAdjust="spacing" textLength="0" x="324" y="701.5889"/><text fill="#000000" font-family="sans-serif" font-size="14" lengthAdjust="spacing" textLength="184" x="230" y="717.8857">Handles LDAP write events</text><text fill="#000000" font-family="sans-serif" font-size="14" lengthAdjust="spacing" textLength="110" x="267" y="734.1826">for id-connector</text><!--MD5=[5ee9985dad366ed98710f937d17dcbd6]
entity converter--><rect fill="#009646" filter="url(#f95c8hgamfkiy)" height="117.7813" style="stroke:#6A8198;stroke-width:1.5;" width="207" x="483.5" y="854"/><text fill="#FFFFFF" font-family="sans-serif" font-size="14" font-weight="bold" lengthAdjust="spacing" textLength="80" x="547" y="876.9951">Converter</text><text fill="#FFFFFF" font-family="sans-serif" font-size="14" font-style="italic" lengthAdjust="spacing" textLength="156" x="509" y="893.292">app daemon in python</text><text fill="#FFFFFF" font-family="sans-serif" font-size="14" lengthAdjust="spacing" textLength="0" x="589" y="909.5889"/><text fill="#FFFFFF" font-family="sans-serif" font-size="14" lengthAdjust="spacing" textLength="153" x="510.5" y="925.8857">Reads uuid and writes</text><text fill="#FFFFFF" font-family="sans-serif" font-size="14" lengthAdjust="spacing" textLength="187" x="493.5" y="942.1826">json representation of udm</text><text fill="#FFFFFF" font-family="sans-serif" font-size="14" lengthAdjust="spacing" textLength="51" x="561.5" y="958.4795">objects</text><!--MD5=[f3a3e5a00b11f193b7dfc5c6e4fee227]
entity small_queue--><polygon fill="#BDBDBB" filter="url(#f95c8hgamfkiy)" points="180,861.5,226,861.5,233,882.5,326,882.5,326,964.6875,180,964.6875,180,861.5" style="stroke:#000000;stroke-width:1.5;"/><line style="stroke:#000000;stroke-width:1.5;" x1="180" x2="233" y1="882.5" y2="882.5"/><text fill="#000000" font-family="sans-serif" font-size="14" font-weight="bold" lengthAdjust="spacing" textLength="116" x="190" y="902.4951">Small in-queue</text><text fill="#000000" font-family="sans-serif" font-size="14" font-style="italic" lengthAdjust="spacing" textLength="65" x="215.5" y="918.792">JSON files</text><text fill="#000000" font-family="sans-serif" font-size="14" lengthAdjust="spacing" textLength="0" x="250" y="935.0889"/><text fill="#000000" font-family="sans-serif" font-size="14" lengthAdjust="spacing" textLength="106" x="195" y="951.3857">just entryUUIDs</text><path d="M23.5,885.5 L23.5,940.8984 A0,0 0 0 0 23.5,940.8984 L144.5,940.8984 A0,0 0 0 0 144.5,940.8984 L144.5,917 L179.84,913 L144.5,909 L144.5,895.5 L134.5,885.5 L23.5,885.5 A0,0 0 0 0 23.5,885.5 " fill="#FFFFFF" filter="url(#f95c8hgamfkiy)" style="stroke:#A9A9A9;stroke-width:1.0;"/><path d="M134.5,885.5 L134.5,895.5 L144.5,895.5 L134.5,885.5 " fill="#FFFFFF" style="stroke:#A9A9A9;stroke-width:1.0;"/><text fill="#808080" font-family="sans-serif" font-size="13" lengthAdjust="spacing" textLength="88" x="35.5" y="902.5669">You can inject</text><text fill="#808080" font-family="sans-serif" font-size="13" lengthAdjust="spacing" textLength="100" x="29.5" y="917.6997">data here using</text><text fill="#808080" font-family="sans-serif" font-size="13" font-style="italic" lengthAdjust="spacing" textLength="92" x="33.5" y="932.8325">schedule_user</text><!--MD5=[995a46705506099b563611b182911a66]
entity daemon--><rect fill="#009646" filter="url(#f95c8hgamfkiy)" height="101.4844" style="stroke:#6A8198;stroke-width:1.5;" width="190" x="576" y="1361"/><text fill="#FFFFFF" font-family="sans-serif" font-size="14" font-weight="bold" lengthAdjust="spacing" textLength="71" x="635.5" y="1383.9951">In Queue</text><text fill="#FFFFFF" font-family="sans-serif" font-size="14" font-style="italic" lengthAdjust="spacing" textLength="107" x="617.5" y="1400.292">python process</text><text fill="#FFFFFF" font-family="sans-serif" font-size="14" lengthAdjust="spacing" textLength="0" x="673" y="1416.5889"/><text fill="#FFFFFF" font-family="sans-serif" font-size="14" lengthAdjust="spacing" textLength="78" x="632" y="1432.8857">Reads uuid</text><text fill="#FFFFFF" font-family="sans-serif" font-size="14" lengthAdjust="spacing" textLength="170" x="586" y="1449.1826">Writes udm objects JSON</text><!--MD5=[7a603111606425ec6ae263a7f93634a1]
entity sqlite--><path d="M927.5,1358 C927.5,1348 1016,1348 1016,1348 C1016,1348 1104.5,1348 1104.5,1358 L1104.5,1464.7813 C1104.5,1474.7813 1016,1474.7813 1016,1474.7813 C1016,1474.7813 927.5,1474.7813 927.5,1464.7813 L927.5,1358 " fill="#BDBDBB" filter="url(#f95c8hgamfkiy)" style="stroke:#000000;stroke-width:1.5;"/><path d="M927.5,1358 C927.5,1368 1016,1368 1016,1368 C1016,1368 1104.5,1368 1104.5,1358 " fill="none" style="stroke:#000000;stroke-width:1.5;"/><text fill="#000000" font-family="sans-serif" font-size="14" font-weight="bold" lengthAdjust="spacing" textLength="147" x="942.5" y="1384.9951">UUID record cache</text><text fill="#000000" font-family="sans-serif" font-size="14" font-style="italic" lengthAdjust="spacing" textLength="36" x="998" y="1401.292">sqlite</text><text fill="#000000" font-family="sans-serif" font-size="14" lengthAdjust="spacing" textLength="0" x="1018" y="1417.5889"/><text fill="#000000" font-family="sans-serif" font-size="14" lengthAdjust="spacing" textLength="95" x="968.5" y="1433.8857">stores uuid-&gt;</text><text fill="#000000" font-family="sans-serif" font-size="14" lengthAdjust="spacing" textLength="153" x="937.5" y="1450.1826">(record_uid,school, ...)</text><text fill="#000000" font-family="sans-serif" font-size="14" lengthAdjust="spacing" textLength="60" x="986" y="1466.4795">mapping</text><!--MD5=[aa495e3eb3961d298bd459a654c16499]
entity out_queue_a--><polygon fill="#BDBDBB" filter="url(#f95c8hgamfkiy)" points="667.5,1567,713.5,1567,720.5,1588,808.5,1588,808.5,1670.1875,667.5,1670.1875,667.5,1567" style="stroke:#000000;stroke-width:1.5;"/><line style="stroke:#000000;stroke-width:1.5;" x1="667.5" x2="720.5" y1="1588" y2="1588"/><text fill="#000000" font-family="sans-serif" font-size="14" font-weight="bold" lengthAdjust="spacing" textLength="99" x="683.5" y="1607.9951">Out queue A</text><text fill="#000000" font-family="sans-serif" font-size="14" font-style="italic" lengthAdjust="spacing" textLength="35" x="715.5" y="1624.292">JSON</text><text fill="#000000" font-family="sans-serif" font-size="14" lengthAdjust="spacing" textLength="0" x="735" y="1640.5889"/><text fill="#000000" font-family="sans-serif" font-size="14" lengthAdjust="spacing" textLength="111" x="677.5" y="1656.8857">user/group data</text><!--MD5=[8021323f67cea1c74145feef327135cf]
entity out_queue_b--><polygon fill="#BDBDBB" filter="url(#f95c8hgamfkiy)" points="845.5,1567,891.5,1567,898.5,1588,986.5,1588,986.5,1670.1875,845.5,1670.1875,845.5,1567" style="stroke:#000000;stroke-width:1.5;"/><line style="stroke:#000000;stroke-width:1.5;" x1="845.5" x2="898.5" y1="1588" y2="1588"/><text fill="#000000" font-family="sans-serif" font-size="14" font-weight="bold" lengthAdjust="spacing" textLength="98" x="862" y="1607.9951">Out queue B</text><text fill="#000000" font-family="sans-serif" font-size="14" font-style="italic" lengthAdjust="spacing" textLength="35" x="893.5" y="1624.292">JSON</text><text fill="#000000" font-family="sans-serif" font-size="14" lengthAdjust="spacing" textLength="0" x="913" y="1640.5889"/><text fill="#000000" font-family="sans-serif" font-size="14" lengthAdjust="spacing" textLength="111" x="855.5" y="1656.8857">user/group data</text><!--MD5=[6092215e3515c37d02fcdd5d840fc6cc]
entity out_b--><rect fill="#009646" filter="url(#f95c8hgamfkiy)" height="85.1875" style="stroke:#6A8198;stroke-width:1.5;" width="164" x="940" y="1785"/><text fill="#FFFFFF" font-family="sans-serif" font-size="14" font-weight="bold" lengthAdjust="spacing" textLength="43" x="1000.5" y="1807.9951">Out B</text><text fill="#FFFFFF" font-family="sans-serif" font-size="14" font-style="italic" lengthAdjust="spacing" textLength="144" x="950" y="1824.292">kelvin plugin process</text><text fill="#FFFFFF" font-family="sans-serif" font-size="14" lengthAdjust="spacing" textLength="0" x="1024" y="1840.5889"/><text fill="#FFFFFF" font-family="sans-serif" font-size="14" lengthAdjust="spacing" textLength="130" x="957" y="1856.8857">sends to Kelvin API</text><!--MD5=[02d40d299676c8ea51b3d02e8ed2258d]
entity out_a--><rect fill="#009646" filter="url(#f95c8hgamfkiy)" height="85.1875" style="stroke:#6A8198;stroke-width:1.5;" width="164" x="741" y="1785"/><text fill="#FFFFFF" font-family="sans-serif" font-size="14" font-weight="bold" lengthAdjust="spacing" textLength="44" x="801" y="1807.9951">Out A</text><text fill="#FFFFFF" font-family="sans-serif" font-size="14" font-style="italic" lengthAdjust="spacing" textLength="144" x="751" y="1824.292">kelvin plugin process</text><text fill="#FFFFFF" font-family="sans-serif" font-size="14" lengthAdjust="spacing" textLength="0" x="825" y="1840.5889"/><text fill="#FFFFFF" font-family="sans-serif" font-size="14" lengthAdjust="spacing" textLength="130" x="758" y="1856.8857">sends to Kelvin API</text><!--MD5=[194aa454895f181ee76f84c49e4a9079]
entity management_api--><rect fill="#009646" filter="url(#f95c8hgamfkiy)" height="101.4844" style="stroke:#6A8198;stroke-width:1.5;" width="196" x="423" y="1777"/><text fill="#FFFFFF" font-family="sans-serif" font-size="14" font-weight="bold" lengthAdjust="spacing" textLength="175" x="433.5" y="1799.9951">Management REST API</text><text fill="#FFFFFF" font-family="sans-serif" font-size="14" font-style="italic" lengthAdjust="spacing" textLength="44" x="499" y="1816.292">fastapi</text><text fill="#FFFFFF" font-family="sans-serif" font-size="14" lengthAdjust="spacing" textLength="0" x="523" y="1832.5889"/><text fill="#FFFFFF" font-family="sans-serif" font-size="14" lengthAdjust="spacing" textLength="176" x="433" y="1848.8857">CRUD sync target configs</text><text fill="#FFFFFF" font-family="sans-serif" font-size="14" lengthAdjust="spacing" textLength="83" x="479.5" y="1865.1826">and queues</text><ellipse cx="530.2234" cy="55.1894" fill="#FFFFFF" filter="url(#f95c8hgamfkiy)" rx="178.7234" ry="49.1894" style="stroke:#808080;stroke-width:1.5;"/><text fill="#777777" font-family="sans-serif" font-size="14" font-weight="bold" lengthAdjust="spacing" textLength="236" x="409.2234" y="34.4916">School management software</text><text fill="#777777" font-family="sans-serif" font-size="14" font-style="italic" lengthAdjust="spacing" textLength="104" x="475.2234" y="50.7885">custom system</text><text fill="#777777" font-family="sans-serif" font-size="14" lengthAdjust="spacing" textLength="0" x="529.2234" y="67.0854"/><text fill="#777777" font-family="sans-serif" font-size="14" lengthAdjust="spacing" textLength="203" x="425.7234" y="83.3823">manages users on state level</text><!--MD5=[47722de4571988dbdff5f58bebd85cab]
entity importer--><rect fill="#009646" filter="url(#f95c8hgamfkiy)" height="85.1875" style="stroke:#6A8198;stroke-width:1.5;" width="179" x="440.5" y="196"/><text fill="#FFFFFF" font-family="sans-serif" font-size="14" font-weight="bold" lengthAdjust="spacing" textLength="155" x="452.5" y="218.9951">UCS@School import</text><text fill="#FFFFFF" font-family="sans-serif" font-size="14" font-style="italic" lengthAdjust="spacing" textLength="49" x="505.5" y="235.292">python</text><text fill="#FFFFFF" font-family="sans-serif" font-size="14" lengthAdjust="spacing" textLength="0" x="532" y="251.5889"/><text fill="#FFFFFF" font-family="sans-serif" font-size="14" lengthAdjust="spacing" textLength="159" x="450.5" y="267.8857">Import user/group data</text><path d="M655,211 L655,234.5 L619.82,238.5 L655,242.5 L655,266.3984 A0,0 0 0 0 655,266.3984 L843,266.3984 A0,0 0 0 0 843,266.3984 L843,221 L833,211 L655,211 A0,0 0 0 0 655,211 " fill="#FFFFFF" filter="url(#f95c8hgamfkiy)" style="stroke:#A9A9A9;stroke-width:1.0;"/><path d="M833,211 L833,221 L843,221 L833,211 " fill="#FFFFFF" style="stroke:#A9A9A9;stroke-width:1.0;"/><text fill="#808080" font-family="sans-serif" font-size="13" lengthAdjust="spacing" textLength="167" x="661" y="228.0669">This could also be another</text><text fill="#808080" font-family="sans-serif" font-size="13" lengthAdjust="spacing" textLength="117" x="686" y="243.1997">source of changes</text><text fill="#808080" font-family="sans-serif" font-size="13" lengthAdjust="spacing" textLength="58" x="715.5" y="258.3325">e.g. UMC</text><!--MD5=[7ae70b43012fc5e1ca54de92c75677c7]
entity large_queue--><polygon fill="#BDBDBB" filter="url(#f95c8hgamfkiy)" points="506,1081,552,1081,559,1102,656,1102,656,1184.1875,506,1184.1875,506,1081" style="stroke:#000000;stroke-width:1.5;"/><line style="stroke:#000000;stroke-width:1.5;" x1="506" x2="559" y1="1102" y2="1102"/><text fill="#000000" font-family="sans-serif" font-size="14" font-weight="bold" lengthAdjust="spacing" textLength="120" x="516" y="1121.9951">Large in-queue</text><text fill="#000000" font-family="sans-serif" font-size="14" font-style="italic" lengthAdjust="spacing" textLength="65" x="543.5" y="1138.292">JSON files</text><text fill="#000000" font-family="sans-serif" font-size="14" lengthAdjust="spacing" textLength="0" x="578" y="1154.5889"/><text fill="#000000" font-family="sans-serif" font-size="14" lengthAdjust="spacing" textLength="53" x="549.5" y="1170.8857">full data</text><ellipse cx="794.1873" cy="2021.0945" fill="#FFFFFF" filter="url(#f95c8hgamfkiy)" rx="111.1873" ry="49.0945" style="stroke:#808080;stroke-width:1.5;"/><text fill="#777777" font-family="sans-serif" font-size="14" font-weight="bold" lengthAdjust="spacing" textLength="141" x="723.6873" y="1999.4959">School provider A</text><text fill="#777777" font-family="sans-serif" font-size="14" font-style="italic" lengthAdjust="spacing" textLength="83" x="752.6873" y="2015.7928">UCS / Kelvin</text><text fill="#777777" font-family="sans-serif" font-size="14" lengthAdjust="spacing" textLength="0" x="796.1873" y="2032.0896"/><text fill="#777777" font-family="sans-serif" font-size="14" lengthAdjust="spacing" textLength="121" x="733.6873" y="2048.3865">Manages schools</text><ellipse cx="1050.9802" cy="2021.0945" fill="#FFFFFF" filter="url(#f95c8hgamfkiy)" rx="110.4802" ry="49.0945" style="stroke:#808080;stroke-width:1.5;"/><text fill="#777777" font-family="sans-serif" font-size="14" font-weight="bold" lengthAdjust="spacing" textLength="140" x="980.9802" y="1999.4959">School provider B</text><text fill="#777777" font-family="sans-serif" font-size="14" font-style="italic" lengthAdjust="spacing" textLength="83" x="1009.4802" y="2015.7928">UCS / Kelvin</text><text fill="#777777" font-family="sans-serif" font-size="14" lengthAdjust="spacing" textLength="0" x="1052.9802" y="2032.0896"/><text fill="#777777" font-family="sans-serif" font-size="14" lengthAdjust="spacing" textLength="121" x="990.4802" y="2048.3865">Manages schools</text><!--MD5=[b9d5f6c7ed6e88f2c687d175fa263add]
link sms to importer--><path d="M530,104.16 C530,130.94 530,164.12 530,190.68 " fill="none" id="sms-to-importer" style="stroke:#666666;stroke-width:1.0;"/><polygon fill="#666666" points="530,195.9,534,186.9,530,190.9,526,186.9,530,195.9" style="stroke:#666666;stroke-width:1.0;"/><text fill="#666666" font-family="sans-serif" font-size="13" font-weight="bold" lengthAdjust="spacing" textLength="144" x="531" y="147.0669">export of user data</text><text fill="#666666" font-family="sans-serif" font-size="13" font-style="italic" lengthAdjust="spacing" textLength="45" x="580.5" y="162.1997">python</text><!--MD5=[c9d20122752c08dd96b959ce5906c64c]
link importer to ldap--><path d="M530,281.03 C530,324.51 530,392.85 530,439.68 " fill="none" id="importer-to-ldap" style="stroke:#666666;stroke-width:1.0;"/><polygon fill="#666666" points="530,444.71,534,435.71,530,439.71,526,435.71,530,444.71" style="stroke:#666666;stroke-width:1.0;"/><text fill="#666666" font-family="sans-serif" font-size="13" font-weight="bold" lengthAdjust="spacing" textLength="162" x="531" y="324.0669">write user/group data</text><text fill="#666666" font-family="sans-serif" font-size="13" font-style="italic" lengthAdjust="spacing" textLength="45" x="589.5" y="339.1997">python</text><!--MD5=[0778b217ed62fbcddf9240b82e53e7fd]
link ldap to listener--><path d="M468.47,539.07 C456.71,548.6 444.73,558.84 434,569 C410.14,591.59 385.71,618.63 365.79,641.9 " fill="none" id="ldap-to-listener" style="stroke:#666666;stroke-width:1.0;"/><polygon fill="#666666" points="362.37,645.9,371.2549,641.6506,365.6157,642.0967,365.1696,636.4574,362.37,645.9" style="stroke:#666666;stroke-width:1.0;"/><text fill="#666666" font-family="sans-serif" font-size="13" font-weight="bold" lengthAdjust="spacing" textLength="85" x="435" y="582.0669">call listener</text><text fill="#666666" font-family="sans-serif" font-size="13" font-weight="bold" lengthAdjust="spacing" textLength="60" x="450" y="597.1997">on write</text><text fill="#666666" font-family="sans-serif" font-size="13" font-style="italic" lengthAdjust="spacing" textLength="45" x="455" y="612.3325">python</text><!--MD5=[e1cf6d1f8cc7a3865de975f755036974]
link listener to small_queue--><path d="M306,747.25 C295.49,779.92 281.72,822.71 270.86,856.49 " fill="none" id="listener-to-small_queue" style="stroke:#666666;stroke-width:1.0;"/><polygon fill="#666666" points="269.28,861.4,275.8415,854.0551,270.8096,856.6397,268.225,851.6078,269.28,861.4" style="stroke:#666666;stroke-width:1.0;"/><text fill="#666666" font-family="sans-serif" font-size="13" font-weight="bold" lengthAdjust="spacing" textLength="123" x="297" y="790.0669">write entryUUIDs</text><text fill="#666666" font-family="sans-serif" font-size="13" font-weight="bold" lengthAdjust="spacing" textLength="95" x="311" y="805.1997">and changes</text><text fill="#666666" font-family="sans-serif" font-size="13" font-style="italic" lengthAdjust="spacing" textLength="32" x="342.5" y="820.3325">JSON</text><!--MD5=[3009a6f81879c83195bf7057e3c4e0f0]
link small_queue to converter--><path d="M326.3,913 C370.85,913 428.57,913 478.36,913 " fill="none" id="small_queue-to-converter" style="stroke:#666666;stroke-width:1.0;"/><polygon fill="#666666" points="483.47,913,474.47,909,478.47,913,474.47,917,483.47,913" style="stroke:#666666;stroke-width:1.0;"/><text fill="#666666" font-family="sans-serif" font-size="13" font-weight="bold" lengthAdjust="spacing" textLength="121" x="344.25" y="876.0669">read entryUUIDS</text><text fill="#666666" font-family="sans-serif" font-size="13" font-weight="bold" lengthAdjust="spacing" textLength="95" x="357.25" y="891.1997">and changes</text><text fill="#666666" font-family="sans-serif" font-size="13" font-style="italic" lengthAdjust="spacing" textLength="32" x="388.75" y="906.3325">JSON</text><!--MD5=[e8e5414d468394fb89da731946ef0d96]
link converter to large_queue--><path d="M585.4,972 C584.51,1004.13 583.42,1043.89 582.54,1075.67 " fill="none" id="converter-to-large_queue" style="stroke:#666666;stroke-width:1.0;"/><polygon fill="#666666" points="582.4,1080.7,586.6554,1071.8179,582.5428,1075.702,578.6587,1071.5894,582.4,1080.7" style="stroke:#666666;stroke-width:1.0;"/><text fill="#666666" font-family="sans-serif" font-size="13" font-weight="bold" lengthAdjust="spacing" textLength="37" x="629" y="1017.0669">write</text><text fill="#666666" font-family="sans-serif" font-size="13" font-weight="bold" lengthAdjust="spacing" textLength="120" x="590" y="1032.1997">user/group data</text><text fill="#666666" font-family="sans-serif" font-size="13" font-style="italic" lengthAdjust="spacing" textLength="32" x="631.5" y="1047.3325">JSON</text><!--MD5=[d983799e7288e6b488ea9ad2c859bd6e]
link large_queue to daemon--><path d="M572.29,1184.05 C570.57,1203.68 570.69,1226.17 576,1246 C586.66,1285.77 609.52,1325.88 630.14,1356.54 " fill="none" id="large_queue-to-daemon" style="stroke:#666666;stroke-width:1.0;"/><polygon fill="#666666" points="633.17,1360.99,631.4215,1351.2976,630.3604,1356.854,624.804,1355.793,633.17,1360.99" style="stroke:#666666;stroke-width:1.0;"/><text fill="#666666" font-family="sans-serif" font-size="13" font-weight="bold" lengthAdjust="spacing" textLength="159" x="577" y="1227.0669">read user/group data</text><text fill="#666666" font-family="sans-serif" font-size="13" font-style="italic" lengthAdjust="spacing" textLength="32" x="640.5" y="1242.1997">JSON</text><!--MD5=[c4d11be3261513966a2da79344b804fe]
link ldap to converter--><path d="M536.26,539.04 C546.5,614.28 566.83,763.73 578.41,848.83 " fill="none" id="ldap-to-converter" style="stroke:#666666;stroke-width:1.0;"/><polygon fill="#666666" points="579.09,853.84,581.8458,844.3846,578.4189,848.8852,573.9182,845.4583,579.09,853.84" style="stroke:#666666;stroke-width:1.0;"/><text fill="#666666" font-family="sans-serif" font-size="13" font-weight="bold" lengthAdjust="spacing" textLength="159" x="565" y="693.5669">read user/group data</text><text fill="#666666" font-family="sans-serif" font-size="13" font-style="italic" lengthAdjust="spacing" textLength="77" x="606" y="708.6997">python-ldap</text><!--MD5=[9eddf691bb796437f288f731e46d2abd]
link ldap to daemon--><path d="M596.15,517.5 C665.03,547.8 763,606.53 763,695.5 C763,695.5 763,695.5 763,1133.5 C763,1214.09 727.5,1301.44 700.6,1356.06 " fill="none" id="ldap-to-daemon" style="stroke:#666666;stroke-width:1.0;"/><polygon fill="#666666" points="698.35,1360.59,705.9446,1354.3193,700.5803,1356.115,698.7846,1350.7507,698.35,1360.59" style="stroke:#666666;stroke-width:1.0;"/><text fill="#666666" font-family="sans-serif" font-size="13" font-weight="bold" lengthAdjust="spacing" textLength="107" x="764" y="910.0669">get extra data</text><text fill="#666666" font-family="sans-serif" font-size="13" font-style="italic" lengthAdjust="spacing" textLength="77" x="779" y="925.1997">python-ldap</text><!--MD5=[127cfc3688091e93c96221c44d0f6976]
link daemon to sqlite--><path d="M766.19,1411.5 C814.78,1411.5 873.69,1411.5 922.09,1411.5 " fill="none" id="daemon-to-sqlite" style="stroke:#666666;stroke-width:1.0;"/><polygon fill="#666666" points="927.34,1411.5,918.34,1407.5,922.34,1411.5,918.34,1415.5,927.34,1411.5" style="stroke:#666666;stroke-width:1.0;"/><text fill="#666666" font-family="sans-serif" font-size="13" font-weight="bold" lengthAdjust="spacing" textLength="76" x="808.75" y="1374.5669">read/write</text><text fill="#666666" font-family="sans-serif" font-size="13" font-weight="bold" lengthAdjust="spacing" textLength="120" x="789.25" y="1389.6997">user/group data</text><text fill="#666666" font-family="sans-serif" font-size="13" font-style="italic" lengthAdjust="spacing" textLength="45" x="824.25" y="1404.8325">python</text><!--MD5=[f6eeb8577055c2c3744e77e11d12c8db]
link daemon to out_queue_a--><path d="M687.22,1462.12 C697.07,1492.27 709.67,1530.82 719.85,1561.97 " fill="none" id="daemon-to-out_queue_a" style="stroke:#666666;stroke-width:1.0;"/><polygon fill="#666666" points="721.47,1566.91,722.4718,1557.1122,719.9146,1562.1581,714.8687,1559.6009,721.47,1566.91" style="stroke:#666666;stroke-width:1.0;"/><text fill="#666666" font-family="sans-serif" font-size="13" font-weight="bold" lengthAdjust="spacing" textLength="37" x="711" y="1518.0669">write</text><text fill="#666666" font-family="sans-serif" font-size="13" font-style="italic" lengthAdjust="spacing" textLength="32" x="713.5" y="1533.1997">JSON</text><!--MD5=[d5a63a035d29fa3ef42f8adb36131b44]
link daemon to out_queue_b--><path d="M730.31,1462.12 C766.93,1492.77 813.92,1532.09 851.47,1563.51 " fill="none" id="daemon-to-out_queue_b" style="stroke:#666666;stroke-width:1.0;"/><polygon fill="#666666" points="855.54,1566.91,851.1997,1558.0691,851.7036,1563.7034,846.0692,1564.2073,855.54,1566.91" style="stroke:#666666;stroke-width:1.0;"/><text fill="#666666" font-family="sans-serif" font-size="13" font-weight="bold" lengthAdjust="spacing" textLength="37" x="816" y="1518.0669">write</text><text fill="#666666" font-family="sans-serif" font-size="13" font-style="italic" lengthAdjust="spacing" textLength="32" x="818.5" y="1533.1997">JSON</text><!--MD5=[e17d3b570877514a29ee42294b9ce519]
link out_queue_a to out_a--><path d="M758.79,1670.14 C772.57,1703.68 790.5,1747.34 803.91,1780 " fill="none" id="out_queue_a-to-out_a" style="stroke:#666666;stroke-width:1.0;"/><polygon fill="#666666" points="805.85,1784.74,806.1327,1774.8952,803.9513,1780.1145,798.7319,1777.9332,805.85,1784.74" style="stroke:#666666;stroke-width:1.0;"/><text fill="#666666" font-family="sans-serif" font-size="13" font-weight="bold" lengthAdjust="spacing" textLength="34" x="789" y="1720.5669">read</text><text fill="#666666" font-family="sans-serif" font-size="13" font-style="italic" lengthAdjust="spacing" textLength="32" x="790" y="1735.6997">JSON</text><!--MD5=[6049a3ef58aa70c8891f7f818e65d62f]
link out_queue_b to out_b--><path d="M941.93,1670.14 C959.11,1703.68 981.46,1747.34 998.19,1780 " fill="none" id="out_queue_b-to-out_b" style="stroke:#666666;stroke-width:1.0;"/><polygon fill="#666666" points="1000.61,1784.74,1000.0746,1774.9057,998.3339,1780.2881,992.9516,1778.5474,1000.61,1784.74" style="stroke:#666666;stroke-width:1.0;"/><text fill="#666666" font-family="sans-serif" font-size="13" font-weight="bold" lengthAdjust="spacing" textLength="34" x="979" y="1720.5669">read</text><text fill="#666666" font-family="sans-serif" font-size="13" font-style="italic" lengthAdjust="spacing" textLength="32" x="980" y="1735.6997">JSON</text><!--MD5=[f572066c290b686b345433416987adfc]
link out_a to school_provider_a--><path d="M816.71,1870.05 C812.42,1898.34 806.72,1936.03 802.09,1966.55 " fill="none" id="out_a-to-school_provider_a" style="stroke:#666666;stroke-width:1.0;"/><polygon fill="#666666" points="801.3,1971.77,806.6166,1963.4794,802.0571,1966.8276,798.7088,1962.2681,801.3,1971.77" style="stroke:#666666;stroke-width:1.0;"/><text fill="#666666" font-family="sans-serif" font-size="13" font-weight="bold" lengthAdjust="spacing" textLength="123" x="811" y="1923.0669">write user/group</text><text fill="#666666" font-family="sans-serif" font-size="13" font-style="italic" lengthAdjust="spacing" textLength="34" x="855.5" y="1938.1997">HTTP</text><!--MD5=[7038b640b3daffc987451c364fc69fab]
link out_b to school_provider_b--><path d="M1028.29,1870.05 C1032.58,1898.34 1038.28,1936.03 1042.91,1966.55 " fill="none" id="out_b-to-school_provider_b" style="stroke:#666666;stroke-width:1.0;"/><polygon fill="#666666" points="1043.7,1971.77,1046.2912,1962.2681,1042.9429,1966.8276,1038.3834,1963.4794,1043.7,1971.77" style="stroke:#666666;stroke-width:1.0;"/><text fill="#666666" font-family="sans-serif" font-size="13" font-weight="bold" lengthAdjust="spacing" textLength="123" x="1040" y="1923.0669">write user/group</text><text fill="#666666" font-family="sans-serif" font-size="13" font-style="italic" lengthAdjust="spacing" textLength="34" x="1084.5" y="1938.1997">HTTP</text><!--MD5=[9abeea543c4e1effb37ec9da35b41546]
link daemon to management_api--><path d="M624.23,1466.44 C602.25,1494.62 577.71,1530.72 563,1567 C535.75,1634.19 526.15,1717.93 522.78,1771.8 " fill="none" id="daemon-management_api" style="stroke:#666666;stroke-width:1.0;"/><polygon fill="#666666" points="522.48,1776.92,527.0133,1768.1765,522.7803,1771.929,519.0278,1767.696,522.48,1776.92" style="stroke:#666666;stroke-width:1.0;"/><polygon fill="#666666" points="627.45,1462.34,618.7451,1466.947,624.3615,1466.2721,625.0364,1471.8885,627.45,1462.34" style="stroke:#666666;stroke-width:1.0;"/><text fill="#666666" font-family="sans-serif" font-size="13" font-weight="bold" lengthAdjust="spacing" textLength="46" x="583.5" y="1608.0669">config</text><text fill="#666666" font-family="sans-serif" font-size="13" font-weight="bold" lengthAdjust="spacing" textLength="85" x="564" y="1623.1997">read status</text><text fill="#666666" font-family="sans-serif" font-size="13" font-style="italic" lengthAdjust="spacing" textLength="32" x="590.5" y="1638.3325">JSON</text><!--MD5=[4cd7ff0d337bd97a1c186fcbb4094890]
link management_api to out_a--><path d="M624.14,1827.5 C660.37,1827.5 700.7,1827.5 735.51,1827.5 " fill="none" id="management_api-out_a" style="stroke:#666666;stroke-width:1.0;"/><polygon fill="#666666" points="740.61,1827.5,731.61,1823.5,735.61,1827.5,731.61,1831.5,740.61,1827.5" style="stroke:#666666;stroke-width:1.0;"/><polygon fill="#666666" points="619.05,1827.5,628.05,1831.5,624.05,1827.5,628.05,1823.5,619.05,1827.5" style="stroke:#666666;stroke-width:1.0;"/><text fill="#666666" font-family="sans-serif" font-size="13" font-weight="bold" lengthAdjust="spacing" textLength="46" x="657" y="1790.5669">config</text><text fill="#666666" font-family="sans-serif" font-size="13" font-weight="bold" lengthAdjust="spacing" textLength="85" x="637.5" y="1805.6997">read status</text><text fill="#666666" font-family="sans-serif" font-size="13" font-style="italic" lengthAdjust="spacing" textLength="32" x="664" y="1820.8325">JSON</text><!--MD5=[651d6ef32ed431089ecb85f26324492d]
link management_api to out_b--><path d="M560.27,1772.72 C580.18,1749.66 606.51,1725.35 636.5,1713 C696.82,1688.17 862.69,1752.13 923,1777 C927.48,1778.85 932.04,1780.82 936.61,1782.87 " fill="none" id="management_api-out_b" style="stroke:#666666;stroke-width:1.0;"/><polygon fill="#666666" points="941.18,1784.95,934.6419,1777.5843,936.6282,1782.881,931.3315,1784.8672,941.18,1784.95" style="stroke:#666666;stroke-width:1.0;"/><polygon fill="#666666" points="556.88,1776.71,565.7477,1772.4248,560.1104,1772.8936,559.6415,1767.2562,556.88,1776.71" style="stroke:#666666;stroke-width:1.0;"/><text fill="#666666" font-family="sans-serif" font-size="13" font-weight="bold" lengthAdjust="spacing" textLength="46" x="657" y="1713.0669">config</text><text fill="#666666" font-family="sans-serif" font-size="13" font-weight="bold" lengthAdjust="spacing" textLength="85" x="637.5" y="1728.1997">read status</text><text fill="#666666" font-family="sans-serif" font-size="13" font-style="italic" lengthAdjust="spacing" textLength="32" x="664" y="1743.3325">JSON</text><!--MD5=[b68198d0c4e56caa7cb9c1e1d9418fb4]
@startuml
!include styling.puml
' skinparam linetype round


!include object_sms.puml
!include object_importer.puml
!include object_note_importer.puml

frame "DC Primary\n<i>ucs" as primary {
    !include object_ldap.puml
    !include object_listener.puml
    !include object_converter.puml
    !include object_small_queue.puml
    !include object_note_schedule_user.puml

}

!include object_large_queue.puml


frame "ID Connector\nDocker" as id_connector {
    !include object_daemon.puml
    !include object_sqlite.puml
    !include object_out_queue_a.puml
    !include object_out_queue_b.puml
    !include object_out_a.puml
    !include object_out_b.puml
    !include object_management_api.puml
}

!include object_school_provider_a.puml
!include object_school_provider_b.puml

sms - -> importer : <b>export of user data\n<i>python

importer - -> ldap: <b>write user/group data\n<i>python
ldap - -> listener: <b>call listener\n<b> on write\n<i>python
listener - -> small_queue: <b>write entryUUIDs\n<b>and changes\n<i>JSON
small_queue -right-> converter:  <b>read entryUUIDS\n<b>and changes\n<i>JSON
converter - -> large_queue: <b>write\n<b> user/group data\n<i>JSON
large_queue - -> daemon: <b>read user/group data\n<i>JSON
ldap - -> converter: <b>read user/group data\n<i>python-ldap
ldap - -> daemon : <b>get extra data\n<i>python-ldap

daemon-right->sqlite: <b>read/write\n<b> user/group data\n<i>python
daemon - -> out_queue_a:<b>write\n<i>JSON
daemon - -> out_queue_b:<b>write\n<i>JSON
out_queue_a - -> out_a:<b>read\n<i>JSON
out_queue_b - -> out_b:<b>read\n<i>JSON
out_a - -> school_provider_a:<b>write user/group\n<i>HTTP
out_b - -> school_provider_b:<b>write user/group\n<i>HTTP



daemon <- -> management_api:<b>config\n<b>read status\n<i>JSON
out_a <-left-> management_api:<b>config\n<b>read status\n<i>JSON
out_b <-left-> management_api:<b>config\n<b>read status\n<i>JSON

@enduml

@startuml
skinparam backgroundColor white
skinparam defaultTextAlignment center

skinparam AgentBackgroundColor  #009646
skinparam AgentFontColor white
skinparam AgentBorderColor #6a8198

skinparam FolderBackgroundColor #bdbdbb
skinparam StorageBackgroundColor #7AB51D
skinparam DatabaseBackgroundColor #bdbdbb

skinparam NoteBackgroundColor white
skinparam NoteFontColor grey
skinparam NoteBorderColor darkgrey

skinparam FileBackgroundColor d8d8d6
skinparam UsecaseBackgroundColor white
skinparam UsecaseFontColor #777777
skinparam UsecaseBorderColor grey

skinparam ArrowColor #666666
skinparam ArrowFontColor #666666

skinparam FrameBackgroundColor   #ededed


    Usecase "<b>School management software\n<i>custom system\n\nmanages users on state level" as sms
    agent "<b>UCS@School import\n<i>python\n\nImport user/group data" as importer
    note right
        This could also be another
        source of changes
        e.g. UMC
    endnote

frame "DC Primary\n<i>ucs" as primary {
    database "<b>LDAP\n<i>openldap\n\nUser/group data" as ldap
    storage "<b>ID-Connector listener\n<i>python listener script\n\nHandles LDAP write events\nfor id-connector" as listener
    agent "<b>Converter\n<i>app daemon in python\n\nReads uuid and writes\njson representation of udm\nobjects" as converter
    folder "<b>Small in-queue\n<i>JSON files\n\njust entryUUIDs" as small_queue
    note left
        You can inject
        data here using
        <i>schedule_user
    endnote

}

    folder "<b>Large in-queue\n<i>JSON files\n\nfull data" as large_queue


frame "ID Connector\nDocker" as id_connector {
    agent "<b>In Queue\n<i>python process\n\nReads uuid\nWrites udm objects JSON" as daemon
    database "<b>UUID record cache\n<i>sqlite\n\nstores uuid->\n(record_uid,school, ...) \nmapping" as sqlite
    folder "<b>Out queue A\n<i>JSON\n\nuser/group data" as out_queue_a
    folder "<b>Out queue B\n<i>JSON\n\nuser/group data" as out_queue_b
     agent "<b>Out B\n<i>kelvin plugin process\n\nsends to Kelvin API" as out_b
     agent "<b>Out A\n<i>kelvin plugin process\n\nsends to Kelvin API" as out_a
        agent "<b>Management REST API\n<i>fastapi\n\nCRUD sync target configs\nand queues" as management_api
}

     usecase "<b>School provider A\n<i>UCS / Kelvin\n\nManages schools" as school_provider_a
     usecase "<b>School provider B\n<i>UCS / Kelvin\n\nManages schools" as school_provider_b

sms - -> importer : <b>export of user data\n<i>python

importer - -> ldap: <b>write user/group data\n<i>python
ldap - -> listener: <b>call listener\n<b> on write\n<i>python
listener - -> small_queue: <b>write entryUUIDs\n<b>and changes\n<i>JSON
small_queue -right-> converter:  <b>read entryUUIDS\n<b>and changes\n<i>JSON
converter - -> large_queue: <b>write\n<b> user/group data\n<i>JSON
large_queue - -> daemon: <b>read user/group data\n<i>JSON
ldap - -> converter: <b>read user/group data\n<i>python-ldap
ldap - -> daemon : <b>get extra data\n<i>python-ldap

daemon-right->sqlite: <b>read/write\n<b> user/group data\n<i>python
daemon - -> out_queue_a:<b>write\n<i>JSON
daemon - -> out_queue_b:<b>write\n<i>JSON
out_queue_a - -> out_a:<b>read\n<i>JSON
out_queue_b - -> out_b:<b>read\n<i>JSON
out_a - -> school_provider_a:<b>write user/group\n<i>HTTP
out_b - -> school_provider_b:<b>write user/group\n<i>HTTP



daemon <- -> management_api:<b>config\n<b>read status\n<i>JSON
out_a <-left-> management_api:<b>config\n<b>read status\n<i>JSON
out_b <-left-> management_api:<b>config\n<b>read status\n<i>JSON

@enduml

PlantUML version 1.2021.14(Fri Nov 12 17:46:50 CET 2021)
(GPL source distribution)
Java Runtime: OpenJDK Runtime Environment
JVM: OpenJDK 64-Bit Server VM
Default Encoding: UTF-8
Language: en
Country: US
--></g></svg>
