<?xml version="1.0" encoding="UTF-8" standalone="no"?><svg xmlns="http://www.w3.org/2000/svg" xmlns:xlink="http://www.w3.org/1999/xlink" contentScriptType="application/ecmascript" contentStyleType="text/css" height="1917px" preserveAspectRatio="none" style="width:679px;height:1917px;background:#FFFFFF;" version="1.1" viewBox="0 0 679 1917" width="679px" zoomAndPan="magnify"><defs><filter height="300%" id="fcjrs6avsglws" width="300%" x="-1" y="-1"><feGaussianBlur result="blurOut" stdDeviation="2.0"/><feColorMatrix in="blurOut" result="blurOut2" type="matrix" values="0 0 0 0 0 0 0 0 0 0 0 0 0 0 0 0 0 0 .4 0"/><feOffset dx="4.0" dy="4.0" in="blurOut2" result="blurOut3"/><feBlend in="SourceGraphic" in2="blurOut3" mode="normal"/></filter></defs><g><!--MD5=[e4bc94fd1bcaf729bb8f359c66f536d9]
cluster ID-Connector--><rect fill="#EBEDF1" filter="url(#fcjrs6avsglws)" height="719" style="stroke:#000000;stroke-width:1.5;" width="401" x="7" y="1103"/><path d="M122,1103 L122,1112.2969 L112,1122.2969 L7,1122.2969 " fill="none" style="stroke:#000000;stroke-width:1.5;"/><text fill="#000000" font-family="sans-serif" font-size="14" font-weight="bold" lengthAdjust="spacing" textLength="105" x="10" y="1116.9951">ID-Connector</text><!--MD5=[f8ff9d7f2aa69e8586ad27865f5533e6]
entity kelvin_rest_api--><rect fill="#438DD5" filter="url(#fcjrs6avsglws)" height="101.4844" style="stroke:#6A8198;stroke-width:1.5;" width="147" x="244.5" y="1139.5"/><text fill="#FFFFFF" font-family="sans-serif" font-size="14" font-weight="bold" lengthAdjust="spacing" textLength="127" x="254.5" y="1162.4951">Kelvin REST API</text><text fill="#FFFFFF" font-family="sans-serif" font-size="14" font-style="italic" lengthAdjust="spacing" textLength="48" x="294" y="1178.792">fastapi</text><text fill="#FFFFFF" font-family="sans-serif" font-size="14" lengthAdjust="spacing" textLength="0" x="320" y="1195.0889"/><text fill="#FFFFFF" font-family="sans-serif" font-size="14" lengthAdjust="spacing" textLength="126" x="255" y="1211.3857">stops events from</text><text fill="#FFFFFF" font-family="sans-serif" font-size="14" lengthAdjust="spacing" textLength="98" x="269" y="1227.6826">reaching ldap</text><!--MD5=[821805f5c38fda95533ab32586264233]
entity large_in_queue--><polygon fill="#B0CAE4" filter="url(#fcjrs6avsglws)" points="22.5,1138,68.5,1138,75.5,1159,209.5,1159,209.5,1242.4844,22.5,1242.4844,22.5,1138" style="stroke:#000000;stroke-width:1.5;"/><line style="stroke:#000000;stroke-width:1.5;" x1="22.5" x2="75.5" y1="1159" y2="1159"/><text fill="#000000" font-family="sans-serif" font-size="14" font-weight="bold" lengthAdjust="spacing" textLength="121" x="50.5" y="1178.9951">Large in-queue</text><text fill="#000000" font-family="sans-serif" font-size="14" font-style="italic" lengthAdjust="spacing" textLength="45" x="88.5" y="1195.292">Folder</text><text fill="#000000" font-family="sans-serif" font-size="14" lengthAdjust="spacing" textLength="0" x="113" y="1211.5889"/><text fill="#000000" font-family="sans-serif" font-size="14" lengthAdjust="spacing" textLength="157" x="32.5" y="1227.8857">json files with full data</text><!--MD5=[20530a36e6ab6ae76aff214754e4fc5b]
entity uuid_record_cache--><path d="M26,1313 C26,1303 116,1303 116,1303 C116,1303 206,1303 206,1313 L206,1419.7813 C206,1429.7813 116,1429.7813 116,1429.7813 C116,1429.7813 26,1429.7813 26,1419.7813 L26,1313 " fill="#85BBF0" filter="url(#fcjrs6avsglws)" style="stroke:#000000;stroke-width:1.5;"/><path d="M26,1313 C26,1323 116,1323 116,1323 C116,1323 206,1323 206,1313 " fill="none" style="stroke:#000000;stroke-width:1.5;"/><text fill="#000000" font-family="sans-serif" font-size="14" font-weight="bold" lengthAdjust="spacing" textLength="146" x="43" y="1339.9951">UUID record cache</text><text fill="#000000" font-family="sans-serif" font-size="14" font-style="italic" lengthAdjust="spacing" textLength="38" x="97" y="1356.292">sqlite</text><text fill="#000000" font-family="sans-serif" font-size="14" lengthAdjust="spacing" textLength="0" x="118" y="1372.5889"/><text fill="#000000" font-family="sans-serif" font-size="14" lengthAdjust="spacing" textLength="95" x="68.5" y="1388.8857">stores uuid-&gt;</text><text fill="#000000" font-family="sans-serif" font-size="14" lengthAdjust="spacing" textLength="156" x="36" y="1405.1826">(record_uid,school, ...)</text><text fill="#000000" font-family="sans-serif" font-size="14" lengthAdjust="spacing" textLength="63" x="84.5" y="1421.4795">mapping</text><!--MD5=[b2a0eeef433f628869ec8b6805c48dbf]
entity async_job--><rect fill="#438DD5" filter="url(#fcjrs6avsglws)" height="101.4844" style="stroke:#6A8198;stroke-width:1.5;" width="184" x="24" y="1491"/><text fill="#FFFFFF" font-family="sans-serif" font-size="14" font-weight="bold" lengthAdjust="spacing" textLength="76" x="78" y="1513.9951">Async job</text><text fill="#FFFFFF" font-family="sans-serif" font-size="14" font-style="italic" lengthAdjust="spacing" textLength="49" x="91.5" y="1530.292">python</text><text fill="#FFFFFF" font-family="sans-serif" font-size="14" lengthAdjust="spacing" textLength="0" x="118" y="1546.5889"/><text fill="#FFFFFF" font-family="sans-serif" font-size="14" lengthAdjust="spacing" textLength="164" x="34" y="1562.8857">puts json files into right</text><text fill="#FFFFFF" font-family="sans-serif" font-size="14" lengthAdjust="spacing" textLength="72" x="82" y="1579.1826">out queue</text><!--MD5=[aa495e3eb3961d298bd459a654c16499]
entity out_queue_a--><polygon fill="#B0CAE4" filter="url(#fcjrs6avsglws)" points="32.5,1653,78.5,1653,85.5,1674,165.5,1674,165.5,1708.5938,32.5,1708.5938,32.5,1653" style="stroke:#000000;stroke-width:1.5;"/><line style="stroke:#000000;stroke-width:1.5;" x1="32.5" x2="85.5" y1="1674" y2="1674"/><text fill="#000000" font-family="sans-serif" font-size="14" lengthAdjust="spacing" textLength="91" x="42.5" y="1693.9951">out_queue_a</text><!--MD5=[8021323f67cea1c74145feef327135cf]
entity out_queue_b--><polygon fill="#B0CAE4" filter="url(#fcjrs6avsglws)" points="208.5,1653,254.5,1653,261.5,1674,341.5,1674,341.5,1708.5938,208.5,1708.5938,208.5,1653" style="stroke:#000000;stroke-width:1.5;"/><line style="stroke:#000000;stroke-width:1.5;" x1="208.5" x2="261.5" y1="1674" y2="1674"/><text fill="#000000" font-family="sans-serif" font-size="14" lengthAdjust="spacing" textLength="91" x="218.5" y="1693.9951">out_queue_b</text><!--MD5=[02d40d299676c8ea51b3d02e8ed2258d]
entity out_a--><rect fill="#438DD5" filter="url(#fcjrs6avsglws)" height="36.2969" style="stroke:#6A8198;stroke-width:1.5;" width="59" x="67.5" y="1770"/><text fill="#FFFFFF" font-family="sans-serif" font-size="14" lengthAdjust="spacing" textLength="39" x="77.5" y="1792.9951">out_a</text><!--MD5=[6092215e3515c37d02fcdd5d840fc6cc]
entity out_b--><rect fill="#438DD5" filter="url(#fcjrs6avsglws)" height="36.2969" style="stroke:#6A8198;stroke-width:1.5;" width="59" x="249.5" y="1770"/><text fill="#FFFFFF" font-family="sans-serif" font-size="14" lengthAdjust="spacing" textLength="39" x="259.5" y="1792.9951">out_b</text><!--MD5=[893b01c522ea618c375ef8b789c1bb17]
entity sms--><rect fill="#438DD5" filter="url(#fcjrs6avsglws)" height="85.1875" style="stroke:#6A8198;stroke-width:1.5;" width="258" x="188" y="7"/><text fill="#FFFFFF" font-family="sans-serif" font-size="14" font-weight="bold" lengthAdjust="spacing" textLength="238" x="198" y="29.9951">School management software</text><text fill="#FFFFFF" font-family="sans-serif" font-size="14" font-style="italic" lengthAdjust="spacing" textLength="106" x="264" y="46.292">custom system</text><text fill="#FFFFFF" font-family="sans-serif" font-size="14" lengthAdjust="spacing" textLength="0" x="319" y="62.5889"/><text fill="#FFFFFF" font-family="sans-serif" font-size="14" lengthAdjust="spacing" textLength="207" x="213.5" y="78.8857">manages users on state level</text><!--MD5=[6b4bfa9e00b0b9cc08101d1a1ff13128]
entity import--><rect fill="#85BBF0" filter="url(#fcjrs6avsglws)" height="85.1875" rx="35" ry="35" style="stroke:#000000;stroke-width:1.5;" width="177" x="228.5" y="184"/><text fill="#000000" font-family="sans-serif" font-size="14" font-weight="bold" lengthAdjust="spacing" textLength="157" x="238.5" y="206.9951">UCS@School import</text><text fill="#000000" font-family="sans-serif" font-size="14" font-style="italic" lengthAdjust="spacing" textLength="49" x="292.5" y="223.292">python</text><text fill="#000000" font-family="sans-serif" font-size="14" lengthAdjust="spacing" textLength="0" x="319" y="239.5889"/><text fill="#000000" font-family="sans-serif" font-size="14" lengthAdjust="spacing" textLength="118" x="258" y="255.8857">Import user data</text><!--MD5=[1be1e8e9c1fa15d6e082466842209191]
entity ldap--><path d="M257,340 C257,330 317,330 317,330 C317,330 377,330 377,340 L377,430.4844 C377,440.4844 317,440.4844 317,440.4844 C317,440.4844 257,440.4844 257,430.4844 L257,340 " fill="#85BBF0" filter="url(#fcjrs6avsglws)" style="stroke:#000000;stroke-width:1.5;"/><path d="M257,340 C257,350 317,350 317,350 C317,350 377,350 377,340 " fill="none" style="stroke:#000000;stroke-width:1.5;"/><text fill="#000000" font-family="sans-serif" font-size="14" font-weight="bold" lengthAdjust="spacing" textLength="42" x="296" y="366.9951">LDAP</text><text fill="#000000" font-family="sans-serif" font-size="14" font-style="italic" lengthAdjust="spacing" textLength="67" x="283.5" y="383.292">openldap</text><text fill="#000000" font-family="sans-serif" font-size="14" lengthAdjust="spacing" textLength="0" x="319" y="399.5889"/><text fill="#000000" font-family="sans-serif" font-size="14" lengthAdjust="spacing" textLength="100" x="267" y="415.8857">holds the user</text><text fill="#000000" font-family="sans-serif" font-size="14" lengthAdjust="spacing" textLength="32" x="303" y="432.1826">data</text><!--MD5=[281da49c08c131cf737354df9e15b447]
entity id_connector_listener--><rect fill="#85BBF0" filter="url(#fcjrs6avsglws)" height="101.4844" rx="35" ry="35" style="stroke:#000000;stroke-width:1.5;" width="192" x="22" y="532"/><text fill="#000000" font-family="sans-serif" font-size="14" font-weight="bold" lengthAdjust="spacing" textLength="172" x="32" y="554.9951">ID-Connector listener</text><text fill="#000000" font-family="sans-serif" font-size="14" font-style="italic" lengthAdjust="spacing" textLength="149" x="43.5" y="571.292">python listener script</text><text fill="#000000" font-family="sans-serif" font-size="14" lengthAdjust="spacing" textLength="0" x="120" y="587.5889"/><text fill="#000000" font-family="sans-serif" font-size="14" lengthAdjust="spacing" textLength="148" x="44" y="603.8857">Handles write events</text><text fill="#000000" font-family="sans-serif" font-size="14" lengthAdjust="spacing" textLength="167" x="34.5" y="620.1826">to ldap for id-connector</text><!--MD5=[99b62bfbb382e5518d8183612fd94eeb]
entity cronjob--><rect fill="#438DD5" filter="url(#fcjrs6avsglws)" height="101.4844" style="stroke:#6A8198;stroke-width:1.5;" width="214" x="249" y="532"/><text fill="#FFFFFF" font-family="sans-serif" font-size="14" font-weight="bold" lengthAdjust="spacing" textLength="62" x="325" y="554.9951">Cronjob</text><text fill="#FFFFFF" font-family="sans-serif" font-size="14" font-style="italic" lengthAdjust="spacing" textLength="49" x="331.5" y="571.292">python</text><text fill="#FFFFFF" font-family="sans-serif" font-size="14" lengthAdjust="spacing" textLength="0" x="358" y="587.5889"/><text fill="#FFFFFF" font-family="sans-serif" font-size="14" lengthAdjust="spacing" textLength="151" x="280.5" y="603.8857">Trigger user changes</text><text fill="#FFFFFF" font-family="sans-serif" font-size="14" lengthAdjust="spacing" textLength="194" x="259" y="620.1826">according to validity period</text><!--MD5=[751701bbc6877bdbbaa682a37c49d882]
entity small_in_queue--><polygon fill="#B0CAE4" filter="url(#fcjrs6avsglws)" points="190,725,236,725,243,746,342,746,342,845.7813,190,845.7813,190,725" style="stroke:#000000;stroke-width:1.5;"/><line style="stroke:#000000;stroke-width:1.5;" x1="190" x2="243" y1="746" y2="746"/><text fill="#000000" font-family="sans-serif" font-size="14" font-weight="bold" lengthAdjust="spacing" textLength="120" x="200" y="765.9951">Small in-queue</text><text fill="#000000" font-family="sans-serif" font-size="14" font-style="italic" lengthAdjust="spacing" textLength="45" x="237.5" y="782.292">Folder</text><text fill="#000000" font-family="sans-serif" font-size="14" lengthAdjust="spacing" textLength="0" x="262" y="798.5889"/><text fill="#000000" font-family="sans-serif" font-size="14" lengthAdjust="spacing" textLength="95" x="212.5" y="814.8857">json files with</text><text fill="#000000" font-family="sans-serif" font-size="14" lengthAdjust="spacing" textLength="79" x="220.5" y="831.1826">entryUUIDs</text><!--MD5=[995a46705506099b563611b182911a66]
entity daemon--><rect fill="#438DD5" filter="url(#fcjrs6avsglws)" height="117.7813" style="stroke:#6A8198;stroke-width:1.5;" width="212" x="160" y="938"/><text fill="#FFFFFF" font-family="sans-serif" font-size="14" font-weight="bold" lengthAdjust="spacing" textLength="66" x="233" y="960.9951">Daemon</text><text fill="#FFFFFF" font-family="sans-serif" font-size="14" font-style="italic" lengthAdjust="spacing" textLength="49" x="241.5" y="977.292">python</text><text fill="#FFFFFF" font-family="sans-serif" font-size="14" lengthAdjust="spacing" textLength="0" x="268" y="993.5889"/><text fill="#FFFFFF" font-family="sans-serif" font-size="14" lengthAdjust="spacing" textLength="156" x="188" y="1009.8857">Reads uuid and writes</text><text fill="#FFFFFF" font-family="sans-serif" font-size="14" lengthAdjust="spacing" textLength="192" x="170" y="1026.1826">json representation of udm</text><text fill="#FFFFFF" font-family="sans-serif" font-size="14" lengthAdjust="spacing" textLength="51" x="240.5" y="1042.4795">objects</text><!--MD5=[7a87314abcdb133a5add9c6f723cc112]
entity udm_rest_api--><rect fill="#85BBF0" filter="url(#fcjrs6avsglws)" height="101.4844" rx="35" ry="35" style="stroke:#000000;stroke-width:1.5;" width="173" x="424.5" y="1316"/><text fill="#000000" font-family="sans-serif" font-size="14" font-weight="bold" lengthAdjust="spacing" textLength="114" x="454" y="1338.9951">UDM REST API</text><text fill="#000000" font-family="sans-serif" font-size="14" font-style="italic" lengthAdjust="spacing" textLength="56" x="483" y="1355.292">tornado</text><text fill="#000000" font-family="sans-serif" font-size="14" lengthAdjust="spacing" textLength="0" x="513" y="1371.5889"/><text fill="#000000" font-family="sans-serif" font-size="14" lengthAdjust="spacing" textLength="148" x="437" y="1387.8857">enriches ldap access</text><text fill="#000000" font-family="sans-serif" font-size="14" lengthAdjust="spacing" textLength="153" x="434.5" y="1404.1826">with ucs specific logic</text><!--MD5=[2a65fec48215b5e83ef9c877824fc6e9]
entity school_provider_a--><rect fill="#85BBF0" filter="url(#fcjrs6avsglws)" height="36.2969" rx="35" ry="35" style="stroke:#000000;stroke-width:1.5;" width="149" x="22.5" y="1869"/><text fill="#000000" font-family="sans-serif" font-size="14" lengthAdjust="spacing" textLength="129" x="32.5" y="1891.9951">school_provider_a</text><!--MD5=[27ac283c215a21cdee0aa5a1b2a377e2]
entity school_provider_b--><rect fill="#85BBF0" filter="url(#fcjrs6avsglws)" height="36.2969" rx="35" ry="35" style="stroke:#000000;stroke-width:1.5;" width="149" x="206.5" y="1869"/><text fill="#000000" font-family="sans-serif" font-size="14" lengthAdjust="spacing" textLength="129" x="216.5" y="1891.9951">school_provider_b</text><!--MD5=[66d1d04299b4c4c658fd872e3c9f0a8d]
link sms to import--><path d="M317,92.42 C317,118.39 317,151.8 317,178.65 " fill="none" id="sms-to-import" style="stroke:#666666;stroke-width:1.0;"/><polygon fill="#666666" points="317,183.93,321,174.93,317,178.93,313,174.93,317,183.93" style="stroke:#666666;stroke-width:1.0;"/><text fill="#666666" font-family="sans-serif" font-size="13" font-weight="bold" lengthAdjust="spacing" textLength="142" x="318" y="135.0669">export of user data</text><text fill="#666666" font-family="sans-serif" font-size="13" font-style="italic" lengthAdjust="spacing" textLength="45" x="366.5" y="150.1997">python</text><!--MD5=[7db061270a73eefed2a13f0e34a7b051]
link import to ldap--><path d="M317,269.03 C317,286.08 317,306.14 317,324.69 " fill="none" id="import-to-ldap" style="stroke:#666666;stroke-width:1.0;"/><polygon fill="#666666" points="317,329.88,321,320.88,317,324.88,313,320.88,317,329.88" style="stroke:#666666;stroke-width:1.0;"/><!--MD5=[433da8e03921192abfc4311c80a612f2]
link ldap to id_connector_listener--><path d="M261.83,440.2 C233.87,467.67 200.04,500.9 172.21,528.24 " fill="none" id="ldap-to-id_connector_listener" style="stroke:#666666;stroke-width:1.0;"/><polygon fill="#666666" points="168.5,531.89,177.7206,528.4287,172.0639,528.3831,172.1095,522.7264,168.5,531.89" style="stroke:#666666;stroke-width:1.0;"/><text fill="#666666" font-family="sans-serif" font-size="13" font-weight="bold" lengthAdjust="spacing" textLength="158" x="231" y="483.0669">calls listener on write</text><text fill="#666666" font-family="sans-serif" font-size="13" font-style="italic" lengthAdjust="spacing" textLength="45" x="287.5" y="498.1997">python</text><!--MD5=[9bf82f785f1831ad9492847e966565e2]
link id_connector_listener to small_in_queue--><path d="M136.33,633.22 C144.96,653.37 156.38,676.25 170,695 C176.45,703.87 183.86,712.57 191.65,720.85 " fill="none" id="id_connector_listener-to-small_in_queue" style="stroke:#666666;stroke-width:1.0;"/><polygon fill="#666666" points="195.51,724.88,192.1796,715.6113,192.0539,721.2668,186.3984,721.1411,195.51,724.88" style="stroke:#666666;stroke-width:1.0;"/><text fill="#666666" font-family="sans-serif" font-size="13" font-weight="bold" lengthAdjust="spacing" textLength="128" x="171" y="676.0669">Write entryUUIDs</text><text fill="#666666" font-family="sans-serif" font-size="13" font-style="italic" lengthAdjust="spacing" textLength="27" x="221.5" y="691.1997">json</text><!--MD5=[1487429b1484b1232620574917a33dce]
link cronjob to small_in_queue--><path d="M333.75,633.19 C322.04,659.34 307.54,691.73 294.96,719.82 " fill="none" id="cronjob-to-small_in_queue" style="stroke:#666666;stroke-width:1.0;"/><polygon fill="#666666" points="292.8,724.65,300.1315,718.0736,294.8453,720.0875,292.8315,714.8012,292.8,724.65" style="stroke:#666666;stroke-width:1.0;"/><text fill="#666666" font-family="sans-serif" font-size="13" font-weight="bold" lengthAdjust="spacing" textLength="128" x="320" y="676.0669">Write entryUUIDs</text><text fill="#666666" font-family="sans-serif" font-size="13" font-style="italic" lengthAdjust="spacing" textLength="27" x="370.5" y="691.1997">json</text><!--MD5=[01c7d6a3703200fe77faeac5c4aff21d]
reverse link small_in_queue to daemon--><path d="M266,851.37 C266,879.05 266,911.09 266,937.97 " fill="none" id="small_in_queue-backto-daemon" style="stroke:#666666;stroke-width:1.0;"/><polygon fill="#666666" points="266,846.25,262,855.25,266,851.25,270,855.25,266,846.25" style="stroke:#666666;stroke-width:1.0;"/><text fill="#666666" font-family="sans-serif" font-size="13" font-weight="bold" lengthAdjust="spacing" textLength="127" x="267" y="889.0669">Read entryUUIDS</text><text fill="#666666" font-family="sans-serif" font-size="13" font-style="italic" lengthAdjust="spacing" textLength="45" x="308" y="904.1997">python</text><!--MD5=[a9f707de9769965671967798d24e053b]
link daemon to large_in_queue--><path d="M220.38,1056.08 C200.99,1080.78 178.49,1109.43 159.35,1133.8 " fill="none" id="daemon-to-large_in_queue" style="stroke:#666666;stroke-width:1.0;"/><polygon fill="#666666" points="156.06,1137.99,164.7671,1133.3872,159.1504,1134.0594,158.4782,1128.4426,156.06,1137.99" style="stroke:#666666;stroke-width:1.0;"/><!--MD5=[3fc2caed5dcb5103d729cf6b986fe6b6]
link large_in_queue to uuid_record_cache--><path d="M116,1247.8 C116,1263.7 116,1281.16 116,1297.64 " fill="none" id="large_in_queue-uuid_record_cache" style="stroke:#666666;stroke-width:1.0;"/><polygon fill="#666666" points="116,1302.72,120,1293.72,116,1297.72,112,1293.72,116,1302.72" style="stroke:#666666;stroke-width:1.0;"/><polygon fill="#666666" points="116,1242.41,112,1251.41,116,1247.41,120,1251.41,116,1242.41" style="stroke:#666666;stroke-width:1.0;"/><!--MD5=[f32909cbe6a4cb27f7cb5d6b45b00eb9]
link uuid_record_cache to async_job--><path d="M116,1430.45 C116,1448.48 116,1468 116,1485.52 " fill="none" id="uuid_record_cache-to-async_job" style="stroke:#666666;stroke-width:1.0;"/><polygon fill="#666666" points="116,1490.88,120,1481.88,116,1485.88,112,1481.88,116,1490.88" style="stroke:#666666;stroke-width:1.0;"/><!--MD5=[9027d155f7ac5bd005d9eaddd3877f8b]
link async_job to out_queue_a--><path d="M109.86,1592.14 C107.57,1610.68 105.03,1631.24 102.98,1647.81 " fill="none" id="async_job-to-out_queue_a" style="stroke:#666666;stroke-width:1.0;"/><polygon fill="#666666" points="102.36,1652.81,107.4364,1644.3702,102.9749,1647.848,99.4972,1643.3864,102.36,1652.81" style="stroke:#666666;stroke-width:1.0;"/><!--MD5=[e17d3b570877514a29ee42294b9ce519]
link out_queue_a to out_a--><path d="M98.48,1709.04 C98.16,1726.29 97.74,1748.38 97.43,1764.64 " fill="none" id="out_queue_a-to-out_a" style="stroke:#666666;stroke-width:1.0;"/><polygon fill="#666666" points="97.33,1769.91,101.5092,1760.9918,97.43,1764.911,93.5108,1760.8318,97.33,1769.91" style="stroke:#666666;stroke-width:1.0;"/><!--MD5=[f572066c290b686b345433416987adfc]
link out_a to school_provider_a--><path d="M97,1806.34 C97,1822.34 97,1846.19 97,1863.62 " fill="none" id="out_a-to-school_provider_a" style="stroke:#666666;stroke-width:1.0;"/><polygon fill="#666666" points="97,1868.81,101,1859.81,97,1863.81,93,1859.81,97,1868.81" style="stroke:#666666;stroke-width:1.0;"/><!--MD5=[0760febd1bba0fc81a79c02d7c817e6e]
link async_job to out_queue_b--><path d="M173.4,1592.14 C195.59,1611.32 220.26,1632.66 239.74,1649.51 " fill="none" id="async_job-to-out_queue_b" style="stroke:#666666;stroke-width:1.0;"/><polygon fill="#666666" points="243.56,1652.81,239.3657,1643.8989,239.7768,1649.5408,234.135,1649.9519,243.56,1652.81" style="stroke:#666666;stroke-width:1.0;"/><!--MD5=[6049a3ef58aa70c8891f7f818e65d62f]
link out_queue_b to out_b--><path d="M276.03,1709.04 C276.69,1726.29 277.53,1748.38 278.15,1764.64 " fill="none" id="out_queue_b-to-out_b" style="stroke:#666666;stroke-width:1.0;"/><polygon fill="#666666" points="278.35,1769.91,282.0132,1760.7677,278.1644,1764.9134,274.0187,1761.0647,278.35,1769.91" style="stroke:#666666;stroke-width:1.0;"/><!--MD5=[7038b640b3daffc987451c364fc69fab]
link out_b to school_provider_b--><path d="M279.36,1806.34 C279.69,1822.34 280.18,1846.19 280.54,1863.62 " fill="none" id="out_b-to-school_provider_b" style="stroke:#666666;stroke-width:1.0;"/><polygon fill="#666666" points="280.65,1868.81,284.4433,1859.7209,280.5357,1863.8113,276.4454,1859.9038,280.65,1868.81" style="stroke:#666666;stroke-width:1.0;"/><!--MD5=[3f3c7a9f9d09b33dda80c650d54e7aed]
link daemon to udm_rest_api--><path d="M368.03,1056.21 C382.76,1067.71 396.72,1080.7 408,1095 C435.12,1129.39 473.06,1242.37 494.52,1310.96 " fill="none" id="daemon-to-udm_rest_api" style="stroke:#666666;stroke-width:1.0;"/><polygon fill="#666666" points="496.03,1315.82,497.1735,1306.0377,494.5435,1311.0461,489.5352,1308.4161,496.03,1315.82" style="stroke:#666666;stroke-width:1.0;"/><!--MD5=[3b2f4579f1f94ec38f2d77a181df14fb]
link udm_rest_api to ldap--><path d="M513.18,1315.87 C514.53,1280.95 516,1233.13 516,1191 C516,581.5 516,581.5 516,581.5 C516,504.8 439.84,448.18 381.75,416.15 " fill="none" id="udm_rest_api-to-ldap" style="stroke:#666666;stroke-width:1.0;"/><polygon fill="#666666" points="377.25,413.69,383.2446,421.5044,381.6422,416.0792,387.0674,414.4769,377.25,413.69" style="stroke:#666666;stroke-width:1.0;"/><text fill="#666666" font-family="sans-serif" font-size="13" font-weight="bold" lengthAdjust="spacing" textLength="154" x="517" y="889.0669">Read/write user data</text><text fill="#666666" font-family="sans-serif" font-size="13" font-style="italic" lengthAdjust="spacing" textLength="78" x="555" y="904.1997">python-ldap</text><!--MD5=[02463541f0c74314b7275bb37e36284d]
link kelvin_rest_api to udm_rest_api--><path d="M372.79,1240.54 C397.54,1262.92 426.83,1289.4 452.06,1312.21 " fill="none" id="kelvin_rest_api-to-udm_rest_api" style="stroke:#666666;stroke-width:1.0;"/><polygon fill="#666666" points="456.07,1315.84,452.0926,1306.83,452.3671,1312.4802,446.7169,1312.7547,456.07,1315.84" style="stroke:#666666;stroke-width:1.0;"/><!--MD5=[5d6d422d37acb296cafe214db5085350]
@startuml


skinparam defaultTextAlignment center

skinparam AgentBackgroundColor #438dd5
skinparam AgentFontColor white
skinparam AgentBorderColor #6a8198

skinparam StorageBackgroundColor #85bbf0
skinparam DatabaseBackgroundColor #85bbf0
skinparam FolderBackgroundColor #b0cae4

skinparam ArrowColor #666666
skinparam ArrowFontColor #666666

skinparam FrameBackgroundColor #ebedf1


' <b>\n<i>\n\n

agent "<b>School management software\n<i>custom system\n\nmanages users on state level" as sms
storage "<b>UCS@School import\n<i>python\n\nImport user data" as import
database "<b>LDAP\n<i>openldap\n\nholds the user\n data" as ldap
storage "<b>ID-Connector listener\n<i>python listener script\n\nHandles write events\nto ldap for id-connector" as id_connector_listener
agent "<b>Cronjob\n<i>python\n\nTrigger user changes\naccording to validity period" as cronjob
folder "<b>Small in-queue\n<i>Folder\n\njson files with\nentryUUIDs" as small_in_queue
agent "<b>Daemon\n<i>python\n\nReads uuid and writes\njson representation of udm\nobjects" as daemon
storage "<b>UDM REST API\n<i>tornado\n\nenriches ldap access\nwith ucs specific logic" as udm_rest_api



frame ID-Connector {


agent "<b>Kelvin REST API\n<i>fastapi\n\nstops events from\nreaching ldap" as kelvin_rest_api

folder "<b>Large in-queue\n<i>Folder\n\njson files with full data" as large_in_queue


database "<b>UUID record cache\n<i>sqlite\n\nstores uuid->\n(record_uid,school, ...) \nmapping" as uuid_record_cache


agent "<b>Async job\n<i>python\n\nputs json files into right\n out queue" as async_job
folder "out_queue_a" as out_queue_a
folder "out_queue_b" as out_queue_b
agent "out_a" as out_a
agent "out_b" as out_b

}
storage "school_provider_a" as school_provider_a
storage "school_provider_b" as school_provider_b

sms - -> import : <b>export of user data\n<i>python
import - -> ldap
ldap - -> id_connector_listener : <b>calls listener on write\n<i>python
id_connector_listener - -> small_in_queue: <b>Write entryUUIDs\n<i>json
cronjob - -> small_in_queue: <b>Write entryUUIDs\n<i>json
small_in_queue <- - daemon: <b>Read entryUUIDS\n<i>python
'daemon-up->small_in_queue
daemon - -> large_in_queue
large_in_queue <- ->uuid_record_cache
uuid_record_cache - -> async_job
async_job - -> out_queue_a
out_queue_a - -> out_a
out_a - -> school_provider_a
async_job - -> out_queue_b
out_queue_b - -> out_b
out_b - -> school_provider_b
daemon - -> udm_rest_api
udm_rest_api - -> ldap: <b>Read/write user data\n<i>python-ldap
kelvin_rest_api - -> udm_rest_api


@enduml

@startuml


skinparam defaultTextAlignment center

skinparam AgentBackgroundColor #438dd5
skinparam AgentFontColor white
skinparam AgentBorderColor #6a8198

skinparam StorageBackgroundColor #85bbf0
skinparam DatabaseBackgroundColor #85bbf0
skinparam FolderBackgroundColor #b0cae4

skinparam ArrowColor #666666
skinparam ArrowFontColor #666666

skinparam FrameBackgroundColor #ebedf1



agent "<b>School management software\n<i>custom system\n\nmanages users on state level" as sms
storage "<b>UCS@School import\n<i>python\n\nImport user data" as import
database "<b>LDAP\n<i>openldap\n\nholds the user\n data" as ldap
storage "<b>ID-Connector listener\n<i>python listener script\n\nHandles write events\nto ldap for id-connector" as id_connector_listener
agent "<b>Cronjob\n<i>python\n\nTrigger user changes\naccording to validity period" as cronjob
folder "<b>Small in-queue\n<i>Folder\n\njson files with\nentryUUIDs" as small_in_queue
agent "<b>Daemon\n<i>python\n\nReads uuid and writes\njson representation of udm\nobjects" as daemon
storage "<b>UDM REST API\n<i>tornado\n\nenriches ldap access\nwith ucs specific logic" as udm_rest_api



frame ID-Connector {


agent "<b>Kelvin REST API\n<i>fastapi\n\nstops events from\nreaching ldap" as kelvin_rest_api

folder "<b>Large in-queue\n<i>Folder\n\njson files with full data" as large_in_queue


database "<b>UUID record cache\n<i>sqlite\n\nstores uuid->\n(record_uid,school, ...) \nmapping" as uuid_record_cache


agent "<b>Async job\n<i>python\n\nputs json files into right\n out queue" as async_job
folder "out_queue_a" as out_queue_a
folder "out_queue_b" as out_queue_b
agent "out_a" as out_a
agent "out_b" as out_b

}
storage "school_provider_a" as school_provider_a
storage "school_provider_b" as school_provider_b

sms - -> import : <b>export of user data\n<i>python
import - -> ldap
ldap - -> id_connector_listener : <b>calls listener on write\n<i>python
id_connector_listener - -> small_in_queue: <b>Write entryUUIDs\n<i>json
cronjob - -> small_in_queue: <b>Write entryUUIDs\n<i>json
small_in_queue <- - daemon: <b>Read entryUUIDS\n<i>python
daemon - -> large_in_queue
large_in_queue <- ->uuid_record_cache
uuid_record_cache - -> async_job
async_job - -> out_queue_a
out_queue_a - -> out_a
out_a - -> school_provider_a
async_job - -> out_queue_b
out_queue_b - -> out_b
out_b - -> school_provider_b
daemon - -> udm_rest_api
udm_rest_api - -> ldap: <b>Read/write user data\n<i>python-ldap
kelvin_rest_api - -> udm_rest_api


@enduml

PlantUML version 1.2021.11(Sat Oct 02 15:26:11 CEST 2021)
(GPL source distribution)
Java Runtime: OpenJDK Runtime Environment
JVM: OpenJDK 64-Bit Server VM
Default Encoding: UTF-8
Language: en
Country: US
--></g></svg>
