<?xml version="1.0" encoding="UTF-8" standalone="no"?><svg xmlns="http://www.w3.org/2000/svg" xmlns:xlink="http://www.w3.org/1999/xlink" contentScriptType="application/ecmascript" contentStyleType="text/css" height="2082px" preserveAspectRatio="none" style="width:1180px;height:2082px;background:#FFFFFF;" version="1.1" viewBox="0 0 1180 2082" width="1180px" zoomAndPan="magnify"><defs><filter height="300%" id="fg2ye98dvawj6" width="300%" x="-1" y="-1"><feGaussianBlur result="blurOut" stdDeviation="2.0"/><feColorMatrix in="blurOut" result="blurOut2" type="matrix" values="0 0 0 0 0 0 0 0 0 0 0 0 0 0 0 0 0 0 .4 0"/><feOffset dx="4.0" dy="4.0" in="blurOut2" result="blurOut3"/><feBlend in="SourceGraphic" in2="blurOut3" mode="normal"/></filter></defs><g><!--MD5=[8e9ea18b1f07097689a5765e87d47f37]
cluster primary--><rect fill="#D8D8D6" filter="url(#fg2ye98dvawj6)" height="629" style="stroke:#000000;stroke-width:1.5;" width="702" x="7" y="359"/><path d="M104,359 L104,384.5938 L94,394.5938 L7,394.5938 " fill="none" style="stroke:#000000;stroke-width:1.5;"/><text fill="#000000" font-family="sans-serif" font-size="14" font-weight="bold" lengthAdjust="spacing" textLength="87" x="10" y="372.9951">DC Primary</text><text fill="#000000" font-family="sans-serif" font-size="14" font-style="italic" font-weight="bold" lengthAdjust="spacing" textLength="26" x="40.5" y="389.292">ucs</text><!--MD5=[3bce4743bc9b5320e352a2c28149f890]
cluster id_connector--><rect fill="#D8D8D6" filter="url(#fg2ye98dvawj6)" height="632" style="stroke:#000000;stroke-width:1.5;" width="715" x="407" y="1262"/><path d="M520,1262 L520,1287.5938 L510,1297.5938 L407,1297.5938 " fill="none" style="stroke:#000000;stroke-width:1.5;"/><text fill="#000000" font-family="sans-serif" font-size="14" font-weight="bold" lengthAdjust="spacing" textLength="103" x="410" y="1275.9951">ID Connector</text><text fill="#000000" font-family="sans-serif" font-size="14" font-weight="bold" lengthAdjust="spacing" textLength="56" x="433.5" y="1292.292">Docker</text><!--MD5=[1be1e8e9c1fa15d6e082466842209191]
entity ldap--><path d="M466,455 C466,445 532,445 532,445 C532,445 598,445 598,455 L598,529.1875 C598,539.1875 532,539.1875 532,539.1875 C532,539.1875 466,539.1875 466,529.1875 L466,455 " fill="#00ACB6" filter="url(#fg2ye98dvawj6)" style="stroke:#000000;stroke-width:1.5;"/><path d="M466,455 C466,465 532,465 532,465 C532,465 598,465 598,455 " fill="none" style="stroke:#000000;stroke-width:1.5;"/><text fill="#000000" font-family="sans-serif" font-size="14" font-weight="bold" lengthAdjust="spacing" textLength="41" x="511.5" y="481.9951">LDAP</text><text fill="#000000" font-family="sans-serif" font-size="14" font-style="italic" lengthAdjust="spacing" textLength="65" x="499.5" y="498.292">openldap</text><text fill="#000000" font-family="sans-serif" font-size="14" lengthAdjust="spacing" textLength="0" x="534" y="514.5889"/><text fill="#000000" font-family="sans-serif" font-size="14" lengthAdjust="spacing" textLength="112" x="476" y="530.8857">User/group data</text><!--MD5=[c4def0b39757ced8a2cbaa90cdcbeb42]
entity listener--><rect fill="#7AB51D" filter="url(#fg2ye98dvawj6)" height="101.4844" rx="35" ry="35" style="stroke:#000000;stroke-width:1.5;" width="204" x="220" y="646"/><text fill="#FFFFFF" font-family="sans-serif" font-size="14" font-weight="bold" lengthAdjust="spacing" textLength="168" x="238" y="668.9951">ID Connector listener</text><text fill="#FFFFFF" font-family="sans-serif" font-size="14" font-style="italic" lengthAdjust="spacing" textLength="144" x="250" y="685.292">python listener script</text><text fill="#FFFFFF" font-family="sans-serif" font-size="14" lengthAdjust="spacing" textLength="0" x="324" y="701.5889"/><text fill="#FFFFFF" font-family="sans-serif" font-size="14" lengthAdjust="spacing" textLength="184" x="230" y="717.8857">Handles LDAP write events</text><text fill="#FFFFFF" font-family="sans-serif" font-size="14" lengthAdjust="spacing" textLength="113" x="265.5" y="734.1826">for ID Connector</text><!--MD5=[5ee9985dad366ed98710f937d17dcbd6]
entity converter--><rect fill="#F6AA42" filter="url(#fg2ye98dvawj6)" height="117.7813" style="stroke:#6A8198;stroke-width:1.5;" width="209" x="483.5" y="854"/><text fill="#000000" font-family="sans-serif" font-size="14" font-weight="bold" lengthAdjust="spacing" textLength="80" x="548" y="876.9951">Converter</text><text fill="#000000" font-family="sans-serif" font-size="14" font-style="italic" lengthAdjust="spacing" textLength="156" x="510" y="893.292">app daemon in python</text><text fill="#000000" font-family="sans-serif" font-size="14" lengthAdjust="spacing" textLength="0" x="590" y="909.5889"/><text fill="#000000" font-family="sans-serif" font-size="14" lengthAdjust="spacing" textLength="153" x="511.5" y="925.8857">Reads uuid and writes</text><text fill="#000000" font-family="sans-serif" font-size="14" lengthAdjust="spacing" textLength="189" x="493.5" y="942.1826">json representation of UDM</text><text fill="#000000" font-family="sans-serif" font-size="14" lengthAdjust="spacing" textLength="51" x="562.5" y="958.4795">objects</text><!--MD5=[f3a3e5a00b11f193b7dfc5c6e4fee227]
entity small_queue--><polygon fill="#00ACB6" filter="url(#fg2ye98dvawj6)" points="180,861.5,226,861.5,233,882.5,326,882.5,326,964.6875,180,964.6875,180,861.5" style="stroke:#000000;stroke-width:1.5;"/><line style="stroke:#000000;stroke-width:1.5;" x1="180" x2="233" y1="882.5" y2="882.5"/><text fill="#000000" font-family="sans-serif" font-size="14" font-weight="bold" lengthAdjust="spacing" textLength="116" x="190" y="902.4951">Small in-queue</text><text fill="#000000" font-family="sans-serif" font-size="14" font-style="italic" lengthAdjust="spacing" textLength="65" x="215.5" y="918.792">JSON files</text><text fill="#000000" font-family="sans-serif" font-size="14" lengthAdjust="spacing" textLength="0" x="250" y="935.0889"/><text fill="#000000" font-family="sans-serif" font-size="14" lengthAdjust="spacing" textLength="106" x="195" y="951.3857">just entryUUIDs</text><path d="M23.5,885.5 L23.5,940.8984 A0,0 0 0 0 23.5,940.8984 L144.5,940.8984 A0,0 0 0 0 144.5,940.8984 L144.5,917 L179.84,913 L144.5,909 L144.5,895.5 L134.5,885.5 L23.5,885.5 A0,0 0 0 0 23.5,885.5 " fill="#FFFFFF" filter="url(#fg2ye98dvawj6)" style="stroke:#A9A9A9;stroke-width:1.0;"/><path d="M134.5,885.5 L134.5,895.5 L144.5,895.5 L134.5,885.5 " fill="#FFFFFF" style="stroke:#A9A9A9;stroke-width:1.0;"/><text fill="#808080" font-family="sans-serif" font-size="13" lengthAdjust="spacing" textLength="88" x="35.5" y="902.5669">You can inject</text><text fill="#808080" font-family="sans-serif" font-size="13" lengthAdjust="spacing" textLength="100" x="29.5" y="917.6997">data here using</text><text fill="#808080" font-family="sans-serif" font-size="13" font-style="italic" lengthAdjust="spacing" textLength="92" x="33.5" y="932.8325">schedule_user</text><!--MD5=[995a46705506099b563611b182911a66]
entity daemon--><rect fill="#F6AA42" filter="url(#fg2ye98dvawj6)" height="101.4844" style="stroke:#6A8198;stroke-width:1.5;" width="190" x="578" y="1361"/><text fill="#000000" font-family="sans-serif" font-size="14" font-weight="bold" lengthAdjust="spacing" textLength="69" x="638.5" y="1383.9951">In queue</text><text fill="#000000" font-family="sans-serif" font-size="14" font-style="italic" lengthAdjust="spacing" textLength="107" x="619.5" y="1400.292">python process</text><text fill="#000000" font-family="sans-serif" font-size="14" lengthAdjust="spacing" textLength="0" x="675" y="1416.5889"/><text fill="#000000" font-family="sans-serif" font-size="14" lengthAdjust="spacing" textLength="78" x="634" y="1432.8857">Reads uuid</text><text fill="#000000" font-family="sans-serif" font-size="14" lengthAdjust="spacing" textLength="170" x="588" y="1449.1826">Writes udm objects JSON</text><!--MD5=[7a603111606425ec6ae263a7f93634a1]
entity sqlite--><path d="M929.5,1358 C929.5,1348 1018,1348 1018,1348 C1018,1348 1106.5,1348 1106.5,1358 L1106.5,1464.7813 C1106.5,1474.7813 1018,1474.7813 1018,1474.7813 C1018,1474.7813 929.5,1474.7813 929.5,1464.7813 L929.5,1358 " fill="#00ACB6" filter="url(#fg2ye98dvawj6)" style="stroke:#000000;stroke-width:1.5;"/><path d="M929.5,1358 C929.5,1368 1018,1368 1018,1368 C1018,1368 1106.5,1368 1106.5,1358 " fill="none" style="stroke:#000000;stroke-width:1.5;"/><text fill="#000000" font-family="sans-serif" font-size="14" font-weight="bold" lengthAdjust="spacing" textLength="147" x="944.5" y="1384.9951">UUID record cache</text><text fill="#000000" font-family="sans-serif" font-size="14" font-style="italic" lengthAdjust="spacing" textLength="36" x="1000" y="1401.292">sqlite</text><text fill="#000000" font-family="sans-serif" font-size="14" lengthAdjust="spacing" textLength="0" x="1020" y="1417.5889"/><text fill="#000000" font-family="sans-serif" font-size="14" lengthAdjust="spacing" textLength="95" x="970.5" y="1433.8857">stores uuid-&gt;</text><text fill="#000000" font-family="sans-serif" font-size="14" lengthAdjust="spacing" textLength="153" x="939.5" y="1450.1826">(record_uid,school, ...)</text><text fill="#000000" font-family="sans-serif" font-size="14" lengthAdjust="spacing" textLength="60" x="988" y="1466.4795">mapping</text><!--MD5=[aa495e3eb3961d298bd459a654c16499]
entity out_queue_a--><polygon fill="#00ACB6" filter="url(#fg2ye98dvawj6)" points="667.5,1567,713.5,1567,720.5,1588,808.5,1588,808.5,1670.1875,667.5,1670.1875,667.5,1567" style="stroke:#000000;stroke-width:1.5;"/><line style="stroke:#000000;stroke-width:1.5;" x1="667.5" x2="720.5" y1="1588" y2="1588"/><text fill="#000000" font-family="sans-serif" font-size="14" font-weight="bold" lengthAdjust="spacing" textLength="99" x="683.5" y="1607.9951">Out queue A</text><text fill="#000000" font-family="sans-serif" font-size="14" font-style="italic" lengthAdjust="spacing" textLength="35" x="715.5" y="1624.292">JSON</text><text fill="#000000" font-family="sans-serif" font-size="14" lengthAdjust="spacing" textLength="0" x="735" y="1640.5889"/><text fill="#000000" font-family="sans-serif" font-size="14" lengthAdjust="spacing" textLength="111" x="677.5" y="1656.8857">user/group data</text><!--MD5=[8021323f67cea1c74145feef327135cf]
entity out_queue_b--><polygon fill="#00ACB6" filter="url(#fg2ye98dvawj6)" points="845.5,1567,891.5,1567,898.5,1588,986.5,1588,986.5,1670.1875,845.5,1670.1875,845.5,1567" style="stroke:#000000;stroke-width:1.5;"/><line style="stroke:#000000;stroke-width:1.5;" x1="845.5" x2="898.5" y1="1588" y2="1588"/><text fill="#000000" font-family="sans-serif" font-size="14" font-weight="bold" lengthAdjust="spacing" textLength="98" x="862" y="1607.9951">Out queue B</text><text fill="#000000" font-family="sans-serif" font-size="14" font-style="italic" lengthAdjust="spacing" textLength="35" x="893.5" y="1624.292">JSON</text><text fill="#000000" font-family="sans-serif" font-size="14" lengthAdjust="spacing" textLength="0" x="913" y="1640.5889"/><text fill="#000000" font-family="sans-serif" font-size="14" lengthAdjust="spacing" textLength="111" x="855.5" y="1656.8857">user/group data</text><!--MD5=[6092215e3515c37d02fcdd5d840fc6cc]
entity out_b--><rect fill="#F6AA42" filter="url(#fg2ye98dvawj6)" height="85.1875" style="stroke:#6A8198;stroke-width:1.5;" width="165" x="940.5" y="1785"/><text fill="#000000" font-family="sans-serif" font-size="14" font-weight="bold" lengthAdjust="spacing" textLength="43" x="1001.5" y="1807.9951">Out B</text><text fill="#000000" font-family="sans-serif" font-size="14" font-style="italic" lengthAdjust="spacing" textLength="145" x="950.5" y="1824.292">Kelvin plugin process</text><text fill="#000000" font-family="sans-serif" font-size="14" lengthAdjust="spacing" textLength="0" x="1025" y="1840.5889"/><text fill="#000000" font-family="sans-serif" font-size="14" lengthAdjust="spacing" textLength="130" x="958" y="1856.8857">sends to Kelvin API</text><!--MD5=[02d40d299676c8ea51b3d02e8ed2258d]
entity out_a--><rect fill="#F6AA42" filter="url(#fg2ye98dvawj6)" height="85.1875" style="stroke:#6A8198;stroke-width:1.5;" width="165" x="740.5" y="1785"/><text fill="#000000" font-family="sans-serif" font-size="14" font-weight="bold" lengthAdjust="spacing" textLength="44" x="801" y="1807.9951">Out A</text><text fill="#000000" font-family="sans-serif" font-size="14" font-style="italic" lengthAdjust="spacing" textLength="145" x="750.5" y="1824.292">Kelvin plugin process</text><text fill="#000000" font-family="sans-serif" font-size="14" lengthAdjust="spacing" textLength="0" x="825" y="1840.5889"/><text fill="#000000" font-family="sans-serif" font-size="14" lengthAdjust="spacing" textLength="130" x="758" y="1856.8857">sends to Kelvin API</text><!--MD5=[194aa454895f181ee76f84c49e4a9079]
entity management_api--><rect fill="#F6AA42" filter="url(#fg2ye98dvawj6)" height="101.4844" style="stroke:#6A8198;stroke-width:1.5;" width="196" x="423" y="1777"/><text fill="#000000" font-family="sans-serif" font-size="14" font-weight="bold" lengthAdjust="spacing" textLength="175" x="433.5" y="1799.9951">Management REST API</text><text fill="#000000" font-family="sans-serif" font-size="14" font-style="italic" lengthAdjust="spacing" textLength="44" x="499" y="1816.292">fastapi</text><text fill="#000000" font-family="sans-serif" font-size="14" lengthAdjust="spacing" textLength="0" x="523" y="1832.5889"/><text fill="#000000" font-family="sans-serif" font-size="14" lengthAdjust="spacing" textLength="176" x="433" y="1848.8857">CRUD sync target configs</text><text fill="#000000" font-family="sans-serif" font-size="14" lengthAdjust="spacing" textLength="83" x="479.5" y="1865.1826">and queues</text><ellipse cx="532.2234" cy="55.1894" fill="#FFFFFF" filter="url(#fg2ye98dvawj6)" rx="178.7234" ry="49.1894" style="stroke:#808080;stroke-width:1.5;"/><text fill="#777777" font-family="sans-serif" font-size="14" font-weight="bold" lengthAdjust="spacing" textLength="236" x="411.2234" y="34.4916">School management software</text><text fill="#777777" font-family="sans-serif" font-size="14" font-style="italic" lengthAdjust="spacing" textLength="104" x="477.2234" y="50.7885">custom system</text><text fill="#777777" font-family="sans-serif" font-size="14" lengthAdjust="spacing" textLength="0" x="531.2234" y="67.0854"/><text fill="#777777" font-family="sans-serif" font-size="14" lengthAdjust="spacing" textLength="203" x="427.7234" y="83.3823">manages users on state level</text><!--MD5=[47722de4571988dbdff5f58bebd85cab]
entity importer--><rect fill="#F6AA42" filter="url(#fg2ye98dvawj6)" height="85.1875" style="stroke:#6A8198;stroke-width:1.5;" width="179" x="442.5" y="196"/><text fill="#000000" font-family="sans-serif" font-size="14" font-weight="bold" lengthAdjust="spacing" textLength="155" x="454.5" y="218.9951">UCS@School import</text><text fill="#000000" font-family="sans-serif" font-size="14" font-style="italic" lengthAdjust="spacing" textLength="49" x="507.5" y="235.292">python</text><text fill="#000000" font-family="sans-serif" font-size="14" lengthAdjust="spacing" textLength="0" x="534" y="251.5889"/><text fill="#000000" font-family="sans-serif" font-size="14" lengthAdjust="spacing" textLength="159" x="452.5" y="267.8857">Import user/group data</text><path d="M657,211 L657,234.5 L621.82,238.5 L657,242.5 L657,266.3984 A0,0 0 0 0 657,266.3984 L845,266.3984 A0,0 0 0 0 845,266.3984 L845,221 L835,211 L657,211 A0,0 0 0 0 657,211 " fill="#FFFFFF" filter="url(#fg2ye98dvawj6)" style="stroke:#A9A9A9;stroke-width:1.0;"/><path d="M835,211 L835,221 L845,221 L835,211 " fill="#FFFFFF" style="stroke:#A9A9A9;stroke-width:1.0;"/><text fill="#808080" font-family="sans-serif" font-size="13" lengthAdjust="spacing" textLength="167" x="663" y="228.0669">This could also be another</text><text fill="#808080" font-family="sans-serif" font-size="13" lengthAdjust="spacing" textLength="117" x="688" y="243.1997">source of changes</text><text fill="#808080" font-family="sans-serif" font-size="13" lengthAdjust="spacing" textLength="58" x="717.5" y="258.3325">e.g. UMC</text><!--MD5=[7ae70b43012fc5e1ca54de92c75677c7]
entity large_queue--><polygon fill="#00ACB6" filter="url(#fg2ye98dvawj6)" points="508,1081,554,1081,561,1102,658,1102,658,1184.1875,508,1184.1875,508,1081" style="stroke:#000000;stroke-width:1.5;"/><line style="stroke:#000000;stroke-width:1.5;" x1="508" x2="561" y1="1102" y2="1102"/><text fill="#000000" font-family="sans-serif" font-size="14" font-weight="bold" lengthAdjust="spacing" textLength="120" x="518" y="1121.9951">Large in-queue</text><text fill="#000000" font-family="sans-serif" font-size="14" font-style="italic" lengthAdjust="spacing" textLength="65" x="545.5" y="1138.292">JSON files</text><text fill="#000000" font-family="sans-serif" font-size="14" lengthAdjust="spacing" textLength="0" x="580" y="1154.5889"/><text fill="#000000" font-family="sans-serif" font-size="14" lengthAdjust="spacing" textLength="53" x="551.5" y="1170.8857">full data</text><ellipse cx="792.0158" cy="2021.0945" fill="#FFFFFF" filter="url(#fg2ye98dvawj6)" rx="114.0158" ry="49.0945" style="stroke:#808080;stroke-width:1.5;"/><text fill="#777777" font-family="sans-serif" font-size="14" font-weight="bold" lengthAdjust="spacing" textLength="145" x="719.5158" y="1999.4959">School authority A</text><text fill="#777777" font-family="sans-serif" font-size="14" font-style="italic" lengthAdjust="spacing" textLength="83" x="750.5158" y="2015.7928">UCS / Kelvin</text><text fill="#777777" font-family="sans-serif" font-size="14" lengthAdjust="spacing" textLength="0" x="794.0158" y="2032.0896"/><text fill="#777777" font-family="sans-serif" font-size="14" lengthAdjust="spacing" textLength="121" x="731.5158" y="2048.3865">Manages schools</text><ellipse cx="1054.8087" cy="2021.0945" fill="#FFFFFF" filter="url(#fg2ye98dvawj6)" rx="113.3087" ry="49.0945" style="stroke:#808080;stroke-width:1.5;"/><text fill="#777777" font-family="sans-serif" font-size="14" font-weight="bold" lengthAdjust="spacing" textLength="144" x="982.8087" y="1999.4959">School authority B</text><text fill="#777777" font-family="sans-serif" font-size="14" font-style="italic" lengthAdjust="spacing" textLength="83" x="1013.3087" y="2015.7928">UCS / Kelvin</text><text fill="#777777" font-family="sans-serif" font-size="14" lengthAdjust="spacing" textLength="0" x="1056.8087" y="2032.0896"/><text fill="#777777" font-family="sans-serif" font-size="14" lengthAdjust="spacing" textLength="121" x="994.3087" y="2048.3865">Manages schools</text><!--MD5=[b9d5f6c7ed6e88f2c687d175fa263add]
link sms to importer--><path d="M532,104.16 C532,130.94 532,164.12 532,190.68 " fill="none" id="sms-to-importer" style="stroke:#666666;stroke-width:1.0;"/><polygon fill="#666666" points="532,195.9,536,186.9,532,190.9,528,186.9,532,195.9" style="stroke:#666666;stroke-width:1.0;"/><text fill="#666666" font-family="sans-serif" font-size="13" font-weight="bold" lengthAdjust="spacing" textLength="144" x="533" y="147.0669">export of user data</text><text fill="#666666" font-family="sans-serif" font-size="13" font-style="italic" lengthAdjust="spacing" textLength="45" x="582.5" y="162.1997">python</text><!--MD5=[c9d20122752c08dd96b959ce5906c64c]
link importer to ldap--><path d="M532,281.03 C532,324.51 532,392.85 532,439.68 " fill="none" id="importer-to-ldap" style="stroke:#666666;stroke-width:1.0;"/><polygon fill="#666666" points="532,444.71,536,435.71,532,439.71,528,435.71,532,444.71" style="stroke:#666666;stroke-width:1.0;"/><text fill="#666666" font-family="sans-serif" font-size="13" font-weight="bold" lengthAdjust="spacing" textLength="162" x="533" y="324.0669">write user/group data</text><text fill="#666666" font-family="sans-serif" font-size="13" font-style="italic" lengthAdjust="spacing" textLength="45" x="591.5" y="339.1997">python</text><!--MD5=[0778b217ed62fbcddf9240b82e53e7fd]
link ldap to listener--><path d="M470.54,539.14 C458.77,548.67 446.77,558.89 436,569 C411.85,591.66 387,618.71 366.7,641.97 " fill="none" id="ldap-to-listener" style="stroke:#666666;stroke-width:1.0;"/><polygon fill="#666666" points="363.22,645.97,372.1479,641.8116,366.5044,642.2,366.116,636.5565,363.22,645.97" style="stroke:#666666;stroke-width:1.0;"/><text fill="#666666" font-family="sans-serif" font-size="13" font-weight="bold" lengthAdjust="spacing" textLength="85" x="437" y="582.0669">call listener</text><text fill="#666666" font-family="sans-serif" font-size="13" font-weight="bold" lengthAdjust="spacing" textLength="60" x="452" y="597.1997">on write</text><text fill="#666666" font-family="sans-serif" font-size="13" font-style="italic" lengthAdjust="spacing" textLength="45" x="457" y="612.3325">python</text><!--MD5=[e1cf6d1f8cc7a3865de975f755036974]
link listener to small_queue--><path d="M306,747.25 C295.49,779.92 281.72,822.71 270.86,856.49 " fill="none" id="listener-to-small_queue" style="stroke:#666666;stroke-width:1.0;"/><polygon fill="#666666" points="269.28,861.4,275.8415,854.0551,270.8096,856.6397,268.225,851.6078,269.28,861.4" style="stroke:#666666;stroke-width:1.0;"/><text fill="#666666" font-family="sans-serif" font-size="13" font-weight="bold" lengthAdjust="spacing" textLength="123" x="297" y="790.0669">write entryUUIDs</text><text fill="#666666" font-family="sans-serif" font-size="13" font-weight="bold" lengthAdjust="spacing" textLength="95" x="311" y="805.1997">and changes</text><text fill="#666666" font-family="sans-serif" font-size="13" font-style="italic" lengthAdjust="spacing" textLength="32" x="342.5" y="820.3325">JSON</text><!--MD5=[3009a6f81879c83195bf7057e3c4e0f0]
link small_queue to converter--><path d="M326.1,913 C370.59,913 428.26,913 478.16,913 " fill="none" id="small_queue-to-converter" style="stroke:#666666;stroke-width:1.0;"/><polygon fill="#666666" points="483.27,913,474.27,909,478.27,913,474.27,917,483.27,913" style="stroke:#666666;stroke-width:1.0;"/><text fill="#666666" font-family="sans-serif" font-size="13" font-weight="bold" lengthAdjust="spacing" textLength="121" x="344.25" y="876.0669">read entryUUIDS</text><text fill="#666666" font-family="sans-serif" font-size="13" font-weight="bold" lengthAdjust="spacing" textLength="95" x="357.25" y="891.1997">and changes</text><text fill="#666666" font-family="sans-serif" font-size="13" font-style="italic" lengthAdjust="spacing" textLength="32" x="388.75" y="906.3325">JSON</text><!--MD5=[e8e5414d468394fb89da731946ef0d96]
link converter to large_queue--><path d="M586.67,972 C585.93,1004.13 585.01,1043.89 584.28,1075.67 " fill="none" id="converter-to-large_queue" style="stroke:#666666;stroke-width:1.0;"/><polygon fill="#666666" points="584.17,1080.7,588.3746,1071.7938,584.2843,1075.7013,580.3767,1071.6109,584.17,1080.7" style="stroke:#666666;stroke-width:1.0;"/><text fill="#666666" font-family="sans-serif" font-size="13" font-weight="bold" lengthAdjust="spacing" textLength="37" x="630" y="1017.0669">write</text><text fill="#666666" font-family="sans-serif" font-size="13" font-weight="bold" lengthAdjust="spacing" textLength="120" x="591" y="1032.1997">user/group data</text><text fill="#666666" font-family="sans-serif" font-size="13" font-style="italic" lengthAdjust="spacing" textLength="32" x="632.5" y="1047.3325">JSON</text><!--MD5=[d983799e7288e6b488ea9ad2c859bd6e]
link large_queue to daemon--><path d="M574.29,1184.05 C572.57,1203.68 572.69,1226.17 578,1246 C588.66,1285.77 611.52,1325.88 632.14,1356.54 " fill="none" id="large_queue-to-daemon" style="stroke:#666666;stroke-width:1.0;"/><polygon fill="#666666" points="635.17,1360.99,633.4215,1351.2976,632.3604,1356.854,626.804,1355.793,635.17,1360.99" style="stroke:#666666;stroke-width:1.0;"/><text fill="#666666" font-family="sans-serif" font-size="13" font-weight="bold" lengthAdjust="spacing" textLength="159" x="579" y="1227.0669">read user/group data</text><text fill="#666666" font-family="sans-serif" font-size="13" font-style="italic" lengthAdjust="spacing" textLength="32" x="642.5" y="1242.1997">JSON</text><!--MD5=[c4d11be3261513966a2da79344b804fe]
link ldap to converter--><path d="M538.15,539.04 C548.21,614.28 568.18,763.73 579.56,848.83 " fill="none" id="ldap-to-converter" style="stroke:#666666;stroke-width:1.0;"/><polygon fill="#666666" points="580.23,853.84,582.9858,844.3846,579.5589,848.8852,575.0582,845.4583,580.23,853.84" style="stroke:#666666;stroke-width:1.0;"/><text fill="#666666" font-family="sans-serif" font-size="13" font-weight="bold" lengthAdjust="spacing" textLength="159" x="566" y="693.5669">read user/group data</text><text fill="#666666" font-family="sans-serif" font-size="13" font-style="italic" lengthAdjust="spacing" textLength="77" x="607" y="708.6997">python-ldap</text><!--MD5=[9eddf691bb796437f288f731e46d2abd]
link ldap to daemon--><path d="M598.15,517.5 C667.03,547.8 765,606.53 765,695.5 C765,695.5 765,695.5 765,1133.5 C765,1214.09 729.5,1301.44 702.6,1356.06 " fill="none" id="ldap-to-daemon" style="stroke:#666666;stroke-width:1.0;"/><polygon fill="#666666" points="700.35,1360.59,707.9446,1354.3193,702.5803,1356.115,700.7846,1350.7507,700.35,1360.59" style="stroke:#666666;stroke-width:1.0;"/><text fill="#666666" font-family="sans-serif" font-size="13" font-weight="bold" lengthAdjust="spacing" textLength="107" x="766" y="910.0669">get extra data</text><text fill="#666666" font-family="sans-serif" font-size="13" font-style="italic" lengthAdjust="spacing" textLength="77" x="781" y="925.1997">python-ldap</text><!--MD5=[127cfc3688091e93c96221c44d0f6976]
link daemon to sqlite--><path d="M768.19,1411.5 C816.78,1411.5 875.69,1411.5 924.09,1411.5 " fill="none" id="daemon-to-sqlite" style="stroke:#666666;stroke-width:1.0;"/><polygon fill="#666666" points="929.34,1411.5,920.34,1407.5,924.34,1411.5,920.34,1415.5,929.34,1411.5" style="stroke:#666666;stroke-width:1.0;"/><text fill="#666666" font-family="sans-serif" font-size="13" font-weight="bold" lengthAdjust="spacing" textLength="76" x="810.75" y="1374.5669">read/write</text><text fill="#666666" font-family="sans-serif" font-size="13" font-weight="bold" lengthAdjust="spacing" textLength="120" x="791.25" y="1389.6997">user/group data</text><text fill="#666666" font-family="sans-serif" font-size="13" font-style="italic" lengthAdjust="spacing" textLength="45" x="826.25" y="1404.8325">python</text><!--MD5=[f6eeb8577055c2c3744e77e11d12c8db]
link daemon to out_queue_a--><path d="M688.73,1462.12 C698.29,1492.27 710.51,1530.82 720.39,1561.97 " fill="none" id="daemon-to-out_queue_a" style="stroke:#666666;stroke-width:1.0;"/><polygon fill="#666666" points="721.96,1566.91,723.0501,1557.1217,720.4475,1562.1442,715.4249,1559.5416,721.96,1566.91" style="stroke:#666666;stroke-width:1.0;"/><text fill="#666666" font-family="sans-serif" font-size="13" font-weight="bold" lengthAdjust="spacing" textLength="37" x="712" y="1518.0669">write</text><text fill="#666666" font-family="sans-serif" font-size="13" font-style="italic" lengthAdjust="spacing" textLength="32" x="714.5" y="1533.1997">JSON</text><!--MD5=[d5a63a035d29fa3ef42f8adb36131b44]
link daemon to out_queue_b--><path d="M731.82,1462.12 C768.14,1492.77 814.75,1532.09 852,1563.51 " fill="none" id="daemon-to-out_queue_b" style="stroke:#666666;stroke-width:1.0;"/><polygon fill="#666666" points="856.03,1566.91,851.7448,1558.0423,852.2136,1563.6796,846.5762,1564.1485,856.03,1566.91" style="stroke:#666666;stroke-width:1.0;"/><text fill="#666666" font-family="sans-serif" font-size="13" font-weight="bold" lengthAdjust="spacing" textLength="37" x="817" y="1518.0669">write</text><text fill="#666666" font-family="sans-serif" font-size="13" font-style="italic" lengthAdjust="spacing" textLength="32" x="819.5" y="1533.1997">JSON</text><!--MD5=[e17d3b570877514a29ee42294b9ce519]
link out_queue_a to out_a--><path d="M758.79,1670.14 C772.57,1703.68 790.5,1747.34 803.91,1780 " fill="none" id="out_queue_a-to-out_a" style="stroke:#666666;stroke-width:1.0;"/><polygon fill="#666666" points="805.85,1784.74,806.1327,1774.8952,803.9513,1780.1145,798.7319,1777.9332,805.85,1784.74" style="stroke:#666666;stroke-width:1.0;"/><text fill="#666666" font-family="sans-serif" font-size="13" font-weight="bold" lengthAdjust="spacing" textLength="34" x="789" y="1720.5669">read</text><text fill="#666666" font-family="sans-serif" font-size="13" font-style="italic" lengthAdjust="spacing" textLength="32" x="790" y="1735.6997">JSON</text><!--MD5=[6049a3ef58aa70c8891f7f818e65d62f]
link out_queue_b to out_b--><path d="M942.18,1670.14 C959.51,1703.68 982.08,1747.34 998.96,1780 " fill="none" id="out_queue_b-to-out_b" style="stroke:#666666;stroke-width:1.0;"/><polygon fill="#666666" points="1001.41,1784.74,1000.8246,1774.9086,999.1113,1780.2997,993.7202,1778.5864,1001.41,1784.74" style="stroke:#666666;stroke-width:1.0;"/><text fill="#666666" font-family="sans-serif" font-size="13" font-weight="bold" lengthAdjust="spacing" textLength="34" x="980" y="1720.5669">read</text><text fill="#666666" font-family="sans-serif" font-size="13" font-style="italic" lengthAdjust="spacing" textLength="32" x="981" y="1735.6997">JSON</text><!--MD5=[f572066c290b686b345433416987adfc]
link out_a to school_provider_a--><path d="M816.27,1870.05 C811.69,1898.34 805.59,1936.03 800.65,1966.55 " fill="none" id="out_a-to-school_provider_a" style="stroke:#666666;stroke-width:1.0;"/><polygon fill="#666666" points="799.81,1971.77,805.2003,1963.5272,800.6111,1966.8346,797.3037,1962.2454,799.81,1971.77" style="stroke:#666666;stroke-width:1.0;"/><text fill="#666666" font-family="sans-serif" font-size="13" font-weight="bold" lengthAdjust="spacing" textLength="123" x="810" y="1923.0669">write user/group</text><text fill="#666666" font-family="sans-serif" font-size="13" font-style="italic" lengthAdjust="spacing" textLength="34" x="854.5" y="1938.1997">HTTP</text><!--MD5=[7038b640b3daffc987451c364fc69fab]
link out_b to school_provider_b--><path d="M1029.94,1870.05 C1034.69,1898.44 1041.01,1936.31 1046.12,1966.88 " fill="none" id="out_b-to-school_provider_b" style="stroke:#666666;stroke-width:1.0;"/><polygon fill="#666666" points="1047,1972.11,1049.4525,1962.5714,1046.1711,1967.1792,1041.5633,1963.8977,1047,1972.11" style="stroke:#666666;stroke-width:1.0;"/><text fill="#666666" font-family="sans-serif" font-size="13" font-weight="bold" lengthAdjust="spacing" textLength="123" x="1042" y="1923.0669">write user/group</text><text fill="#666666" font-family="sans-serif" font-size="13" font-style="italic" lengthAdjust="spacing" textLength="34" x="1086.5" y="1938.1997">HTTP</text><!--MD5=[9abeea543c4e1effb37ec9da35b41546]
link daemon to management_api--><path d="M625.34,1466.31 C602.95,1494.45 577.96,1530.57 563,1567 C535.46,1634.07 525.93,1717.84 522.66,1771.75 " fill="none" id="daemon-management_api" style="stroke:#666666;stroke-width:1.0;"/><polygon fill="#666666" points="522.36,1776.87,526.8669,1768.1129,522.6452,1771.8781,518.88,1767.6565,522.36,1776.87" style="stroke:#666666;stroke-width:1.0;"/><polygon fill="#666666" points="628.62,1462.21,619.8682,1466.7273,625.4913,1466.1102,626.1085,1471.7332,628.62,1462.21" style="stroke:#666666;stroke-width:1.0;"/><text fill="#666666" font-family="sans-serif" font-size="13" font-weight="bold" lengthAdjust="spacing" textLength="46" x="583.5" y="1608.0669">config</text><text fill="#666666" font-family="sans-serif" font-size="13" font-weight="bold" lengthAdjust="spacing" textLength="85" x="564" y="1623.1997">read status</text><text fill="#666666" font-family="sans-serif" font-size="13" font-style="italic" lengthAdjust="spacing" textLength="32" x="590.5" y="1638.3325">JSON</text><!--MD5=[4cd7ff0d337bd97a1c186fcbb4094890]
link management_api to out_a--><path d="M624.12,1827.5 C660.19,1827.5 700.32,1827.5 735.03,1827.5 " fill="none" id="management_api-out_a" style="stroke:#666666;stroke-width:1.0;"/><polygon fill="#666666" points="740.11,1827.5,731.11,1823.5,735.11,1827.5,731.11,1831.5,740.11,1827.5" style="stroke:#666666;stroke-width:1.0;"/><polygon fill="#666666" points="619.05,1827.5,628.05,1831.5,624.05,1827.5,628.05,1823.5,619.05,1827.5" style="stroke:#666666;stroke-width:1.0;"/><text fill="#666666" font-family="sans-serif" font-size="13" font-weight="bold" lengthAdjust="spacing" textLength="46" x="656.75" y="1790.5669">config</text><text fill="#666666" font-family="sans-serif" font-size="13" font-weight="bold" lengthAdjust="spacing" textLength="85" x="637.25" y="1805.6997">read status</text><text fill="#666666" font-family="sans-serif" font-size="13" font-style="italic" lengthAdjust="spacing" textLength="32" x="663.75" y="1820.8325">JSON</text><!--MD5=[651d6ef32ed431089ecb85f26324492d]
link management_api to out_b--><path d="M560.27,1772.72 C580.18,1749.66 606.51,1725.35 636.5,1713 C696.82,1688.17 862.64,1752.26 923,1777 C927.52,1778.85 932.12,1780.83 936.73,1782.89 " fill="none" id="management_api-out_b" style="stroke:#666666;stroke-width:1.0;"/><polygon fill="#666666" points="941.35,1784.97,934.7928,1777.6213,936.7928,1782.9128,931.5013,1784.9129,941.35,1784.97" style="stroke:#666666;stroke-width:1.0;"/><polygon fill="#666666" points="556.88,1776.71,565.7477,1772.4248,560.1104,1772.8936,559.6415,1767.2562,556.88,1776.71" style="stroke:#666666;stroke-width:1.0;"/><text fill="#666666" font-family="sans-serif" font-size="13" font-weight="bold" lengthAdjust="spacing" textLength="46" x="657" y="1713.0669">config</text><text fill="#666666" font-family="sans-serif" font-size="13" font-weight="bold" lengthAdjust="spacing" textLength="85" x="637.5" y="1728.1997">read status</text><text fill="#666666" font-family="sans-serif" font-size="13" font-style="italic" lengthAdjust="spacing" textLength="32" x="664" y="1743.3325">JSON</text><!--MD5=[79bbc1c991dae3c11176d0952b250113]
@startuml
!include styling.puml
' skinparam linetype round


!include object_sms.puml
!include object_importer.puml
!include object_note_importer.puml

frame "DC Primary\n<i>ucs" as primary {
    !include object_ldap.puml
    !include object_listener.puml
    !include object_converter.puml
    !include object_small_queue.puml
    !include object_note_schedule_user.puml

}

!include object_large_queue.puml


frame "ID Connector\nDocker" as id_connector {
    !include object_daemon.puml
    !include object_sqlite.puml
    !include object_out_queue_a.puml
    !include object_out_queue_b.puml
    !include object_out_a.puml
    !include object_out_b.puml
    !include object_management_api.puml
}

!include object_school_provider_a.puml
!include object_school_provider_b.puml

sms - -> importer : <b>export of user data\n<i>python

importer - -> ldap: <b>write user/group data\n<i>python
ldap - -> listener: <b>call listener\n<b> on write\n<i>python
listener - -> small_queue: <b>write entryUUIDs\n<b>and changes\n<i>JSON
small_queue -right-> converter:  <b>read entryUUIDS\n<b>and changes\n<i>JSON
converter - -> large_queue: <b>write\n<b> user/group data\n<i>JSON
large_queue - -> daemon: <b>read user/group data\n<i>JSON
ldap - -> converter: <b>read user/group data\n<i>python-ldap
ldap - -> daemon : <b>get extra data\n<i>python-ldap

daemon-right->sqlite: <b>read/write\n<b> user/group data\n<i>python
daemon - -> out_queue_a:<b>write\n<i>JSON
daemon - -> out_queue_b:<b>write\n<i>JSON
out_queue_a - -> out_a:<b>read\n<i>JSON
out_queue_b - -> out_b:<b>read\n<i>JSON
out_a - -> school_provider_a:<b>write user/group\n<i>HTTP
out_b - -> school_provider_b:<b>write user/group\n<i>HTTP



daemon <- -> management_api:<b>config\n<b>read status\n<i>JSON
out_a <-left-> management_api:<b>config\n<b>read status\n<i>JSON
out_b <-left-> management_api:<b>config\n<b>read status\n<i>JSON

@enduml

@startuml
skinparam backgroundColor white
skinparam defaultTextAlignment center

skinparam AgentBackgroundColor  #F6AA42
skinparam AgentFontColor black
skinparam AgentBorderColor #6a8198

skinparam StorageBackgroundColor #7AB51D
skinparam StorageFontColor white

skinparam FrameBackgroundColor  #d8d8d6

skinparam FolderBackgroundColor #00ACB6
skinparam DatabaseBackgroundColor #00ACB6

skinparam UsecaseBackgroundColor white
skinparam UsecaseFontColor #777777
skinparam UsecaseBorderColor grey

skinparam NoteBackgroundColor white
skinparam NoteFontColor grey
skinparam NoteBorderColor darkgrey

skinparam ArrowColor #666666
skinparam ArrowFontColor #666666


    Usecase "<b>School management software\n<i>custom system\n\nmanages users on state level" as sms
    agent "<b>UCS@School import\n<i>python\n\nImport user/group data" as importer
    note right
        This could also be another
        source of changes
        e.g. UMC
    endnote

frame "DC Primary\n<i>ucs" as primary {
    database "<b>LDAP\n<i>openldap\n\nUser/group data" as ldap
    storage "<b>ID Connector listener\n<i>python listener script\n\nHandles LDAP write events\nfor ID Connector" as listener
    agent "<b>Converter\n<i>app daemon in python\n\nReads uuid and writes\njson representation of UDM\nobjects" as converter
    folder "<b>Small in-queue\n<i>JSON files\n\njust entryUUIDs" as small_queue
    note left
        You can inject
        data here using
        <i>schedule_user
    endnote

}

    folder "<b>Large in-queue\n<i>JSON files\n\nfull data" as large_queue


frame "ID Connector\nDocker" as id_connector {
    agent "<b>In queue\n<i>python process\n\nReads uuid\nWrites udm objects JSON" as daemon
    database "<b>UUID record cache\n<i>sqlite\n\nstores uuid->\n(record_uid,school, ...) \nmapping" as sqlite
    folder "<b>Out queue A\n<i>JSON\n\nuser/group data" as out_queue_a
    folder "<b>Out queue B\n<i>JSON\n\nuser/group data" as out_queue_b
     agent "<b>Out B\n<i>Kelvin plugin process\n\nsends to Kelvin API" as out_b
     agent "<b>Out A\n<i>Kelvin plugin process\n\nsends to Kelvin API" as out_a
        agent "<b>Management REST API\n<i>fastapi\n\nCRUD sync target configs\nand queues" as management_api
}

     usecase "<b>School authority A\n<i>UCS / Kelvin\n\nManages schools" as school_provider_a
     usecase "<b>School authority B\n<i>UCS / Kelvin\n\nManages schools" as school_provider_b

sms - -> importer : <b>export of user data\n<i>python

importer - -> ldap: <b>write user/group data\n<i>python
ldap - -> listener: <b>call listener\n<b> on write\n<i>python
listener - -> small_queue: <b>write entryUUIDs\n<b>and changes\n<i>JSON
small_queue -right-> converter:  <b>read entryUUIDS\n<b>and changes\n<i>JSON
converter - -> large_queue: <b>write\n<b> user/group data\n<i>JSON
large_queue - -> daemon: <b>read user/group data\n<i>JSON
ldap - -> converter: <b>read user/group data\n<i>python-ldap
ldap - -> daemon : <b>get extra data\n<i>python-ldap

daemon-right->sqlite: <b>read/write\n<b> user/group data\n<i>python
daemon - -> out_queue_a:<b>write\n<i>JSON
daemon - -> out_queue_b:<b>write\n<i>JSON
out_queue_a - -> out_a:<b>read\n<i>JSON
out_queue_b - -> out_b:<b>read\n<i>JSON
out_a - -> school_provider_a:<b>write user/group\n<i>HTTP
out_b - -> school_provider_b:<b>write user/group\n<i>HTTP



daemon <- -> management_api:<b>config\n<b>read status\n<i>JSON
out_a <-left-> management_api:<b>config\n<b>read status\n<i>JSON
out_b <-left-> management_api:<b>config\n<b>read status\n<i>JSON

@enduml

PlantUML version 1.2021.14(Fri Nov 12 17:46:50 CET 2021)
(GPL source distribution)
Java Runtime: OpenJDK Runtime Environment
JVM: OpenJDK 64-Bit Server VM
Default Encoding: UTF-8
Language: en
Country: US
--></g></svg>
