<?xml version="1.0" encoding="UTF-8" standalone="no"?><svg xmlns="http://www.w3.org/2000/svg" xmlns:xlink="http://www.w3.org/1999/xlink" contentScriptType="application/ecmascript" contentStyleType="text/css" height="318px" preserveAspectRatio="none" style="width:169px;height:318px;background:#FFFFFF;" version="1.1" viewBox="0 0 169 318" width="169px" zoomAndPan="magnify"><defs><filter height="300%" id="f1u1we0hb8fct5" width="300%" x="-1" y="-1"><feGaussianBlur result="blurOut" stdDeviation="2.0"/><feColorMatrix in="blurOut" result="blurOut2" type="matrix" values="0 0 0 0 0 0 0 0 0 0 0 0 0 0 0 0 0 0 .4 0"/><feOffset dx="4.0" dy="4.0" in="blurOut2" result="blurOut3"/><feBlend in="SourceGraphic" in2="blurOut3" mode="normal"/></filter></defs><g><line style="stroke:#A80036;stroke-width:1.0;stroke-dasharray:5.0,5.0;" x1="86" x2="86" y1="148.7813" y2="168.7813"/><text fill="#000000" font-family="sans-serif" font-size="14" font-weight="bold" lengthAdjust="spacing" textLength="147" x="10" y="63.9951">UUID record cache</text><text fill="#000000" font-family="sans-serif" font-size="14" font-style="italic" lengthAdjust="spacing" textLength="36" x="65.5" y="80.292">sqlite</text><text fill="#000000" font-family="sans-serif" font-size="14" lengthAdjust="spacing" textLength="0" x="85.5" y="96.5889"/><text fill="#000000" font-family="sans-serif" font-size="14" lengthAdjust="spacing" textLength="95" x="36" y="112.8857">stores uuid-&gt;</text><text fill="#000000" font-family="sans-serif" font-size="14" lengthAdjust="spacing" textLength="153" x="5" y="129.1826">(record_uid,school, ...)</text><text fill="#000000" font-family="sans-serif" font-size="14" lengthAdjust="spacing" textLength="60" x="53.5" y="145.4795">mapping</text><path d="M68.5,15 C68.5,5 86.5,5 86.5,5 C86.5,5 104.5,5 104.5,15 L104.5,41 C104.5,51 86.5,51 86.5,51 C86.5,51 68.5,51 68.5,41 L68.5,15 " fill="#00ACB6" filter="url(#f1u1we0hb8fct5)" style="stroke:#000000;stroke-width:1.5;"/><path d="M68.5,15 C68.5,25 86.5,25 86.5,25 C86.5,25 104.5,25 104.5,15 " fill="none" style="stroke:#000000;stroke-width:1.5;"/><text fill="#000000" font-family="sans-serif" font-size="14" font-weight="bold" lengthAdjust="spacing" textLength="147" x="10" y="180.7764">UUID record cache</text><text fill="#000000" font-family="sans-serif" font-size="14" font-style="italic" lengthAdjust="spacing" textLength="36" x="65.5" y="197.0732">sqlite</text><text fill="#000000" font-family="sans-serif" font-size="14" lengthAdjust="spacing" textLength="0" x="85.5" y="213.3701"/><text fill="#000000" font-family="sans-serif" font-size="14" lengthAdjust="spacing" textLength="95" x="36" y="229.667">stores uuid-&gt;</text><text fill="#000000" font-family="sans-serif" font-size="14" lengthAdjust="spacing" textLength="153" x="5" y="245.9639">(record_uid,school, ...)</text><text fill="#000000" font-family="sans-serif" font-size="14" lengthAdjust="spacing" textLength="60" x="53.5" y="262.2607">mapping</text><path d="M68.5,275.5625 C68.5,265.5625 86.5,265.5625 86.5,265.5625 C86.5,265.5625 104.5,265.5625 104.5,275.5625 L104.5,301.5625 C104.5,311.5625 86.5,311.5625 86.5,311.5625 C86.5,311.5625 68.5,311.5625 68.5,301.5625 L68.5,275.5625 " fill="#00ACB6" filter="url(#f1u1we0hb8fct5)" style="stroke:#000000;stroke-width:1.5;"/><path d="M68.5,275.5625 C68.5,285.5625 86.5,285.5625 86.5,285.5625 C86.5,285.5625 104.5,285.5625 104.5,275.5625 " fill="none" style="stroke:#000000;stroke-width:1.5;"/><!--MD5=[d52ded8b9143675daeb17949ad6bb622]
@startuml
    !include styling.puml
    database "<b>UUID record cache\n<i>sqlite\n\nstores uuid->\n(record_uid,school, ...) \nmapping" as sqlite
@enduml

@startuml
skinparam backgroundColor white
skinparam defaultTextAlignment center

skinparam AgentBackgroundColor  #F6AA42
skinparam AgentFontColor black
skinparam AgentBorderColor #6a8198

skinparam StorageBackgroundColor #7AB51D
skinparam StorageFontColor white

skinparam FrameBackgroundColor  #d8d8d6

skinparam FolderBackgroundColor #00ACB6
skinparam DatabaseBackgroundColor #00ACB6

skinparam UsecaseBackgroundColor white
skinparam UsecaseFontColor #777777
skinparam UsecaseBorderColor grey

skinparam NoteBackgroundColor white
skinparam NoteFontColor grey
skinparam NoteBorderColor darkgrey

skinparam ArrowColor #666666
skinparam ArrowFontColor #666666
    database "<b>UUID record cache\n<i>sqlite\n\nstores uuid->\n(record_uid,school, ...) \nmapping" as sqlite
@enduml

PlantUML version 1.2021.14(Fri Nov 12 17:46:50 CET 2021)
(GPL source distribution)
Java Runtime: OpenJDK Runtime Environment
JVM: OpenJDK 64-Bit Server VM
Default Encoding: UTF-8
Language: en
Country: US
--></g></svg>
