<?xml version="1.0" encoding="UTF-8" standalone="no"?><svg xmlns="http://www.w3.org/2000/svg" xmlns:xlink="http://www.w3.org/1999/xlink" contentScriptType="application/ecmascript" contentStyleType="text/css" height="253px" preserveAspectRatio="none" style="width:124px;height:253px;background:#FFFFFF;" version="1.1" viewBox="0 0 124 253" width="124px" zoomAndPan="magnify"><defs><filter height="300%" id="f1lftnyipvui0y" width="300%" x="-1" y="-1"><feGaussianBlur result="blurOut" stdDeviation="2.0"/><feColorMatrix in="blurOut" result="blurOut2" type="matrix" values="0 0 0 0 0 0 0 0 0 0 0 0 0 0 0 0 0 0 .4 0"/><feOffset dx="4.0" dy="4.0" in="blurOut2" result="blurOut3"/><feBlend in="SourceGraphic" in2="blurOut3" mode="normal"/></filter></defs><g><line style="stroke:#A80036;stroke-width:1.0;stroke-dasharray:5.0,5.0;" x1="64" x2="64" y1="116.1875" y2="136.1875"/><text fill="#000000" font-family="sans-serif" font-size="14" font-weight="bold" lengthAdjust="spacing" textLength="41" x="40.5" y="63.9951">LDAP</text><text fill="#000000" font-family="sans-serif" font-size="14" font-style="italic" lengthAdjust="spacing" textLength="65" x="28.5" y="80.292">openldap</text><text fill="#000000" font-family="sans-serif" font-size="14" lengthAdjust="spacing" textLength="0" x="63" y="96.5889"/><text fill="#000000" font-family="sans-serif" font-size="14" lengthAdjust="spacing" textLength="112" x="5" y="112.8857">User/group data</text><path d="M46,15 C46,5 64,5 64,5 C64,5 82,5 82,15 L82,41 C82,51 64,51 64,51 C64,51 46,51 46,41 L46,15 " fill="#00ACB6" filter="url(#f1lftnyipvui0y)" style="stroke:#000000;stroke-width:1.5;"/><path d="M46,15 C46,25 64,25 64,25 C64,25 82,25 82,15 " fill="none" style="stroke:#000000;stroke-width:1.5;"/><text fill="#000000" font-family="sans-serif" font-size="14" font-weight="bold" lengthAdjust="spacing" textLength="41" x="40.5" y="148.1826">LDAP</text><text fill="#000000" font-family="sans-serif" font-size="14" font-style="italic" lengthAdjust="spacing" textLength="65" x="28.5" y="164.4795">openldap</text><text fill="#000000" font-family="sans-serif" font-size="14" lengthAdjust="spacing" textLength="0" x="63" y="180.7764"/><text fill="#000000" font-family="sans-serif" font-size="14" lengthAdjust="spacing" textLength="112" x="5" y="197.0732">User/group data</text><path d="M46,210.375 C46,200.375 64,200.375 64,200.375 C64,200.375 82,200.375 82,210.375 L82,236.375 C82,246.375 64,246.375 64,246.375 C64,246.375 46,246.375 46,236.375 L46,210.375 " fill="#00ACB6" filter="url(#f1lftnyipvui0y)" style="stroke:#000000;stroke-width:1.5;"/><path d="M46,210.375 C46,220.375 64,220.375 64,220.375 C64,220.375 82,220.375 82,210.375 " fill="none" style="stroke:#000000;stroke-width:1.5;"/><!--MD5=[5ba2e6bc6ab3bb77583482fa1c71e91d]
@startuml
    !include styling.puml
    database "<b>LDAP\n<i>openldap\n\nUser/group data" as ldap
@enduml

@startuml
skinparam backgroundColor white
skinparam defaultTextAlignment center

skinparam AgentBackgroundColor  #F6AA42
skinparam AgentFontColor black
skinparam AgentBorderColor #6a8198

skinparam StorageBackgroundColor #7AB51D
skinparam StorageFontColor white

skinparam FrameBackgroundColor  #d8d8d6

skinparam FolderBackgroundColor #00ACB6
skinparam DatabaseBackgroundColor #00ACB6

skinparam UsecaseBackgroundColor white
skinparam UsecaseFontColor #777777
skinparam UsecaseBorderColor grey

skinparam NoteBackgroundColor white
skinparam NoteFontColor grey
skinparam NoteBorderColor darkgrey

skinparam ArrowColor #666666
skinparam ArrowFontColor #666666
    database "<b>LDAP\n<i>openldap\n\nUser/group data" as ldap
@enduml

PlantUML version 1.2021.14(Fri Nov 12 17:46:50 CET 2021)
(GPL source distribution)
Java Runtime: OpenJDK Runtime Environment
JVM: OpenJDK 64-Bit Server VM
Default Encoding: UTF-8
Language: en
Country: US
--></g></svg>
