<?xml version="1.0" encoding="UTF-8"?>
<!-- Do not edit this file with editors other than diagrams.net -->
<!DOCTYPE svg PUBLIC "-//W3C//DTD SVG 1.1//EN" "http://www.w3.org/Graphics/SVG/1.1/DTD/svg11.dtd">
<svg xmlns="http://www.w3.org/2000/svg" xmlns:xlink="http://www.w3.org/1999/xlink" version="1.1" width="631px" height="538px" viewBox="-0.5 -0.5 631 538" content="&lt;mxfile modified=&quot;2021-11-30T09:16:10.747Z&quot; host=&quot;Electron&quot; agent=&quot;5.0 (X11; Linux x86_64) AppleWebKit/537.36 (KHTML, like Gecko) draw.io/15.4.0 Chrome/91.0.4472.164 Electron/13.5.0 Safari/537.36&quot; etag=&quot;EVzHX-hSLX3YqCIyPB8e&quot; version=&quot;15.4.0&quot; type=&quot;device&quot;&gt;&lt;diagram name=&quot;Page-1&quot; id=&quot;e3a06f82-3646-2815-327d-82caf3d4e204&quot;&gt;7Vpbc9sqEP41nkkf7JHQ1Y++tElOc+b41D3tTF86RMIyjSxUhC/Jry9I6Ibk2EnlxulpJjNGCyyw++2yC/SMyWp3SWG8/Jv4KOwBzd/1jGkPAF3XTP4jKPeSoml6Rgko9iWtJMzxA8obSuoa+yipNWSEhAzHdaJHogh5rEaDlJJtvdmChPVRYxigBmHuwTCnDqyS/hn7bJkvzR6WFVcIB0s5uAvsrOIWencBJetIjhiRCGU1K5izkatMltAn2wrJeNszJpQQlpVWuwkKhWRzmeX92H0+0Z4xXrJVyD90Xkyr3+3prB/Tma+LoohVh9vH791muP1009+uPy++rOnHWXi9uuwbcpQNDNf5KMAOOcPxgnC+QmUhoWmN/X0tVsoHNjTNtjWtSrID8TtnkHHpaSHaCIhljPiUMl5Zm8ayUuEjXy5ru8QMzWPoidotx2t91SG8ReGMJJhhEnGax1eP+PzGG0QZ5oi4URowIjjAEAetzUey4pYwRlatYs1FxHugXYUkxXyJyAoxes+byFpgSsVLcxrKz20JTNuQtGUFkwVgoDSHoGBd6pUXpGqfoGbg7lVzEsOopo9cp1LxI15Jg9sLPjX+z4fXdA0UZe1NCwi8Jbd9IURKNtwvUF6cVMCQjfgiYCi0fBAPGWw6AIPtGjUwmKCJBh20oEF3ToYG+4XRMN6Lhue7nrzvLVUpL+t/XgBy5lA7O8hZ3e4zLaAa/W/1DYbuuenbaVG3ogYU+SMR+gkRhTBJsHcovskjIrKmnmTifZr+e3NpOJcPX2fftpPvd9Zm3ZdYY5AGiD0ySekGkV8LLptirojRapFiTqMohAxv6oFqm2TlCDOCU+RLLRqgbrVAMwfAsCzD0YeaVsSrOcNMCpJHNexT2JquqbC1BsAC3LB03XI0XqzzzaTW4JuioJDJ84HRDERgHEsTaXjwECcMRaJGwQ43DFZHC0UJfoC3aQONf8diAemSrHHPmh5jjyvs+6J/ZvPjIi+YFJ7JWKR/reB81AxUUy4yITnjXjWhaDNxbWCYutUJzopgME/2FGCRxSJBJ9F9M+z4bzLvmVqSe/PrqQgVM8mQFjxMiXeX+nouPQZx1IaZCyICmKkIR2YUryC9f9OAz4FcIYmzHHWBd2KbqMJsb9qQMEruUA6VNIlsgRxZs5BPe1KkwQKqPK2MxcRWu0Ck5wMPM4p3A0a2iH5NEN2kXfduRDyA8nAUfJAOSXBcEoofhIgO+tLjNxlLcU+6DRqbjG01vaNrnWiLGR5AUwM8FUi0wOZmOpodj5Ryl38CWDJ4dY8UH3I/AhNUgqUDfavbkWk2gwq3ZTccniqkyM+a/ij8NAq3dJCfop2NypunU39U3qHKHe3cFA4aCm+oq5O84bH45GDekHuiM0kcTLfuqQ1bHwBTHxqW6Rquo/A7Nm+wTZWrNgDa0HacjPWwzra7tCF2Zg/vRwn+58P9l6vr+V+BTaf9Ji6uPn6c9Ueza069eI/CDY6alv1a0oQC9h3kCbqr1w8c9U5A1jfUzUEBwOnSBt18DU5heF4+QbFeoJ70HH18oDAybeOXGn4zAvitDD+HdheGD5TEPneaP235dbbWLzsv0NvuKc7O8PMg9Uws37LVMB5YzvNsv8nKtBQ3cmLrN35v68/x3YH1AwecYNc3lLtLbaCc5nRi/K2H+M1Nn8tkgYM1Rc3MDkZ+k7giEU6PEVWXwQ11Lj8JZUsSkAiGb0vquLwhEmAp29wQkd2liPqGGLuXD2HgmpFzuTU6eDlyrFs79nLkJxHmaOqth4Kw7jzMY3dFygnDaQ8W5BnBHWLeUmLsTM6c81OGxyC8F3rPv7DU86CyepbsNrdIt4Nzh8eMouV2OhbupuU9RPlsrK88jUhv1OSDCKX8RnwICWpKH7doVSm1PKZQ7swX0KvP6orviEiApdn1iVctey7TxfbLO6YbcNEgldGey/bXZwMUxdzj4yg4sRE4pqlEV8V1fNUMiqeNVUOwh082BP5ZvlTMvGf5GNR4+wM=&lt;/diagram&gt;&lt;/mxfile&gt;" style="background-color: rgb(255, 255, 255);"><defs/><g><rect x="0" y="17" width="630" height="220" rx="33" ry="33" fill="#ffffff" stroke="#000000" pointer-events="all"/><g transform="translate(-0.5 -0.5)"><switch><foreignObject pointer-events="none" width="100%" height="100%" requiredFeatures="http://www.w3.org/TR/SVG11/feature#Extensibility" style="overflow: visible; text-align: left;"><div xmlns="http://www.w3.org/1999/xhtml" style="display: flex; align-items: unsafe flex-end; justify-content: unsafe center; width: 628px; height: 1px; padding-top: 14px; margin-left: 1px;"><div style="box-sizing: border-box; font-size: 0px; text-align: center;"><div style="display: inline-block; font-size: 12px; font-family: Helvetica; color: rgb(0, 0, 0); line-height: 1.2; pointer-events: all; white-space: normal; overflow-wrap: normal;"><font color="#006600">State level</font></div></div></div></foreignObject><text x="315" y="14" fill="#000000" font-family="Helvetica" font-size="12px" text-anchor="middle">State level</text></switch></g><rect x="443" y="347" width="120" height="170" rx="18" ry="18" fill="#ffffff" stroke="#000000" pointer-events="all"/><g transform="translate(-0.5 -0.5)"><switch><foreignObject pointer-events="none" width="100%" height="100%" requiredFeatures="http://www.w3.org/TR/SVG11/feature#Extensibility" style="overflow: visible; text-align: left;"><div xmlns="http://www.w3.org/1999/xhtml" style="display: flex; align-items: unsafe flex-start; justify-content: unsafe center; width: 118px; height: 1px; padding-top: 524px; margin-left: 444px;"><div style="box-sizing: border-box; font-size: 0px; text-align: center;"><div style="display: inline-block; font-size: 12px; font-family: Helvetica; color: rgb(0, 0, 0); line-height: 1.2; pointer-events: all; white-space: normal; overflow-wrap: normal;"><span style="color: rgb(0 , 102 , 0)">School provider C</span></div></div></div></foreignObject><text x="503" y="536" fill="#000000" font-family="Helvetica" font-size="12px" text-anchor="middle">School provider C</text></switch></g><rect x="250" y="347" width="120" height="170" rx="18" ry="18" fill="#ffffff" stroke="#000000" pointer-events="all"/><g transform="translate(-0.5 -0.5)"><switch><foreignObject pointer-events="none" width="100%" height="100%" requiredFeatures="http://www.w3.org/TR/SVG11/feature#Extensibility" style="overflow: visible; text-align: left;"><div xmlns="http://www.w3.org/1999/xhtml" style="display: flex; align-items: unsafe flex-start; justify-content: unsafe center; width: 118px; height: 1px; padding-top: 524px; margin-left: 251px;"><div style="box-sizing: border-box; font-size: 0px; text-align: center;"><div style="display: inline-block; font-size: 12px; font-family: Helvetica; color: rgb(0, 0, 0); line-height: 1.2; pointer-events: all; white-space: normal; overflow-wrap: normal;"><span style="color: rgb(0 , 102 , 0)">School provider B</span><font color="#006600"><br /></font></div></div></div></foreignObject><text x="310" y="536" fill="#000000" font-family="Helvetica" font-size="12px" text-anchor="middle">School provider B</text></switch></g><rect x="58" y="347" width="120" height="170" rx="18" ry="18" fill="#ffffff" stroke="#000000" pointer-events="all"/><g transform="translate(-0.5 -0.5)"><switch><foreignObject pointer-events="none" width="100%" height="100%" requiredFeatures="http://www.w3.org/TR/SVG11/feature#Extensibility" style="overflow: visible; text-align: left;"><div xmlns="http://www.w3.org/1999/xhtml" style="display: flex; align-items: unsafe flex-start; justify-content: unsafe center; width: 118px; height: 1px; padding-top: 524px; margin-left: 59px;"><div style="box-sizing: border-box; font-size: 0px; text-align: center;"><div style="display: inline-block; font-size: 12px; font-family: Helvetica; color: rgb(0, 0, 0); line-height: 1.2; pointer-events: all; white-space: normal; overflow-wrap: normal;"><font color="#006600">School provider A</font></div></div></div></foreignObject><text x="118" y="536" fill="#000000" font-family="Helvetica" font-size="12px" text-anchor="middle">School provider A</text></switch></g><path d="M 126 130.23 L 273.63 131.24" fill="none" stroke="#000000" stroke-miterlimit="10" pointer-events="stroke"/><path d="M 278.88 131.27 L 271.86 134.72 L 273.63 131.24 L 271.91 127.72 Z" fill="#000000" stroke="#000000" stroke-miterlimit="10" pointer-events="all"/><g transform="translate(-0.5 -0.5)"><switch><foreignObject pointer-events="none" width="100%" height="100%" requiredFeatures="http://www.w3.org/TR/SVG11/feature#Extensibility" style="overflow: visible; text-align: left;"><div xmlns="http://www.w3.org/1999/xhtml" style="display: flex; align-items: unsafe center; justify-content: unsafe center; width: 1px; height: 1px; padding-top: 147px; margin-left: 201px;"><div style="box-sizing: border-box; font-size: 0px; text-align: center;"><div style="display: inline-block; font-size: 12px; font-family: Helvetica; color: rgb(0, 0, 0); line-height: 1.2; pointer-events: all; background-color: rgb(255, 255, 255); white-space: nowrap;">appcenter<br />listener</div></div></div></foreignObject><text x="201" y="151" fill="#000000" font-family="Helvetica" font-size="12px" text-anchor="middle">appcenter...</text></switch></g><path d="M 280 164.75 L 280 97.75 L 315.36 89 L 345 98 L 345 165.75 L 310.13 174 Z" fill="#abb4c5" stroke="none" pointer-events="all"/><path d="M 280 97.75 L 315.36 89 L 345 98 L 310.13 106.5 Z" fill="#b8bfd1" stroke="none" pointer-events="all"/><path d="M 310.13 106.5 L 345 98 L 345 165.75 L 310.13 174 Z" fill="#5b6369" stroke="none" pointer-events="all"/><path d="M 310.48 143.35 C 303.99 140.84 297.78 137.66 291.95 133.85 C 289.15 131.9 286.78 129.4 284.98 126.5 C 283.74 124.23 283.11 121.68 283.14 119.1 C 283.03 116.32 283.08 113.53 283.29 110.75 C 283.43 108.27 283.7 105.8 284.08 103.35 C 284.45 102 285 100.7 285.73 99.5 C 287.24 98.48 288.96 97.63 290.81 97 C 293.96 95.92 297.17 95 300.42 94.25 C 303.81 93.34 307.25 92.67 310.73 92.25 C 313.09 91.95 315.48 91.87 317.85 92 C 321.72 92.28 325.53 93.12 329.16 94.5 L 340.97 98.85 C 342 100.58 342.68 102.5 342.96 104.5 C 343.29 107.19 343.47 109.89 343.51 112.6 C 343.69 118.57 343.53 124.55 343.01 130.5 C 342.94 133.12 342.05 135.66 340.47 137.75 C 338.16 140.3 335.05 141.98 331.65 142.5 C 328.93 142.93 326.18 143.13 323.43 143.1 Z" fill-opacity="0.4" fill="#ffffff" stroke="none" pointer-events="all"/><rect x="280" y="89" width="0" height="0" fill="none" stroke="none" pointer-events="all"/><path d="M 283.49 108 L 283.49 106.25 L 306.15 113.25 L 306.15 115 Z M 287.22 161 L 287.22 159.25 L 301.17 163.25 L 301.17 165 Z" fill="#52595e" stroke="none" pointer-events="all"/><path d="M 280 164.75 L 280 97.75 L 315.36 89 L 345 98 L 345 165.75 L 310.13 174 Z" fill="none" stroke="#000000" stroke-miterlimit="10" pointer-events="all"/><g transform="translate(-0.5 -0.5)"><switch><foreignObject pointer-events="none" width="100%" height="100%" requiredFeatures="http://www.w3.org/TR/SVG11/feature#Extensibility" style="overflow: visible; text-align: left;"><div xmlns="http://www.w3.org/1999/xhtml" style="display: flex; align-items: unsafe flex-end; justify-content: unsafe center; width: 1px; height: 1px; padding-top: 86px; margin-left: 313px;"><div style="box-sizing: border-box; font-size: 0px; text-align: center;"><div style="display: inline-block; font-size: 12px; font-family: Helvetica; color: rgb(0, 0, 0); line-height: 1.2; pointer-events: all; white-space: nowrap;">UCS@school ID Connector<br />Docker container<br />(on DC Primary)</div></div></div></foreignObject><text x="313" y="86" fill="#000000" font-family="Helvetica" font-size="12px" text-anchor="middle">UCS@school...</text></switch></g><path d="M 80 443.22 L 80 375.8 L 116.25 367 L 146.63 376.06 L 146.63 444.22 L 110.89 452.52 Z" fill="#abb4c5" stroke="none" pointer-events="all"/><path d="M 80 375.8 L 116.25 367 L 146.63 376.06 L 110.89 384.61 Z" fill="#b8bfd1" stroke="none" pointer-events="all"/><path d="M 110.89 384.61 L 146.63 376.06 L 146.63 444.22 L 110.89 452.52 Z" fill="#5b6369" stroke="none" pointer-events="all"/><path d="M 111.25 421.68 C 104.59 419.16 98.23 415.96 92.25 412.13 C 89.38 410.17 86.95 407.65 85.11 404.73 C 83.84 402.45 83.18 399.89 83.22 397.29 C 83.11 394.48 83.16 391.68 83.37 388.88 C 83.52 386.39 83.79 383.91 84.19 381.44 C 84.56 380.08 85.13 378.77 85.87 377.56 C 87.42 376.53 89.18 375.69 91.08 375.05 C 94.31 373.96 97.6 373.04 100.93 372.28 C 104.4 371.37 107.94 370.7 111.5 370.27 C 113.92 369.97 116.37 369.89 118.8 370.02 C 122.77 370.3 126.67 371.14 130.39 372.53 L 142.49 376.91 C 143.55 378.65 144.25 380.58 144.54 382.6 C 144.87 385.3 145.06 388.02 145.1 390.75 C 145.29 396.75 145.12 402.77 144.59 408.76 C 144.52 411.4 143.61 413.95 141.98 416.05 C 139.62 418.62 136.43 420.31 132.95 420.83 C 130.16 421.26 127.34 421.46 124.52 421.43 Z" fill-opacity="0.4" fill="#ffffff" stroke="none" pointer-events="all"/><rect x="80" y="367" width="0" height="0" fill="none" stroke="none" pointer-events="all"/><path d="M 83.57 386.12 L 83.57 384.36 L 106.8 391.4 L 106.8 393.16 Z M 87.4 439.44 L 87.4 437.68 L 101.7 441.71 L 101.7 443.47 Z" fill="#52595e" stroke="none" pointer-events="all"/><path d="M 80 443.22 L 80 375.8 L 116.25 367 L 146.63 376.06 L 146.63 444.22 L 110.89 452.52 Z" fill="none" stroke="#000000" stroke-miterlimit="10" pointer-events="all"/><path d="M 127.43 426.88 C 128.65 422.78 135.49 419.75 143.54 419.75 C 151.59 419.75 158.44 422.78 159.65 426.88 L 159.65 449.87 C 158.44 453.97 151.59 457 143.54 457 C 135.49 457 128.65 453.97 127.43 449.87 Z" fill="#9ea5b5" stroke="#000000" stroke-miterlimit="10" pointer-events="all"/><rect x="80" y="367" width="0" height="0" fill="none" stroke="none" pointer-events="all"/><ellipse cx="143.5" cy="427.42" rx="16.11079200970068" ry="7.591391839016209" fill="#b7bfd1" stroke="none" pointer-events="all"/><path d="M 128.62 448.05 L 128.72 430.53 C 132.04 433.89 139.81 435.66 147.31 434.78 C 154.81 433.89 160 430.59 159.72 426.88 L 159.65 444.76 C 159.49 446.71 157.94 448.45 155.58 449.32 C 153.63 449.94 151.14 450.1 148.88 449.75 C 146.62 449.41 144.87 448.6 144.19 447.59 C 143.18 446.5 141.16 445.73 138.79 445.52 C 136.41 445.3 133.97 445.67 132.25 446.51 Z" fill-opacity="0.4" fill="#ffffff" stroke="none" pointer-events="all"/><rect x="80" y="367" width="0" height="0" fill="none" stroke="none" pointer-events="all"/><path d="M 127.43 426.88 C 128.65 422.78 135.49 419.75 143.54 419.75 C 151.59 419.75 158.44 422.78 159.65 426.88 L 159.65 449.87 C 158.44 453.97 151.59 457 143.54 457 C 135.49 457 128.65 453.97 127.43 449.87 Z" fill="none" stroke="#000000" stroke-miterlimit="10" pointer-events="all"/><g transform="translate(-0.5 -0.5)"><switch><foreignObject pointer-events="none" width="100%" height="100%" requiredFeatures="http://www.w3.org/TR/SVG11/feature#Extensibility" style="overflow: visible; text-align: left;"><div xmlns="http://www.w3.org/1999/xhtml" style="display: flex; align-items: unsafe flex-start; justify-content: unsafe center; width: 1px; height: 1px; padding-top: 464px; margin-left: 120px;"><div style="box-sizing: border-box; font-size: 0px; text-align: center;"><div style="display: inline-block; font-size: 12px; font-family: Helvetica; color: rgb(0, 0, 0); line-height: 1.2; pointer-events: all; white-space: nowrap;">UCS@school<br />DC Primary<br />(LDAP)</div></div></div></foreignObject><text x="120" y="476" fill="#000000" font-family="Helvetica" font-size="12px" text-anchor="middle">UCS@school...</text></switch></g><path d="M 272.5 443.22 L 272.5 375.8 L 308.75 367 L 339.13 376.06 L 339.13 444.22 L 303.39 452.52 Z" fill="#abb4c5" stroke="none" pointer-events="all"/><path d="M 272.5 375.8 L 308.75 367 L 339.13 376.06 L 303.39 384.61 Z" fill="#b8bfd1" stroke="none" pointer-events="all"/><path d="M 303.39 384.61 L 339.13 376.06 L 339.13 444.22 L 303.39 452.52 Z" fill="#5b6369" stroke="none" pointer-events="all"/><path d="M 303.75 421.68 C 297.09 419.16 290.73 415.96 284.75 412.13 C 281.88 410.17 279.45 407.65 277.61 404.73 C 276.34 402.45 275.68 399.89 275.72 397.29 C 275.61 394.48 275.66 391.68 275.87 388.88 C 276.02 386.39 276.29 383.91 276.69 381.44 C 277.06 380.08 277.63 378.77 278.37 377.56 C 279.92 376.53 281.68 375.69 283.58 375.05 C 286.81 373.96 290.1 373.04 293.43 372.28 C 296.9 371.37 300.44 370.7 304 370.27 C 306.42 369.97 308.87 369.89 311.3 370.02 C 315.27 370.3 319.17 371.14 322.89 372.53 L 334.99 376.91 C 336.05 378.65 336.75 380.58 337.04 382.6 C 337.37 385.3 337.56 388.02 337.6 390.75 C 337.79 396.75 337.62 402.77 337.09 408.76 C 337.02 411.4 336.11 413.95 334.48 416.05 C 332.12 418.62 328.93 420.31 325.45 420.83 C 322.66 421.26 319.84 421.46 317.02 421.43 Z" fill-opacity="0.4" fill="#ffffff" stroke="none" pointer-events="all"/><rect x="272.5" y="367" width="0" height="0" fill="none" stroke="none" pointer-events="all"/><path d="M 276.07 386.12 L 276.07 384.36 L 299.3 391.4 L 299.3 393.16 Z M 279.9 439.44 L 279.9 437.68 L 294.2 441.71 L 294.2 443.47 Z" fill="#52595e" stroke="none" pointer-events="all"/><path d="M 272.5 443.22 L 272.5 375.8 L 308.75 367 L 339.13 376.06 L 339.13 444.22 L 303.39 452.52 Z" fill="none" stroke="#000000" stroke-miterlimit="10" pointer-events="all"/><path d="M 319.93 426.88 C 321.15 422.78 327.99 419.75 336.04 419.75 C 344.09 419.75 350.94 422.78 352.15 426.88 L 352.15 449.87 C 350.94 453.97 344.09 457 336.04 457 C 327.99 457 321.15 453.97 319.93 449.87 Z" fill="#9ea5b5" stroke="#000000" stroke-miterlimit="10" pointer-events="all"/><rect x="272.5" y="367" width="0" height="0" fill="none" stroke="none" pointer-events="all"/><ellipse cx="336" cy="427.42" rx="16.11079200970068" ry="7.591391839016209" fill="#b7bfd1" stroke="none" pointer-events="all"/><path d="M 321.12 448.05 L 321.22 430.53 C 324.54 433.89 332.31 435.66 339.81 434.78 C 347.31 433.89 352.5 430.59 352.22 426.88 L 352.15 444.76 C 351.99 446.71 350.44 448.45 348.08 449.32 C 346.13 449.94 343.64 450.1 341.38 449.75 C 339.12 449.41 337.37 448.6 336.69 447.59 C 335.68 446.5 333.66 445.73 331.29 445.52 C 328.91 445.3 326.47 445.67 324.75 446.51 Z" fill-opacity="0.4" fill="#ffffff" stroke="none" pointer-events="all"/><rect x="272.5" y="367" width="0" height="0" fill="none" stroke="none" pointer-events="all"/><path d="M 319.93 426.88 C 321.15 422.78 327.99 419.75 336.04 419.75 C 344.09 419.75 350.94 422.78 352.15 426.88 L 352.15 449.87 C 350.94 453.97 344.09 457 336.04 457 C 327.99 457 321.15 453.97 319.93 449.87 Z" fill="none" stroke="#000000" stroke-miterlimit="10" pointer-events="all"/><g transform="translate(-0.5 -0.5)"><switch><foreignObject pointer-events="none" width="100%" height="100%" requiredFeatures="http://www.w3.org/TR/SVG11/feature#Extensibility" style="overflow: visible; text-align: left;"><div xmlns="http://www.w3.org/1999/xhtml" style="display: flex; align-items: unsafe flex-start; justify-content: unsafe center; width: 1px; height: 1px; padding-top: 464px; margin-left: 313px;"><div style="box-sizing: border-box; font-size: 0px; text-align: center;"><div style="display: inline-block; font-size: 12px; font-family: Helvetica; color: rgb(0, 0, 0); line-height: 1.2; pointer-events: all; white-space: nowrap;">UCS@school<br />DC Primary<br />(LDAP)</div></div></div></foreignObject><text x="313" y="476" fill="#000000" font-family="Helvetica" font-size="12px" text-anchor="middle">UCS@school...</text></switch></g><path d="M 465 443.22 L 465 375.8 L 501.25 367 L 531.63 376.06 L 531.63 444.22 L 495.89 452.52 Z" fill="#abb4c5" stroke="none" pointer-events="all"/><path d="M 465 375.8 L 501.25 367 L 531.63 376.06 L 495.89 384.61 Z" fill="#b8bfd1" stroke="none" pointer-events="all"/><path d="M 495.89 384.61 L 531.63 376.06 L 531.63 444.22 L 495.89 452.52 Z" fill="#5b6369" stroke="none" pointer-events="all"/><path d="M 496.25 421.68 C 489.59 419.16 483.23 415.96 477.25 412.13 C 474.38 410.17 471.95 407.65 470.11 404.73 C 468.84 402.45 468.18 399.89 468.22 397.29 C 468.11 394.48 468.16 391.68 468.37 388.88 C 468.52 386.39 468.79 383.91 469.19 381.44 C 469.56 380.08 470.13 378.77 470.87 377.56 C 472.42 376.53 474.18 375.69 476.08 375.05 C 479.31 373.96 482.6 373.04 485.93 372.28 C 489.4 371.37 492.94 370.7 496.5 370.27 C 498.92 369.97 501.37 369.89 503.8 370.02 C 507.77 370.3 511.67 371.14 515.39 372.53 L 527.49 376.91 C 528.55 378.65 529.25 380.58 529.54 382.6 C 529.87 385.3 530.06 388.02 530.1 390.75 C 530.29 396.75 530.12 402.77 529.59 408.76 C 529.52 411.4 528.61 413.95 526.98 416.05 C 524.62 418.62 521.43 420.31 517.95 420.83 C 515.16 421.26 512.34 421.46 509.52 421.43 Z" fill-opacity="0.4" fill="#ffffff" stroke="none" pointer-events="all"/><rect x="465" y="367" width="0" height="0" fill="none" stroke="none" pointer-events="all"/><path d="M 468.57 386.12 L 468.57 384.36 L 491.8 391.4 L 491.8 393.16 Z M 472.4 439.44 L 472.4 437.68 L 486.7 441.71 L 486.7 443.47 Z" fill="#52595e" stroke="none" pointer-events="all"/><path d="M 465 443.22 L 465 375.8 L 501.25 367 L 531.63 376.06 L 531.63 444.22 L 495.89 452.52 Z" fill="none" stroke="#000000" stroke-miterlimit="10" pointer-events="all"/><path d="M 512.43 426.88 C 513.65 422.78 520.49 419.75 528.54 419.75 C 536.59 419.75 543.44 422.78 544.65 426.88 L 544.65 449.87 C 543.44 453.97 536.59 457 528.54 457 C 520.49 457 513.65 453.97 512.43 449.87 Z" fill="#9ea5b5" stroke="#000000" stroke-miterlimit="10" pointer-events="all"/><rect x="465" y="367" width="0" height="0" fill="none" stroke="none" pointer-events="all"/><ellipse cx="528.5" cy="427.42" rx="16.11079200970068" ry="7.591391839016209" fill="#b7bfd1" stroke="none" pointer-events="all"/><path d="M 513.62 448.05 L 513.72 430.53 C 517.04 433.89 524.81 435.66 532.31 434.78 C 539.81 433.89 545 430.59 544.72 426.88 L 544.65 444.76 C 544.49 446.71 542.94 448.45 540.58 449.32 C 538.63 449.94 536.14 450.1 533.88 449.75 C 531.62 449.41 529.87 448.6 529.19 447.59 C 528.18 446.5 526.16 445.73 523.79 445.52 C 521.41 445.3 518.97 445.67 517.25 446.51 Z" fill-opacity="0.4" fill="#ffffff" stroke="none" pointer-events="all"/><rect x="465" y="367" width="0" height="0" fill="none" stroke="none" pointer-events="all"/><path d="M 512.43 426.88 C 513.65 422.78 520.49 419.75 528.54 419.75 C 536.59 419.75 543.44 422.78 544.65 426.88 L 544.65 449.87 C 543.44 453.97 536.59 457 528.54 457 C 520.49 457 513.65 453.97 512.43 449.87 Z" fill="none" stroke="#000000" stroke-miterlimit="10" pointer-events="all"/><g transform="translate(-0.5 -0.5)"><switch><foreignObject pointer-events="none" width="100%" height="100%" requiredFeatures="http://www.w3.org/TR/SVG11/feature#Extensibility" style="overflow: visible; text-align: left;"><div xmlns="http://www.w3.org/1999/xhtml" style="display: flex; align-items: unsafe flex-start; justify-content: unsafe center; width: 1px; height: 1px; padding-top: 464px; margin-left: 505px;"><div style="box-sizing: border-box; font-size: 0px; text-align: center;"><div style="display: inline-block; font-size: 12px; font-family: Helvetica; color: rgb(0, 0, 0); line-height: 1.2; pointer-events: all; white-space: nowrap;">UCS@school<br />DC Primary<br />(LDAP)</div></div></div></foreignObject><text x="505" y="476" fill="#000000" font-family="Helvetica" font-size="12px" text-anchor="middle">UCS@school...</text></switch></g><path d="M 312.5 174 L 312.5 360.63" fill="none" stroke="#000000" stroke-miterlimit="10" pointer-events="stroke"/><path d="M 312.5 365.88 L 309 358.88 L 312.5 360.63 L 316 358.88 Z" fill="#000000" stroke="#000000" stroke-miterlimit="10" pointer-events="all"/><g transform="translate(-0.5 -0.5)"><switch><foreignObject pointer-events="none" width="100%" height="100%" requiredFeatures="http://www.w3.org/TR/SVG11/feature#Extensibility" style="overflow: visible; text-align: left;"><div xmlns="http://www.w3.org/1999/xhtml" style="display: flex; align-items: unsafe center; justify-content: unsafe center; width: 1px; height: 1px; padding-top: 338px; margin-left: 311px;"><div style="box-sizing: border-box; font-size: 0px; text-align: center;"><div style="display: inline-block; font-size: 12px; font-family: Helvetica; color: rgb(0, 0, 0); line-height: 1.2; pointer-events: all; background-color: rgb(255, 255, 255); white-space: nowrap;">HTTP-API (Kelvin)</div></div></div></foreignObject><text x="311" y="341" fill="#000000" font-family="Helvetica" font-size="12px" text-anchor="middle">HTTP-API (Kelvin)</text></switch></g><path d="M 283.33 174 L 154.49 361.75" fill="none" stroke="#000000" stroke-miterlimit="10" pointer-events="stroke"/><path d="M 151.51 366.08 L 152.59 358.33 L 154.49 361.75 L 158.36 362.29 Z" fill="#000000" stroke="#000000" stroke-miterlimit="10" pointer-events="all"/><g transform="translate(-0.5 -0.5)"><switch><foreignObject pointer-events="none" width="100%" height="100%" requiredFeatures="http://www.w3.org/TR/SVG11/feature#Extensibility" style="overflow: visible; text-align: left;"><div xmlns="http://www.w3.org/1999/xhtml" style="display: flex; align-items: unsafe center; justify-content: unsafe center; width: 1px; height: 1px; padding-top: 337px; margin-left: 170px;"><div style="box-sizing: border-box; font-size: 0px; text-align: center;"><div style="display: inline-block; font-size: 12px; font-family: Helvetica; color: rgb(0, 0, 0); line-height: 1.2; pointer-events: all; background-color: rgb(255, 255, 255); white-space: nowrap;">HTTP-API (Kelvin)</div></div></div></foreignObject><text x="170" y="341" fill="#000000" font-family="Helvetica" font-size="12px" text-anchor="middle">HTTP-API (Kelvin)</text></switch></g><path d="M 341.67 174 L 470.51 361.75" fill="none" stroke="#000000" stroke-miterlimit="10" pointer-events="stroke"/><path d="M 473.49 366.08 L 466.64 362.29 L 470.51 361.75 L 472.41 358.33 Z" fill="#000000" stroke="#000000" stroke-miterlimit="10" pointer-events="all"/><g transform="translate(-0.5 -0.5)"><switch><foreignObject pointer-events="none" width="100%" height="100%" requiredFeatures="http://www.w3.org/TR/SVG11/feature#Extensibility" style="overflow: visible; text-align: left;"><div xmlns="http://www.w3.org/1999/xhtml" style="display: flex; align-items: unsafe center; justify-content: unsafe center; width: 1px; height: 1px; padding-top: 337px; margin-left: 460px;"><div style="box-sizing: border-box; font-size: 0px; text-align: center;"><div style="display: inline-block; font-size: 12px; font-family: Helvetica; color: rgb(0, 0, 0); line-height: 1.2; pointer-events: all; background-color: rgb(255, 255, 255); white-space: nowrap;">HTTP-API (Kelvin)</div></div></div></foreignObject><text x="460" y="341" fill="#000000" font-family="Helvetica" font-size="12px" text-anchor="middle">HTTP-API (Kelvin)</text></switch></g><path d="M 504.5 131.5 L 351.37 131.5" fill="none" stroke="#000000" stroke-miterlimit="10" pointer-events="stroke"/><path d="M 346.12 131.5 L 353.12 128 L 351.37 131.5 L 353.12 135 Z" fill="#000000" stroke="#000000" stroke-miterlimit="10" pointer-events="all"/><g transform="translate(-0.5 -0.5)"><switch><foreignObject pointer-events="none" width="100%" height="100%" requiredFeatures="http://www.w3.org/TR/SVG11/feature#Extensibility" style="overflow: visible; text-align: left;"><div xmlns="http://www.w3.org/1999/xhtml" style="display: flex; align-items: unsafe flex-start; justify-content: unsafe center; width: 1px; height: 1px; padding-top: 139px; margin-left: 425px;"><div style="box-sizing: border-box; font-size: 0px; text-align: center;"><div style="display: inline-block; font-size: 11px; font-family: Helvetica; color: rgb(0, 0, 0); line-height: 1.2; pointer-events: all; background-color: rgb(255, 255, 255); white-space: nowrap;">configure<br />and<br />monitor</div></div></div></foreignObject><text x="425" y="150" fill="#000000" font-family="Helvetica" font-size="11px" text-anchor="middle">configure...</text></switch></g><path d="M 58.08 105.31 C 60.6 96.51 74.88 90 91.68 90 C 108.47 90 122.75 96.51 125.27 105.31 L 125.27 154.69 C 122.75 163.49 108.47 170 91.68 170 C 74.88 170 60.6 163.49 58.08 154.69 Z" fill="#9ea5b5" stroke="#000000" stroke-miterlimit="10" pointer-events="all"/><rect x="58" y="90" width="0" height="0" fill="none" stroke="none" pointer-events="all"/><ellipse cx="91.6" cy="106.49" rx="33.598364379827345" ry="16.300940438871475" fill="#b7bfd1" stroke="none" pointer-events="all"/><path d="M 60.55 150.77 L 60.78 113.15 C 67.71 120.36 83.89 124.17 99.54 122.27 C 115.18 120.38 126 113.3 125.43 105.31 L 125.27 143.71 C 124.94 147.9 121.7 151.63 116.78 153.51 C 112.72 154.83 107.52 155.17 102.81 154.43 C 98.1 153.7 94.46 151.97 93.03 149.79 C 90.93 147.46 86.72 145.8 81.76 145.34 C 76.8 144.88 71.7 145.68 68.12 147.48 Z" fill-opacity="0.4" fill="#ffffff" stroke="none" pointer-events="all"/><rect x="58" y="90" width="0" height="0" fill="none" stroke="none" pointer-events="all"/><path d="M 58.08 105.31 C 60.6 96.51 74.88 90 91.68 90 C 108.47 90 122.75 96.51 125.27 105.31 L 125.27 154.69 C 122.75 163.49 108.47 170 91.68 170 C 74.88 170 60.6 163.49 58.08 154.69 Z" fill="none" stroke="#000000" stroke-miterlimit="10" pointer-events="all"/><g transform="translate(-0.5 -0.5)"><switch><foreignObject pointer-events="none" width="100%" height="100%" requiredFeatures="http://www.w3.org/TR/SVG11/feature#Extensibility" style="overflow: visible; text-align: left;"><div xmlns="http://www.w3.org/1999/xhtml" style="display: flex; align-items: unsafe flex-end; justify-content: unsafe center; width: 1px; height: 1px; padding-top: 87px; margin-left: 92px;"><div style="box-sizing: border-box; font-size: 0px; text-align: center;"><div style="display: inline-block; font-size: 12px; font-family: Helvetica; color: rgb(0, 0, 0); line-height: 1.2; pointer-events: all; white-space: nowrap;">UCS<br />DC Primary<br />(LDAP)</div></div></div></foreignObject><text x="92" y="87" fill="#000000" font-family="Helvetica" font-size="12px" text-anchor="middle">UCS...</text></switch></g><path d="M 504.5 148.75 L 504.5 98.5 L 509.25 97 L 566 113.75 L 566 164.75 L 561.25 166 Z" fill="#eaecf0" stroke="none" pointer-events="all"/><path d="M 504.5 98.5 L 509.25 97 L 566 113.75 L 561.25 115 Z" fill="#ffffff" stroke="none" pointer-events="all"/><path d="M 561.25 115 L 566 113.75 L 566 164.75 L 561.25 166 Z" fill="#959fb0" stroke="none" pointer-events="all"/><path d="M 549.75 127.25 L 558.5 129.5 L 558.5 130.25 L 549.75 128 Z" fill="#3a3736" stroke="none" pointer-events="all"/><path d="M 545.25 127.5 L 545.25 124.75 L 548 125.5 L 548 128.25 Z" fill="#f9b75b" stroke="none" pointer-events="all"/><path d="M 519.5 147.75 C 516.8 145.49 514.49 142.32 512.75 138.5 C 511.18 134.69 510.42 130.43 510.55 126.15 C 510.61 123.11 511.16 120.11 512.15 117.35 C 513.22 115.02 514.52 113.03 516 111.45 C 517.42 110.18 519.12 109.26 520.95 108.75 C 523.63 108.47 526.33 109.07 528.65 110.45 C 530.2 111.39 531.62 112.67 532.85 114.25 C 534.61 116.52 536.1 119.33 537.25 122.55 C 538.21 125.52 538.75 128.73 538.85 132 C 538.87 133.68 538.75 135.35 538.5 137 C 538.09 140.02 537 142.87 535.35 145.25 C 533.74 147.69 531.54 149.48 529.05 150.35 C 525.59 151.11 521.96 150.12 519.5 147.75 Z" fill="#008dcf" stroke="none" pointer-events="all"/><path d="M 532.85 114.25 C 534.61 116.52 536.1 119.33 537.25 122.55 C 538.21 125.52 538.75 128.73 538.85 132 C 538.87 133.68 538.75 135.35 538.5 137 L 524 131.25 Z" fill="#aece49" stroke="none" pointer-events="all"/><path d="M 520.95 108.75 C 523.63 108.47 526.33 109.07 528.65 110.45 C 530.2 111.39 531.62 112.67 532.85 114.25 L 524 131.25 Z" fill="#f9b75b" stroke="none" pointer-events="all"/><path d="M 512.15 117.35 C 513.22 115.02 514.52 113.03 516 111.45 C 517.42 110.18 519.12 109.26 520.95 108.75 L 524 131.25 Z" fill="#cf5395" stroke="none" pointer-events="all"/><path d="M 545.25 132.28 L 545.25 129.53 L 548 130.28 L 548 133.03 Z" fill="#aece49" stroke="none" pointer-events="all"/><path d="M 545.25 137.22 L 545.25 134.47 L 548 135.22 L 548 137.97 Z" fill="#008dcf" stroke="none" pointer-events="all"/><path d="M 545.25 142.11 L 545.25 139.36 L 548 140.11 L 548 142.86 Z" fill="#cf5395" stroke="none" pointer-events="all"/><path d="M 549.75 131.97 L 558.5 134.22 L 558.5 134.97 L 549.75 132.72 Z M 549.75 136.75 L 558.5 139 L 558.5 139.75 L 549.75 137.5 Z M 549.75 141.59 L 558.5 143.84 L 558.5 144.59 L 549.75 142.34 Z" fill="#3a3736" stroke="none" pointer-events="all"/><path d="M 504.5 148.75 L 504.5 98.5 L 509.25 97 L 566 113.75 L 566 164.75 L 561.25 166 Z" fill="none" stroke="#000000" stroke-miterlimit="10" pointer-events="all"/><path d="M 519.5 147.75 C 516.8 145.49 514.49 142.32 512.75 138.5 C 511.18 134.69 510.42 130.43 510.55 126.15 C 510.61 123.11 511.16 120.11 512.15 117.35 C 513.2 114.93 514.51 112.92 516 111.45 C 517.41 110.1 519.12 109.18 520.95 108.75 C 523.63 108.51 526.32 109.1 528.65 110.45 C 530.2 111.39 531.62 112.67 532.85 114.25 C 534.61 116.52 536.1 119.33 537.25 122.55 C 538.21 125.52 538.75 128.73 538.85 132 C 538.87 133.68 538.75 135.35 538.5 137 C 538.09 140.02 537 142.87 535.35 145.25 C 533.74 147.69 531.54 149.48 529.05 150.35 C 525.59 151.11 521.96 150.12 519.5 147.75 Z" fill="none" stroke="#000000" stroke-miterlimit="10" pointer-events="all"/><g transform="translate(-0.5 -0.5)"><switch><foreignObject pointer-events="none" width="100%" height="100%" requiredFeatures="http://www.w3.org/TR/SVG11/feature#Extensibility" style="overflow: visible; text-align: left;"><div xmlns="http://www.w3.org/1999/xhtml" style="display: flex; align-items: unsafe flex-end; justify-content: unsafe center; width: 1px; height: 1px; padding-top: 94px; margin-left: 535px;"><div style="box-sizing: border-box; font-size: 0px; text-align: center;"><div style="display: inline-block; font-size: 12px; font-family: Helvetica; color: rgb(0, 0, 0); line-height: 1.2; pointer-events: all; white-space: nowrap;"><pre style="background-color: rgb(252 , 252 , 252) ; color: rgb(8 , 8 , 8)"><font face="Helvetica">UCS@school ID Connector<br /></font>HTTP API</pre></div></div></div></foreignObject><text x="535" y="94" fill="#000000" font-family="Helvetica" font-size="12px" text-anchor="middle">UCS@school...</text></switch></g></g><switch><g requiredFeatures="http://www.w3.org/TR/SVG11/feature#Extensibility"/><a transform="translate(0,-5)" xlink:href="https://www.diagrams.net/doc/faq/svg-export-text-problems" target="_blank"><text text-anchor="middle" font-size="10px" x="50%" y="100%">Viewer does not support full SVG 1.1</text></a></switch></svg>
