<?xml version="1.0" encoding="UTF-8" standalone="no"?>
<svg
   xmlns:dc="http://purl.org/dc/elements/1.1/"
   xmlns:cc="http://creativecommons.org/ns#"
   xmlns:rdf="http://www.w3.org/1999/02/22-rdf-syntax-ns#"
   xmlns:svg="http://www.w3.org/2000/svg"
   xmlns="http://www.w3.org/2000/svg"
   viewBox="0 0 606.71997 520"
   height="520"
   width="606.71997"
   xml:space="preserve"
   id="svg2"
   version="1.1"><metadata
     id="metadata8"><rdf:RDF><cc:Work
         rdf:about=""><dc:format>image/svg+xml</dc:format><dc:type
           rdf:resource="http://purl.org/dc/dcmitype/StillImage" /></cc:Work></rdf:RDF></metadata><defs
     id="defs6"><clipPath
       id="clipPath18"
       clipPathUnits="userSpaceOnUse"><path
         style="clip-rule:evenodd"
         id="path16"
         d="M 0,0 H 1895.8333 V 1623.2886 H 0 Z" /></clipPath><clipPath
       id="clipPath30"
       clipPathUnits="userSpaceOnUse"><path
         style="clip-rule:evenodd"
         id="path28"
         d="M 0,0 H 1895.8333 V 1614.3035 H 0 Z" /></clipPath></defs><g
     transform="matrix(0.31999998,0,0,0.31999998,0,1.3e-5)"
     id="g10"><g
       id="g12"><g
         clip-path="url(#clipPath18)"
         id="g14"><g
           transform="scale(2.9949973)"
           id="g20"><path
             id="path22"
             style="fill:#ffffff;fill-opacity:1;fill-rule:nonzero;stroke:none"
             d="M 0,0 H 633 V 542 H 0 Z" /></g></g></g><g
       id="g24"><g
         clip-path="url(#clipPath30)"
         id="g26"><g
           transform="matrix(2.9949973,0,0,2.9949973,1.4974986,1.4974986)"
           id="g32"><path
             id="path34"
             style="fill:#ffffff;fill-opacity:1;fill-rule:nonzero;stroke:none"
             d="m 34,17 h 564 c 1.08081,2e-6 2.159,0.05297 3.23456,0.158905 1.07562,0.105936 2.14343,0.264328 3.20343,0.47518 1.06,0.210851 2.10711,0.473144 3.14142,0.786882 1.03424,0.313738 2.05059,0.677406 3.04907,1.091005 0.99853,0.413601 1.97436,0.875142 2.92755,1.384623 0.95319,0.509481 1.87909,1.064451 2.77771,1.664906 0.89868,0.600454 1.76575,1.243505 2.6012,1.929153 0.83551,0.685646 1.63531,1.410585 2.39953,2.17482 0.76422,0.764236 1.48914,1.564085 2.17481,2.399546 0.68567,0.835462 1.32873,1.702516 1.92914,2.601158 0.60046,0.898649 1.15545,1.824556 1.66497,2.777731 0.50946,0.95317 0.97095,1.929016 1.38459,2.927536 0.41363,0.998523 0.77734,2.014908 1.09106,3.04916 0.31378,1.034252 0.57605,2.081386 0.78687,3.141411 0.21087,1.060024 0.36926,2.127834 0.47522,3.203422 C 630.94708,47.841026 631.00006,48.919212 631,50 v 154 c 6e-5,1.0808 -0.0529,2.15898 -0.15887,3.23456 -0.10596,1.07557 -0.26435,2.14338 -0.47522,3.2034 -0.21082,1.06001 -0.47309,2.10716 -0.78687,3.14142 -0.31372,1.03425 -0.67743,2.05062 -1.09106,3.04914 -0.41364,0.99852 -0.87513,1.97439 -1.38459,2.92756 -0.50952,0.95317 -1.06451,1.87907 -1.66497,2.77771 -0.60041,0.89865 -1.24347,1.7657 -1.92914,2.60116 -0.68567,0.83547 -1.41059,1.63532 -2.17481,2.39955 -0.76422,0.76424 -1.56402,1.48918 -2.39953,2.17484 -0.83545,0.68564 -1.70252,1.32867 -2.6012,1.92912 -0.89862,0.60047 -1.82452,1.15544 -2.77771,1.66492 -0.95319,0.50947 -1.92902,0.97102 -2.92755,1.38461 -0.99848,0.41361 -2.01483,0.77728 -3.04907,1.09102 -1.03431,0.31374 -2.08142,0.57603 -3.14142,0.78687 -1.06,0.21086 -2.12781,0.36926 -3.20343,0.4752 C 600.159,236.94702 599.08081,237 598,237 H 34 c -1.080791,0 -2.158979,-0.053 -3.234566,-0.15892 -1.075588,-0.10594 -2.143394,-0.26434 -3.203418,-0.4752 -1.060023,-0.21085 -2.107161,-0.47315 -3.141413,-0.78689 -1.034252,-0.31373 -2.050638,-0.67739 -3.04916,-1.09101 -0.99852,-0.41359 -1.974365,-0.87513 -2.927538,-1.38459 -0.953173,-0.50949 -1.87908,-1.06446 -2.777725,-1.66494 -0.898643,-0.60044 -1.765696,-1.24347 -2.601159,-1.92913 -0.835462,-0.68564 -1.635311,-1.41058 -2.399545,-2.17482 C 9.9012423,226.57027 9.176302,225.77042 8.4906549,224.93497 7.8050084,224.0995 7.1619577,223.23244 6.561502,222.33379 5.9610472,221.43515 5.4060788,220.50925 4.8965974,219.55608 4.3871164,218.60291 3.9255757,217.62704 3.511975,216.62852 3.0983744,215.63 2.7347057,214.61362 2.4209685,213.57936 2.1072316,212.5451 1.8449374,211.49797 1.6340857,210.43796 1.4232339,209.37794 1.26484,208.31013 1.1589041,207.23456 1.052968,206.15898 1,205.0808 1,204 V 50 C 1,48.919212 1.052968,47.841026 1.1589041,46.765438 1.26484,45.68985 1.4232337,44.62204 1.6340855,43.562016 1.8449373,42.501991 2.1072316,41.454857 2.4209685,40.420605 2.7347057,39.386353 3.0983744,38.369968 3.511975,37.371445 3.9255757,36.372925 4.3871169,35.397079 4.8965979,34.443909 5.4060788,33.490734 5.9610472,32.564827 6.561502,31.66618 7.1619577,30.767536 7.8050084,29.900484 8.4906549,29.065022 9.176302,28.229559 9.9012423,27.42971 10.665476,26.665474 c 0.764234,-0.764235 1.564083,-1.489174 2.399547,-2.17482 0.835461,-0.685648 1.702514,-1.328699 2.601159,-1.929153 0.898643,-0.600455 1.824552,-1.155425 2.777725,-1.664906 0.953172,-0.509481 1.929018,-0.971022 2.927538,-1.384623 0.99852,-0.413599 2.014906,-0.777267 3.049158,-1.091005 1.034252,-0.313738 2.08139,-0.576031 3.141413,-0.786882 1.060024,-0.210852 2.12783,-0.369244 3.203418,-0.47518 C 31.841021,17.052969 32.919209,17.000002 34,17 Z" /><path
             id="path36"
             style="fill:none;stroke:#000000;stroke-width:1;stroke-linecap:butt;stroke-linejoin:miter;stroke-miterlimit:10;stroke-dasharray:none;stroke-opacity:1"
             d="m 34,17 h 564 c 1.08081,2e-6 2.159,0.05297 3.23456,0.158905 1.07562,0.105936 2.14343,0.264328 3.20343,0.47518 1.06,0.210851 2.10711,0.473144 3.14142,0.786882 1.03424,0.313738 2.05059,0.677406 3.04907,1.091005 0.99853,0.413601 1.97436,0.875142 2.92755,1.384623 0.95319,0.509481 1.87909,1.064451 2.77771,1.664906 0.89868,0.600454 1.76575,1.243505 2.6012,1.929153 0.83551,0.685646 1.63531,1.410585 2.39953,2.17482 0.76422,0.764236 1.48914,1.564085 2.17481,2.399546 0.68567,0.835462 1.32873,1.702516 1.92914,2.601158 0.60046,0.898649 1.15545,1.824556 1.66497,2.777731 0.50946,0.95317 0.97095,1.929016 1.38459,2.927536 0.41363,0.998523 0.77734,2.014908 1.09106,3.04916 0.31378,1.034252 0.57605,2.081386 0.78687,3.141411 0.21087,1.060024 0.36926,2.127834 0.47522,3.203422 C 630.94708,47.841026 631.00006,48.919212 631,50 v 154 c 6e-5,1.0808 -0.0529,2.15898 -0.15887,3.23456 -0.10596,1.07557 -0.26435,2.14338 -0.47522,3.2034 -0.21082,1.06001 -0.47309,2.10716 -0.78687,3.14142 -0.31372,1.03425 -0.67743,2.05062 -1.09106,3.04914 -0.41364,0.99852 -0.87513,1.97439 -1.38459,2.92756 -0.50952,0.95317 -1.06451,1.87907 -1.66497,2.77771 -0.60041,0.89865 -1.24347,1.7657 -1.92914,2.60116 -0.68567,0.83547 -1.41059,1.63532 -2.17481,2.39955 -0.76422,0.76424 -1.56402,1.48918 -2.39953,2.17484 -0.83545,0.68564 -1.70252,1.32867 -2.6012,1.92912 -0.89862,0.60047 -1.82452,1.15544 -2.77771,1.66492 -0.95319,0.50947 -1.92902,0.97102 -2.92755,1.38461 -0.99848,0.41361 -2.01483,0.77728 -3.04907,1.09102 -1.03431,0.31374 -2.08142,0.57603 -3.14142,0.78687 -1.06,0.21086 -2.12781,0.36926 -3.20343,0.4752 C 600.159,236.94702 599.08081,237 598,237 H 34 c -1.080791,0 -2.158979,-0.053 -3.234566,-0.15892 -1.075588,-0.10594 -2.143394,-0.26434 -3.203418,-0.4752 -1.060023,-0.21085 -2.107161,-0.47315 -3.141413,-0.78689 -1.034252,-0.31373 -2.050638,-0.67739 -3.04916,-1.09101 -0.99852,-0.41359 -1.974365,-0.87513 -2.927538,-1.38459 -0.953173,-0.50949 -1.87908,-1.06446 -2.777725,-1.66494 -0.898643,-0.60044 -1.765696,-1.24347 -2.601159,-1.92913 -0.835462,-0.68564 -1.635311,-1.41058 -2.399545,-2.17482 C 9.9012423,226.57027 9.176302,225.77042 8.4906549,224.93497 7.8050084,224.0995 7.1619577,223.23244 6.561502,222.33379 5.9610472,221.43515 5.4060788,220.50925 4.8965974,219.55608 4.3871164,218.60291 3.9255757,217.62704 3.511975,216.62852 3.0983744,215.63 2.7347057,214.61362 2.4209685,213.57936 2.1072316,212.5451 1.8449374,211.49797 1.6340857,210.43796 1.4232339,209.37794 1.26484,208.31013 1.1589041,207.23456 1.052968,206.15898 1,205.0808 1,204 V 50 C 1,48.919212 1.052968,47.841026 1.1589041,46.765438 1.26484,45.68985 1.4232337,44.62204 1.6340855,43.562016 1.8449373,42.501991 2.1072316,41.454857 2.4209685,40.420605 2.7347057,39.386353 3.0983744,38.369968 3.511975,37.371445 3.9255757,36.372925 4.3871169,35.397079 4.8965979,34.443909 5.4060788,33.490734 5.9610472,32.564827 6.561502,31.66618 7.1619577,30.767536 7.8050084,29.900484 8.4906549,29.065022 9.176302,28.229559 9.9012423,27.42971 10.665476,26.665474 c 0.764234,-0.764235 1.564083,-1.489174 2.399547,-2.17482 0.835461,-0.685648 1.702514,-1.328699 2.601159,-1.929153 0.898643,-0.600455 1.824552,-1.155425 2.777725,-1.664906 0.953172,-0.509481 1.929018,-0.971022 2.927538,-1.384623 0.99852,-0.413599 2.014906,-0.777267 3.049158,-1.091005 1.034252,-0.313738 2.08139,-0.576031 3.141413,-0.786882 1.060024,-0.210852 2.12783,-0.369244 3.203418,-0.47518 C 31.841021,17.052969 32.919209,17.000002 34,17 Z" /></g><g
           transform="scale(2.9949973)"
           id="g38"><text
             id="text42"
             style="font-variant:normal;font-weight:normal;font-size:12px;font-family:Arial;-inkscape-font-specification:ArialMT;writing-mode:lr-tb;fill:#006600;fill-opacity:1;fill-rule:nonzero;stroke:none"
             transform="translate(287.96875,12)"><tspan
               id="tspan40"
               y="0"
               x="0 8.0039062 11.337891 18.011719 21.345703 28.019531 31.353516 34.019531 40.693359 46.693359 53.367188">State level</tspan></text>
</g><g
           transform="matrix(2.9949973,0,0,2.9949973,1.4974986,1.4974986)"
           id="g44"><path
             id="path46"
             style="fill:#ffffff;fill-opacity:1;fill-rule:nonzero;stroke:none"
             d="m 462,347 h 84 c 1.18188,0 2.35242,0.1153 3.5116,0.34586 1.15918,0.23056 2.28473,0.57199 3.37664,1.02429 1.09192,0.45227 2.12928,1.00671 3.112,1.66333 0.98267,0.65664 1.89191,1.40283 2.72767,2.23855 0.83575,0.83573 1.5819,1.74494 2.23846,2.72766 0.65662,0.9827 1.21106,2.02002 1.66333,3.11197 0.45227,1.09195 0.7937,2.2175 1.02435,3.37668 0.23059,1.15921 0.34589,2.32974 0.34595,3.51166 v 134 c -6e-5,1.18188 -0.11536,2.35242 -0.34595,3.51157 -0.23065,1.15921 -0.57208,2.28476 -1.02435,3.37667 -0.45227,1.09192 -1.00671,2.12925 -1.66327,3.11197 -0.65662,0.9827 -1.40277,1.89194 -2.23852,2.7277 -0.83576,0.83575 -1.745,1.5819 -2.72773,2.23852 -0.98272,0.65662 -2.02002,1.21106 -3.11194,1.66333 -1.09191,0.45233 -2.21746,0.79376 -3.37664,1.02435 C 548.35242,516.8847 547.18188,517 546,517 h -84 c -1.18188,0 -2.35242,-0.1153 -3.51163,-0.34583 -1.15918,-0.23065 -2.28473,-0.57208 -3.37668,-1.02435 -1.09195,-0.45233 -2.12927,-1.00677 -3.11196,-1.66339 -0.98276,-0.65662 -1.89197,-1.40277 -2.72767,-2.23852 -0.83575,-0.83576 -1.58194,-1.745 -2.23855,-2.72773 -0.65662,-0.98269 -1.21106,-2.02002 -1.66336,-3.11194 -0.4523,-1.09191 -0.79373,-2.21746 -1.02429,-3.37667 C 444.11526,501.35242 443.99997,500.18188 444,499 V 365 c -3e-5,-1.18192 0.11526,-2.35245 0.34583,-3.51166 0.23059,-1.15918 0.57202,-2.28473 1.02432,-3.37668 0.4523,-1.09195 1.00674,-2.12927 1.66336,-3.112 0.65661,-0.98269 1.4028,-1.8919 2.23855,-2.72763 0.8357,-0.83572 1.74491,-1.58191 2.72767,-2.23855 0.98269,-0.65662 2.01998,-1.21106 3.11193,-1.66333 1.09195,-0.4523 2.2175,-0.79373 3.37668,-1.02429 C 459.64755,347.1153 460.81812,347 462,347 Z" /><path
             id="path48"
             style="fill:none;stroke:#000000;stroke-width:1;stroke-linecap:butt;stroke-linejoin:miter;stroke-miterlimit:10;stroke-dasharray:none;stroke-opacity:1"
             d="m 462,347 h 84 c 1.18188,0 2.35242,0.1153 3.5116,0.34586 1.15918,0.23056 2.28473,0.57199 3.37664,1.02429 1.09192,0.45227 2.12928,1.00671 3.112,1.66333 0.98267,0.65664 1.89191,1.40283 2.72767,2.23855 0.83575,0.83573 1.5819,1.74494 2.23846,2.72766 0.65662,0.9827 1.21106,2.02002 1.66333,3.11197 0.45227,1.09195 0.7937,2.2175 1.02435,3.37668 0.23059,1.15921 0.34589,2.32974 0.34595,3.51166 v 134 c -6e-5,1.18188 -0.11536,2.35242 -0.34595,3.51157 -0.23065,1.15921 -0.57208,2.28476 -1.02435,3.37667 -0.45227,1.09192 -1.00671,2.12925 -1.66327,3.11197 -0.65662,0.9827 -1.40277,1.89194 -2.23852,2.7277 -0.83576,0.83575 -1.745,1.5819 -2.72773,2.23852 -0.98272,0.65662 -2.02002,1.21106 -3.11194,1.66333 -1.09191,0.45233 -2.21746,0.79376 -3.37664,1.02435 C 548.35242,516.8847 547.18188,517 546,517 h -84 c -1.18188,0 -2.35242,-0.1153 -3.51163,-0.34583 -1.15918,-0.23065 -2.28473,-0.57208 -3.37668,-1.02435 -1.09195,-0.45233 -2.12927,-1.00677 -3.11196,-1.66339 -0.98276,-0.65662 -1.89197,-1.40277 -2.72767,-2.23852 -0.83575,-0.83576 -1.58194,-1.745 -2.23855,-2.72773 -0.65662,-0.98269 -1.21106,-2.02002 -1.66336,-3.11194 -0.4523,-1.09191 -0.79373,-2.21746 -1.02429,-3.37667 C 444.11526,501.35242 443.99997,500.18188 444,499 V 365 c -3e-5,-1.18192 0.11526,-2.35245 0.34583,-3.51166 0.23059,-1.15918 0.57202,-2.28473 1.02432,-3.37668 0.4523,-1.09195 1.00674,-2.12927 1.66336,-3.112 0.65661,-0.98269 1.4028,-1.8919 2.23855,-2.72763 0.8357,-0.83572 1.74491,-1.58191 2.72767,-2.23855 0.98269,-0.65662 2.01998,-1.21106 3.11193,-1.66333 1.09195,-0.4523 2.2175,-0.79373 3.37668,-1.02429 C 459.64755,347.1153 460.81812,347 462,347 Z" /></g><g
           transform="scale(2.9949973)"
           id="g50"><text
             id="text54"
             style="font-variant:normal;font-weight:normal;font-size:12px;font-family:Arial;-inkscape-font-specification:ArialMT;writing-mode:lr-tb;fill:#006600;fill-opacity:1;fill-rule:nonzero;stroke:none"
             transform="translate(454.96875,535)"><tspan
               id="tspan52"
               y="0"
               x="0 8.0039062 14.003906 20.677734 27.351562 34.025391 36.691406 40.025391 46.699219 53.373047 56.707031 63.380859 70.054688 74.050781 76.716797 80.050781 86.050781 89.384766">School authority C</tspan></text>
</g><g
           transform="matrix(2.9949973,0,0,2.9949973,1.4974986,1.4974986)"
           id="g56"><path
             id="path58"
             style="fill:#ffffff;fill-opacity:1;fill-rule:nonzero;stroke:none"
             d="m 269,347 h 84 c 1.18185,0 2.35239,0.1153 3.51157,0.34586 1.15921,0.23056 2.28476,0.57199 3.37667,1.02429 1.09195,0.45227 2.12928,1.00671 3.11197,1.66333 0.9827,0.65664 1.89194,1.40283 2.7277,2.23855 0.83572,0.83573 1.58187,1.74494 2.23852,2.72766 0.65662,0.9827 1.21106,2.02002 1.66336,3.11197 0.4523,1.09195 0.79373,2.2175 1.02429,3.37668 0.23059,1.15921 0.34589,2.32974 0.34592,3.51166 v 134 c -3e-5,1.18188 -0.11533,2.35242 -0.34592,3.51157 -0.23056,1.15921 -0.57199,2.28476 -1.02429,3.37667 -0.4523,1.09192 -1.00674,2.12925 -1.66336,3.11197 -0.65665,0.9827 -1.4028,1.89194 -2.23852,2.7277 -0.83576,0.83575 -1.745,1.5819 -2.7277,2.23852 -0.98269,0.65662 -2.02002,1.21106 -3.11197,1.66333 -1.09191,0.45233 -2.21746,0.79376 -3.37664,1.02435 C 355.35239,516.8847 354.18185,517 353,517 h -84 c -1.18192,0 -2.35245,-0.1153 -3.51166,-0.34583 -1.15918,-0.23065 -2.28473,-0.57208 -3.37668,-1.02435 -1.09192,-0.45233 -2.12924,-1.00677 -3.11193,-1.66339 -0.98273,-0.65662 -1.89194,-1.40277 -2.72767,-2.23852 -0.83573,-0.83576 -1.58192,-1.745 -2.23855,-2.72773 -0.65662,-0.98269 -1.21108,-2.02002 -1.66338,-3.11194 -0.45228,-1.09191 -0.79371,-2.21746 -1.02429,-3.37667 C 251.11526,501.35242 250.99998,500.18188 251,499 V 365 c -2e-5,-1.18192 0.11525,-2.35245 0.34583,-3.51166 0.23057,-1.15918 0.57202,-2.28473 1.0243,-3.37668 0.4523,-1.09195 1.00676,-2.12927 1.66338,-3.112 0.65663,-0.98269 1.40282,-1.8919 2.23855,-2.72763 0.83573,-0.83572 1.74494,-1.58191 2.72767,-2.23855 0.98269,-0.65662 2.02001,-1.21106 3.11193,-1.66333 1.09195,-0.4523 2.2175,-0.79373 3.37668,-1.02429 C 266.64755,347.1153 267.81808,347 269,347 Z" /><path
             id="path60"
             style="fill:none;stroke:#000000;stroke-width:1;stroke-linecap:butt;stroke-linejoin:miter;stroke-miterlimit:10;stroke-dasharray:none;stroke-opacity:1"
             d="m 269,347 h 84 c 1.18185,0 2.35239,0.1153 3.51157,0.34586 1.15921,0.23056 2.28476,0.57199 3.37667,1.02429 1.09195,0.45227 2.12928,1.00671 3.11197,1.66333 0.9827,0.65664 1.89194,1.40283 2.7277,2.23855 0.83572,0.83573 1.58187,1.74494 2.23852,2.72766 0.65662,0.9827 1.21106,2.02002 1.66336,3.11197 0.4523,1.09195 0.79373,2.2175 1.02429,3.37668 0.23059,1.15921 0.34589,2.32974 0.34592,3.51166 v 134 c -3e-5,1.18188 -0.11533,2.35242 -0.34592,3.51157 -0.23056,1.15921 -0.57199,2.28476 -1.02429,3.37667 -0.4523,1.09192 -1.00674,2.12925 -1.66336,3.11197 -0.65665,0.9827 -1.4028,1.89194 -2.23852,2.7277 -0.83576,0.83575 -1.745,1.5819 -2.7277,2.23852 -0.98269,0.65662 -2.02002,1.21106 -3.11197,1.66333 -1.09191,0.45233 -2.21746,0.79376 -3.37664,1.02435 C 355.35239,516.8847 354.18185,517 353,517 h -84 c -1.18192,0 -2.35245,-0.1153 -3.51166,-0.34583 -1.15918,-0.23065 -2.28473,-0.57208 -3.37668,-1.02435 -1.09192,-0.45233 -2.12924,-1.00677 -3.11193,-1.66339 -0.98273,-0.65662 -1.89194,-1.40277 -2.72767,-2.23852 -0.83573,-0.83576 -1.58192,-1.745 -2.23855,-2.72773 -0.65662,-0.98269 -1.21108,-2.02002 -1.66338,-3.11194 -0.45228,-1.09191 -0.79371,-2.21746 -1.02429,-3.37667 C 251.11526,501.35242 250.99998,500.18188 251,499 V 365 c -2e-5,-1.18192 0.11525,-2.35245 0.34583,-3.51166 0.23057,-1.15918 0.57202,-2.28473 1.0243,-3.37668 0.4523,-1.09195 1.00676,-2.12927 1.66338,-3.112 0.65663,-0.98269 1.40282,-1.8919 2.23855,-2.72763 0.83573,-0.83572 1.74494,-1.58191 2.72767,-2.23855 0.98269,-0.65662 2.02001,-1.21106 3.11193,-1.66333 1.09195,-0.4523 2.2175,-0.79373 3.37668,-1.02429 C 266.64755,347.1153 267.81808,347 269,347 Z" /></g><g
           transform="scale(2.9949973)"
           id="g62"><text
             id="text66"
             style="font-variant:normal;font-weight:normal;font-size:12px;font-family:Arial;-inkscape-font-specification:ArialMT;writing-mode:lr-tb;fill:#006600;fill-opacity:1;fill-rule:nonzero;stroke:none"
             transform="translate(262.29688,535)"><tspan
               id="tspan64"
               y="0"
               x="0 8.0039062 14.003906 20.677734 27.351562 34.025391 36.691406 40.025391 46.699219 53.373047 56.707031 63.380859 70.054688 74.050781 76.716797 80.050781 86.050781 89.384766">School authority B</tspan></text>
</g><g
           transform="matrix(2.9949973,0,0,2.9949973,1.4974986,1.4974986)"
           id="g68"><path
             id="path70"
             style="fill:#ffffff;fill-opacity:1;fill-rule:nonzero;stroke:none"
             d="m 77,347 h 84 c 1.18188,0 2.35242,0.1153 3.51161,0.34586 1.1592,0.23056 2.28475,0.57199 3.37667,1.02429 1.09193,0.45227 2.12925,1.00671 3.11196,1.66333 0.98272,0.65664 1.89193,1.40283 2.72767,2.23855 0.83572,0.83573 1.58189,1.74494 2.23852,2.72766 0.65663,0.9827 1.21109,2.02002 1.66339,3.11197 0.45229,1.09195 0.79373,2.2175 1.02431,3.37668 0.23057,1.15921 0.34585,2.32974 0.34587,3.51166 v 134 c -2e-5,1.18188 -0.11531,2.35242 -0.34589,3.51157 -0.23057,1.15921 -0.572,2.28476 -1.02429,3.37667 -0.4523,1.09192 -1.00676,2.12925 -1.66339,3.11197 -0.65663,0.9827 -1.4028,1.89194 -2.23852,2.7277 -0.83574,0.83575 -1.74495,1.5819 -2.72767,2.23852 -0.98271,0.65662 -2.02003,1.21106 -3.11196,1.66333 -1.09192,0.45233 -2.21747,0.79376 -3.37667,1.02435 C 163.35242,516.8847 162.18188,517 161,517 H 77 c -1.1819,0 -2.352448,-0.1153 -3.511635,-0.34583 -1.159187,-0.23065 -2.284744,-0.57208 -3.376671,-1.02435 -1.091926,-0.45233 -2.129249,-1.00677 -3.111961,-1.66339 -0.982719,-0.65662 -1.891937,-1.40277 -2.727661,-2.23852 -0.835728,-0.83576 -1.581906,-1.745 -2.238533,-2.72773 -0.656628,-0.98269 -1.211086,-2.02002 -1.663376,-3.11194 -0.45229,-1.09191 -0.793724,-2.21746 -1.024303,-3.37667 C 59.115288,501.35242 59,500.18188 59,499 V 365 c 0,-1.18192 0.115288,-2.35245 0.345863,-3.51166 0.230576,-1.15918 0.57201,-2.28473 1.0243,-3.37668 0.45229,-1.09195 1.006748,-2.12927 1.663376,-3.112 0.656627,-0.98269 1.402805,-1.8919 2.238533,-2.72763 0.835724,-0.83572 1.744942,-1.58191 2.727661,-2.23855 0.982712,-0.65662 2.020035,-1.21106 3.111961,-1.66333 1.091927,-0.4523 2.217484,-0.79373 3.376671,-1.02429 C 74.647552,347.1153 75.8181,347 77,347 Z" /><path
             id="path72"
             style="fill:none;stroke:#000000;stroke-width:1;stroke-linecap:butt;stroke-linejoin:miter;stroke-miterlimit:10;stroke-dasharray:none;stroke-opacity:1"
             d="m 77,347 h 84 c 1.18188,0 2.35242,0.1153 3.51161,0.34586 1.1592,0.23056 2.28475,0.57199 3.37667,1.02429 1.09193,0.45227 2.12925,1.00671 3.11196,1.66333 0.98272,0.65664 1.89193,1.40283 2.72767,2.23855 0.83572,0.83573 1.58189,1.74494 2.23852,2.72766 0.65663,0.9827 1.21109,2.02002 1.66339,3.11197 0.45229,1.09195 0.79373,2.2175 1.02431,3.37668 0.23057,1.15921 0.34585,2.32974 0.34587,3.51166 v 134 c -2e-5,1.18188 -0.11531,2.35242 -0.34589,3.51157 -0.23057,1.15921 -0.572,2.28476 -1.02429,3.37667 -0.4523,1.09192 -1.00676,2.12925 -1.66339,3.11197 -0.65663,0.9827 -1.4028,1.89194 -2.23852,2.7277 -0.83574,0.83575 -1.74495,1.5819 -2.72767,2.23852 -0.98271,0.65662 -2.02003,1.21106 -3.11196,1.66333 -1.09192,0.45233 -2.21747,0.79376 -3.37667,1.02435 C 163.35242,516.8847 162.18188,517 161,517 H 77 c -1.1819,0 -2.352448,-0.1153 -3.511635,-0.34583 -1.159187,-0.23065 -2.284744,-0.57208 -3.376671,-1.02435 -1.091926,-0.45233 -2.129249,-1.00677 -3.111961,-1.66339 -0.982719,-0.65662 -1.891937,-1.40277 -2.727661,-2.23852 -0.835728,-0.83576 -1.581906,-1.745 -2.238533,-2.72773 -0.656628,-0.98269 -1.211086,-2.02002 -1.663376,-3.11194 -0.45229,-1.09191 -0.793724,-2.21746 -1.024303,-3.37667 C 59.115288,501.35242 59,500.18188 59,499 V 365 c 0,-1.18192 0.115288,-2.35245 0.345863,-3.51166 0.230576,-1.15918 0.57201,-2.28473 1.0243,-3.37668 0.45229,-1.09195 1.006748,-2.12927 1.663376,-3.112 0.656627,-0.98269 1.402805,-1.8919 2.238533,-2.72763 0.835724,-0.83572 1.744942,-1.58191 2.727661,-2.23855 0.982712,-0.65662 2.020035,-1.21106 3.111961,-1.66333 1.091927,-0.4523 2.217484,-0.79373 3.376671,-1.02429 C 74.647552,347.1153 75.8181,347 77,347 Z" /></g><g
           transform="scale(2.9949973)"
           id="g74"><text
             id="text78"
             style="font-variant:normal;font-weight:normal;font-size:12px;font-family:Arial;-inkscape-font-specification:ArialMT;writing-mode:lr-tb;fill:#006600;fill-opacity:1;fill-rule:nonzero;stroke:none"
             transform="translate(70.296875,535)"><tspan
               id="tspan76"
               y="0"
               x="0 8.0039062 14.003906 20.677734 27.351562 34.025391 36.691406 40.025391 46.699219 53.373047 56.707031 63.380859 70.054688 74.050781 76.716797 80.050781 86.050781 89.384766">School authority A</tspan></text>
</g><g
           transform="matrix(2.9949973,0,0,2.9949973,1.4974986,1.4974986)"
           id="g80"><path
             id="path82"
             style="fill:none;stroke:#000000;stroke-width:1;stroke-linecap:butt;stroke-linejoin:miter;stroke-miterlimit:10;stroke-dasharray:none;stroke-opacity:1"
             d="m 127,130.23 147.63,1.01" /><path
             id="path84"
             style="fill:#000000;fill-opacity:1;fill-rule:nonzero;stroke:none"
             d="m 279.88,131.27 -7.02001,3.45 1.77001,-3.48 -1.72,-3.52 z" /><path
             id="path86"
             style="fill:none;stroke:#000000;stroke-width:1;stroke-linecap:butt;stroke-linejoin:miter;stroke-miterlimit:10;stroke-dasharray:none;stroke-opacity:1"
             d="m 279.88,131.27 -7.02001,3.45 1.77001,-3.48 -1.72,-3.52 z" /></g><g
           transform="scale(2.9949973)"
           id="g88"><path
             id="path90"
             style="fill:#ffffff;fill-opacity:1;fill-rule:nonzero;stroke:none"
             d="m 176,134 h 53 v 28 h -53 z" /><text
             id="text94"
             style="font-variant:normal;font-weight:normal;font-size:12px;font-family:Arial;-inkscape-font-specification:ArialMT;writing-mode:lr-tb;fill:#000000;fill-opacity:1;fill-rule:nonzero;stroke:none"
             transform="translate(175.8125,145)"><tspan
               id="tspan92"
               y="0"
               x="0 6.6738281 13.347656 20.021484 26.021484 32.695312 39.369141 42.703125 49.376953">appcenter</tspan></text>
<text
             id="text98"
             style="font-variant:normal;font-weight:normal;font-size:12px;font-family:Arial;-inkscape-font-specification:ArialMT;writing-mode:lr-tb;fill:#000000;fill-opacity:1;fill-rule:nonzero;stroke:none"
             transform="translate(183.15625,159)"><tspan
               id="tspan96"
               y="0"
               x="0 2.6660156 5.3320312 11.332031 14.666016 21.339844 28.013672 34.6875">listener</tspan></text>
</g><g
           transform="matrix(2.9949973,0,0,2.9949973,1.4974986,1.4974986)"
           id="g100"><path
             id="path102"
             style="fill:#abb4c5;fill-opacity:1;fill-rule:nonzero;stroke:none"
             d="m 281,164.75 v -67 L 316.35999,89 346,98 v 67.75 L 311.13,174 Z" /><path
             id="path104"
             style="fill:#b8bfd1;fill-opacity:1;fill-rule:nonzero;stroke:none"
             d="M 281,97.75 316.35999,89 346,98 l -34.87,8.5 z" /><path
             id="path106"
             style="fill:#5b6369;fill-opacity:1;fill-rule:nonzero;stroke:none"
             d="M 311.13,106.5 346,98 v 67.75 L 311.13,174 Z" /><path
             id="path108"
             style="fill:#ffffff;fill-opacity:0.4;fill-rule:nonzero;stroke:none"
             d="m 311.48001,143.35001 c -6.49002,-2.51001 -12.70001,-5.69001 -18.53,-9.5 -2.80002,-1.95002 -5.17001,-4.45002 -6.97,-7.35001 -1.24002,-2.27 -1.87002,-4.82 -1.84,-7.4 -0.11001,-2.78 -0.06,-5.57 0.15,-8.35 0.13998,-2.48 0.41,-4.95 0.78998,-7.4 0.37002,-1.35 0.92001,-2.65 1.65002,-3.85 1.50998,-1.019997 3.22998,-1.870003 5.07999,-2.5 3.14999,-1.080002 6.36001,-2 9.61001,-2.75 3.38999,-0.910004 6.82999,-1.580002 10.31,-2 2.35999,-0.300003 4.75,-0.379997 7.12,-0.25 3.86999,0.279999 7.67999,1.120003 11.30999,2.5 l 11.81,4.349998 C 343,100.58 343.67999,102.5 343.95999,104.5 c 0.33002,2.69 0.51001,5.39 0.55002,8.1 0.17999,5.97 0.02,11.95 -0.5,17.9 -0.07,2.61999 -0.96002,5.16 -2.54001,7.25 -2.31,2.55 -5.42001,4.23 -8.82001,4.75 -2.72,0.42999 -5.47,0.63 -8.22,0.60001 z" /><path
             id="path110"
             style="fill:#52595e;fill-opacity:1;fill-rule:nonzero;stroke:none"
             d="m 284.48999,108 v -1.75 l 22.66,7 V 115 Z m 3.73001,53 v -1.75 l 13.95001,4 V 165 Z" /><path
             id="path112"
             style="fill:none;stroke:#000000;stroke-width:1;stroke-linecap:butt;stroke-linejoin:miter;stroke-miterlimit:10;stroke-dasharray:none;stroke-opacity:1"
             d="m 281,164.75 v -67 L 316.35999,89 346,98 v 67.75 L 311.13,174 Z" /></g><g
           transform="scale(2.9949973)"
           id="g114"><text
             id="text118"
             style="font-variant:normal;font-weight:normal;font-size:12px;font-family:Arial;-inkscape-font-specification:ArialMT;writing-mode:lr-tb;fill:#000000;fill-opacity:1;fill-rule:nonzero;stroke:none"
             transform="translate(241.375,70)"><tspan
               id="tspan116"
               y="0"
               x="0 8.6660156 17.332031 25.335938 37.517578 43.517578 49.517578 56.191406 62.865234 69.539062 72.205078 75.539062 78.873047 87.539062 90.873047 99.539062 106.21289 112.88672 119.56055 126.23438 132.23438 135.56836 142.24219">UCS@school ID Connector</tspan></text>
<text
             id="text122"
             style="font-variant:normal;font-weight:normal;font-size:12px;font-family:Arial;-inkscape-font-specification:ArialMT;writing-mode:lr-tb;fill:#000000;fill-opacity:1;fill-rule:nonzero;stroke:none"
             transform="translate(269.14063,84)"><tspan
               id="tspan120"
               y="0"
               x="0 8.6660156 15.339844 21.339844 27.339844 34.013672 38.009766 41.34375 47.34375 54.017578 60.691406 64.025391 70.699219 73.365234 80.039062 86.712891">Docker container</tspan></text>
</g><g
           transform="matrix(2.9949973,0,0,2.9949973,1.4974986,1.4974986)"
           id="g124"><path
             id="path126"
             style="fill:#abb4c5;fill-opacity:1;fill-rule:nonzero;stroke:none"
             d="M 81,443.22 V 375.79999 L 117.25,367 l 30.38,9.06 v 68.16 l -35.74,8.29999 z" /><path
             id="path128"
             style="fill:#b8bfd1;fill-opacity:1;fill-rule:nonzero;stroke:none"
             d="M 81,375.79999 117.25,367 l 30.38,9.06 -35.74,8.54999 z" /><path
             id="path130"
             style="fill:#5b6369;fill-opacity:1;fill-rule:nonzero;stroke:none"
             d="M 111.89,384.60999 147.63,376.06 v 68.16 l -35.74,8.29999 z" /><path
             id="path132"
             style="fill:#ffffff;fill-opacity:0.4;fill-rule:nonzero;stroke:none"
             d="m 112.25,421.67999 c -6.66,-2.51999 -13.019997,-5.72 -19,-9.54999 -2.870003,-1.95999 -5.300003,-4.48001 -7.139999,-7.39999 -1.270005,-2.28 -1.930001,-4.84 -1.89,-7.44 -0.11,-2.81 -0.06,-5.61002 0.150002,-8.41001 0.149994,-2.48999 0.419998,-4.97 0.819999,-7.44 0.369996,-1.36001 0.939995,-2.67001 1.680001,-3.88 1.549995,-1.03 3.309997,-1.87 5.209999,-2.51001 3.229996,-1.09 6.519996,-2.00998 9.849998,-2.76999 3.47,-0.91 7.01,-1.57999 10.57,-2.01001 2.42,-0.29999 4.87,-0.37998 7.3,-0.25 3.97,0.28 7.87,1.12002 11.59,2.51001 l 12.1,4.38 c 1.06,1.73999 1.76,3.66999 2.04999,5.69001 0.33,2.69998 0.52001,5.41998 0.56002,8.14999 0.18998,6 0.02,12.01999 -0.51001,18.01001 -0.07,2.63998 -0.98,5.19 -2.61,7.28998 -2.36001,2.57001 -5.55001,4.26001 -9.03,4.78 -2.79,0.43002 -5.61,0.63 -8.43,0.6 z" /><path
             id="path134"
             style="fill:#52595e;fill-opacity:1;fill-rule:nonzero;stroke:none"
             d="m 84.57,386.12 v -1.76001 l 23.23,7.04 V 393.16 Z m 3.830002,53.32 v -1.76001 l 14.299998,4.03 V 443.47 Z" /><path
             id="path136"
             style="fill:none;stroke:#000000;stroke-width:1;stroke-linecap:butt;stroke-linejoin:miter;stroke-miterlimit:10;stroke-dasharray:none;stroke-opacity:1"
             d="M 81,443.22 V 375.79999 L 117.25,367 l 30.38,9.06 v 68.16 l -35.74,8.29999 z" /><path
             id="path138"
             style="fill:#9ea5b5;fill-opacity:1;fill-rule:nonzero;stroke:none"
             d="m 128.42999,426.88 c 1.22,-4.1 8.06001,-7.13 16.11,-7.13 8.05001,0 14.90001,3.03 16.11,7.13 v 22.99 c -1.20999,4.1 -8.05999,7.13 -16.11,7.13 -8.04999,0 -14.89,-3.03 -16.11,-7.13 z" /><path
             id="path140"
             style="fill:none;stroke:#000000;stroke-width:1;stroke-linecap:butt;stroke-linejoin:miter;stroke-miterlimit:10;stroke-dasharray:none;stroke-opacity:1"
             d="m 128.42999,426.88 c 1.22,-4.1 8.06001,-7.13 16.11,-7.13 8.05001,0 14.90001,3.03 16.11,7.13 v 22.99 c -1.20999,4.1 -8.05999,7.13 -16.11,7.13 -8.04999,0 -14.89,-3.03 -16.11,-7.13 z" /><path
             id="path142"
             style="fill:#b7bfd1;fill-opacity:1;fill-rule:nonzero;stroke:none"
             d="m 160.61079,427.41998 c -1e-5,0.49845 -0.10321,0.9921 -0.30958,1.48096 -0.20639,0.48886 -0.512,0.96356 -0.91681,1.42407 -0.40483,0.46054 -0.90109,0.89801 -1.4888,1.31244 -0.58771,0.41446 -1.25556,0.79791 -2.00356,1.15039 -0.74801,0.35245 -1.56181,0.66715 -2.44137,0.94409 -0.87956,0.27692 -1.80802,0.51075 -2.78536,0.70151 -0.97732,0.19077 -1.98475,0.33478 -3.02227,0.43201 -1.03753,0.0973 -2.08519,0.1459 -3.14304,0.14593 -1.05786,-3e-5 -2.10555,-0.0487 -3.14307,-0.14593 -1.03753,-0.0972 -2.04496,-0.24121 -3.02227,-0.43198 -0.97733,-0.19076 -1.90578,-0.42462 -2.78536,-0.70151 -0.87956,-0.27691 -1.69334,-0.59161 -2.44136,-0.94406 -0.74802,-0.35248 -1.41588,-0.73596 -2.00359,-1.15042 -0.58772,-0.41446 -1.08398,-0.85193 -1.48881,-1.31247 -0.40482,-0.46051 -0.7104,-0.93521 -0.91678,-1.42407 -0.20637,-0.48886 -0.30957,-0.98251 -0.30955,-1.48096 -2e-5,-0.49847 0.10318,-0.99215 0.30955,-1.48105 0.20638,-0.48889 0.51196,-0.96359 0.91679,-1.4241 0.40482,-0.46054 0.90108,-0.89801 1.4888,-1.31244 0.58771,-0.41446 1.25557,-0.79791 2.00359,-1.15036 0.74802,-0.35245 1.5618,-0.66717 2.44136,-0.94412 0.87958,-0.27689 1.80803,-0.51071 2.78536,-0.70148 0.97731,-0.19073 1.98474,-0.33471 3.02227,-0.43194 1.03752,-0.0973 2.08521,-0.14588 3.14307,-0.14588 1.05785,0 2.10551,0.0486 3.14304,0.14588 1.03752,0.0972 2.04495,0.24121 3.02227,0.43194 0.97733,0.19077 1.90578,0.42459 2.78536,0.70148 0.87956,0.27695 1.69334,0.59167 2.44136,0.94412 0.748,0.35245 1.41586,0.7359 2.00357,1.15036 0.58771,0.41443 1.08397,0.8519 1.4888,1.31244 0.40481,0.46051 0.71042,0.93521 0.91681,1.4241 0.20637,0.4889 0.30957,0.98258 0.30958,1.48105 z" /><path
             id="path144"
             style="fill:#ffffff;fill-opacity:0.4;fill-rule:nonzero;stroke:none"
             d="M 129.61999,448.04999 129.72,430.53 c 3.31999,3.36001 11.09,5.13 18.59,4.25 7.5,-0.88999 12.69,-4.19 12.41,-7.9 l -0.07,17.88001 c -0.15999,1.94998 -1.70999,3.69 -4.06999,4.56 -1.95,0.61999 -4.44,0.78 -6.7,0.42999 -2.26001,-0.34 -4.01001,-1.14999 -4.69,-2.16 -1.01001,-1.09 -3.03,-1.85999 -5.40001,-2.07001 -2.37999,-0.22 -4.81999,0.15002 -6.53999,0.99002 l -3.63001,1.53998 z" /><path
             id="path146"
             style="fill:none;stroke:#000000;stroke-width:1;stroke-linecap:butt;stroke-linejoin:miter;stroke-miterlimit:10;stroke-dasharray:none;stroke-opacity:1"
             d="m 128.42999,426.88 c 1.22,-4.1 8.06001,-7.13 16.11,-7.13 8.05001,0 14.90001,3.03 16.11,7.13 v 22.99 c -1.20999,4.1 -8.05999,7.13 -16.11,7.13 -8.04999,0 -14.89,-3.03 -16.11,-7.13 z" /></g><g
           transform="scale(2.9949973)"
           id="g148"><text
             id="text152"
             style="font-variant:normal;font-weight:normal;font-size:12px;font-family:Arial;-inkscape-font-specification:ArialMT;writing-mode:lr-tb;fill:#000000;fill-opacity:1;fill-rule:nonzero;stroke:none"
             transform="translate(85.390625,475)"><tspan
               id="tspan150"
               y="0"
               x="0 8.6660156 17.332031 25.335938 37.517578 43.517578 49.517578 56.191406 62.865234 69.539062">UCS@school</tspan></text>
<text
             id="text156"
             style="font-variant:normal;font-weight:normal;font-size:12px;font-family:Arial;-inkscape-font-specification:ArialMT;writing-mode:lr-tb;fill:#000000;fill-opacity:1;fill-rule:nonzero;stroke:none"
             transform="translate(101.82813,489)"><tspan
               id="tspan154"
               y="0"
               x="0 3.9960938 10.669922 19.335938 27.339844 35.34375">(LDAP)</tspan></text>
</g><g
           transform="matrix(2.9949973,0,0,2.9949973,1.4974986,1.4974986)"
           id="g158"><path
             id="path160"
             style="fill:#abb4c5;fill-opacity:1;fill-rule:nonzero;stroke:none"
             d="M 273.5,443.22 V 375.79999 L 309.75,367 l 30.38,9.06 v 68.16 l -35.73999,8.29999 z" /><path
             id="path162"
             style="fill:#b8bfd1;fill-opacity:1;fill-rule:nonzero;stroke:none"
             d="M 273.5,375.79999 309.75,367 l 30.38,9.06 -35.73999,8.54999 z" /><path
             id="path164"
             style="fill:#5b6369;fill-opacity:1;fill-rule:nonzero;stroke:none"
             d="M 304.39001,384.60999 340.13,376.06 v 68.16 l -35.73999,8.29999 z" /><path
             id="path166"
             style="fill:#ffffff;fill-opacity:0.4;fill-rule:nonzero;stroke:none"
             d="m 304.75,421.67999 c -6.66,-2.51999 -13.01999,-5.72 -19,-9.54999 -2.87,-1.95999 -5.29999,-4.48001 -7.14001,-7.39999 -1.26999,-2.28 -1.93,-4.84 -1.88999,-7.44 -0.11001,-2.81 -0.06,-5.61002 0.15,-8.41001 0.14999,-2.48999 0.42001,-4.97 0.82,-7.44 0.37,-1.36001 0.94,-2.67001 1.68,-3.88 1.55001,-1.03 3.30999,-1.87 5.20999,-2.51001 3.23001,-1.09 6.52002,-2.00998 9.85,-2.76999 3.47,-0.91 7.01001,-1.57999 10.57001,-2.01001 2.42001,-0.29999 4.87,-0.37998 7.29999,-0.25 3.97,0.28 7.87002,1.12002 11.59002,2.51001 l 12.09998,4.38 c 1.06,1.73999 1.76001,3.66999 2.05002,5.69001 0.32999,2.69998 0.51999,5.41998 0.56,8.14999 0.19,6 0.02,12.01999 -0.51001,18.01001 -0.07,2.63998 -0.98001,5.19 -2.60999,7.28998 -2.36001,2.57001 -5.55002,4.26001 -9.03,4.78 -2.79001,0.43002 -5.61001,0.63 -8.43002,0.6 z" /><path
             id="path168"
             style="fill:#52595e;fill-opacity:1;fill-rule:nonzero;stroke:none"
             d="m 277.07001,386.12 v -1.76001 l 23.22998,7.04 V 393.16 Z m 3.82998,53.32 v -1.76001 l 14.30002,4.03 V 443.47 Z" /><path
             id="path170"
             style="fill:none;stroke:#000000;stroke-width:1;stroke-linecap:butt;stroke-linejoin:miter;stroke-miterlimit:10;stroke-dasharray:none;stroke-opacity:1"
             d="M 273.5,443.22 V 375.79999 L 309.75,367 l 30.38,9.06 v 68.16 l -35.73999,8.29999 z" /><path
             id="path172"
             style="fill:#9ea5b5;fill-opacity:1;fill-rule:nonzero;stroke:none"
             d="m 320.92999,426.88 c 1.22,-4.1 8.06,-7.13 16.11002,-7.13 8.04999,0 14.89999,3.03 16.10998,7.13 v 22.99 C 351.94,453.97 345.09,457 337.04001,457 c -8.05002,0 -14.89002,-3.03 -16.11002,-7.13 z" /><path
             id="path174"
             style="fill:none;stroke:#000000;stroke-width:1;stroke-linecap:butt;stroke-linejoin:miter;stroke-miterlimit:10;stroke-dasharray:none;stroke-opacity:1"
             d="m 320.92999,426.88 c 1.22,-4.1 8.06,-7.13 16.11002,-7.13 8.04999,0 14.89999,3.03 16.10998,7.13 v 22.99 C 351.94,453.97 345.09,457 337.04001,457 c -8.05002,0 -14.89002,-3.03 -16.11002,-7.13 z" /><path
             id="path176"
             style="fill:#b7bfd1;fill-opacity:1;fill-rule:nonzero;stroke:none"
             d="m 353.11081,427.41998 c -3e-5,0.49845 -0.10321,0.9921 -0.30957,1.48096 -0.20639,0.48886 -0.51202,0.96356 -0.91684,1.42407 -0.40482,0.46054 -0.90106,0.89801 -1.4888,1.31244 -0.58771,0.41446 -1.25555,0.79791 -2.00357,1.15039 -0.74802,0.35245 -1.56183,0.66715 -2.44138,0.94409 -0.87954,0.27692 -1.80801,0.51075 -2.78537,0.70151 -0.97732,0.19077 -1.98474,0.33478 -3.02224,0.43201 -1.03751,0.0973 -2.08521,0.1459 -3.14304,0.14593 -1.05783,-3e-5 -2.10553,-0.0487 -3.14307,-0.14593 -1.03753,-0.0972 -2.04498,-0.24121 -3.0223,-0.43198 -0.97733,-0.19076 -1.90577,-0.42462 -2.78534,-0.70151 -0.87955,-0.27691 -1.69333,-0.59161 -2.44135,-0.94406 -0.74802,-0.35248 -1.41589,-0.73596 -2.0036,-1.15042 -0.58774,-0.41446 -1.08398,-0.85193 -1.4888,-1.31247 -0.40482,-0.46051 -0.71039,-0.93521 -0.91675,-1.42407 -0.20639,-0.48886 -0.30957,-0.98251 -0.30957,-1.48096 0,-0.49847 0.10318,-0.99215 0.30957,-1.48105 0.20636,-0.48889 0.51193,-0.96359 0.91675,-1.4241 0.40482,-0.46054 0.90106,-0.89801 1.4888,-1.31244 0.58771,-0.41446 1.25558,-0.79791 2.0036,-1.15036 0.74802,-0.35245 1.5618,-0.66717 2.44135,-0.94412 0.87957,-0.27689 1.80801,-0.51071 2.78534,-0.70148 0.97732,-0.19073 1.98477,-0.33471 3.0223,-0.43194 1.03754,-0.0973 2.08524,-0.14588 3.14307,-0.14588 1.05783,0 2.10553,0.0486 3.14304,0.14588 1.0375,0.0972 2.04492,0.24121 3.02224,0.43194 0.97736,0.19077 1.90583,0.42459 2.78537,0.70148 0.87955,0.27695 1.69336,0.59167 2.44138,0.94412 0.74802,0.35245 1.41586,0.7359 2.00357,1.15036 0.58774,0.41443 1.08398,0.8519 1.4888,1.31244 0.40482,0.46051 0.71045,0.93521 0.91684,1.4241 0.20636,0.4889 0.30954,0.98258 0.30957,1.48105 z" /><path
             id="path178"
             style="fill:#ffffff;fill-opacity:0.4;fill-rule:nonzero;stroke:none"
             d="m 322.12,448.04999 0.1,-17.51999 c 3.32001,3.36001 11.09,5.13 18.59,4.25 7.5,-0.88999 12.69,-4.19 12.41,-7.9 l -0.07,17.88001 c -0.16,1.94998 -1.70999,3.69 -4.07,4.56 -1.94999,0.61999 -4.43998,0.78 -6.69999,0.42999 -2.26,-0.34 -4.01,-1.14999 -4.69,-2.16 -1.01001,-1.09 -3.03,-1.85999 -5.39999,-2.07001 -2.38001,-0.22 -4.82001,0.15002 -6.54001,0.99002 l -3.63,1.53998 z" /><path
             id="path180"
             style="fill:none;stroke:#000000;stroke-width:1;stroke-linecap:butt;stroke-linejoin:miter;stroke-miterlimit:10;stroke-dasharray:none;stroke-opacity:1"
             d="m 320.92999,426.88 c 1.22,-4.1 8.06,-7.13 16.11002,-7.13 8.04999,0 14.89999,3.03 16.10998,7.13 v 22.99 C 351.94,453.97 345.09,457 337.04001,457 c -8.05002,0 -14.89002,-3.03 -16.11002,-7.13 z" /></g><g
           transform="scale(2.9949973)"
           id="g182"><text
             id="text186"
             style="font-variant:normal;font-weight:normal;font-size:12px;font-family:Arial;-inkscape-font-specification:ArialMT;writing-mode:lr-tb;fill:#000000;fill-opacity:1;fill-rule:nonzero;stroke:none"
             transform="translate(278.39063,475)"><tspan
               id="tspan184"
               y="0"
               x="0 8.6660156 17.332031 25.335938 37.517578 43.517578 49.517578 56.191406 62.865234 69.539062">UCS@school</tspan></text>
<text
             id="text190"
             style="font-variant:normal;font-weight:normal;font-size:12px;font-family:Arial;-inkscape-font-specification:ArialMT;writing-mode:lr-tb;fill:#000000;fill-opacity:1;fill-rule:nonzero;stroke:none"
             transform="translate(294.82813,489)"><tspan
               id="tspan188"
               y="0"
               x="0 3.9960938 10.669922 19.335938 27.339844 35.34375">(LDAP)</tspan></text>
</g><g
           transform="matrix(2.9949973,0,0,2.9949973,1.4974986,1.4974986)"
           id="g192"><path
             id="path194"
             style="fill:#abb4c5;fill-opacity:1;fill-rule:nonzero;stroke:none"
             d="M 466,443.22 V 375.79999 L 502.25,367 l 30.38,9.06 v 68.16 l -35.73999,8.29999 z" /><path
             id="path196"
             style="fill:#b8bfd1;fill-opacity:1;fill-rule:nonzero;stroke:none"
             d="M 466,375.79999 502.25,367 l 30.38,9.06 -35.73999,8.54999 z" /><path
             id="path198"
             style="fill:#5b6369;fill-opacity:1;fill-rule:nonzero;stroke:none"
             d="M 496.89001,384.60999 532.63,376.06 v 68.16 l -35.73999,8.29999 z" /><path
             id="path200"
             style="fill:#ffffff;fill-opacity:0.4;fill-rule:nonzero;stroke:none"
             d="m 497.25,421.67999 c -6.66,-2.51999 -13.01999,-5.72 -19,-9.54999 -2.87,-1.95999 -5.29999,-4.48001 -7.14001,-7.39999 -1.26999,-2.28 -1.93,-4.84 -1.88999,-7.44 -0.11001,-2.81 -0.06,-5.61002 0.15,-8.41001 0.14999,-2.48999 0.42001,-4.97 0.82,-7.44 0.37,-1.36001 0.94,-2.67001 1.68,-3.88 1.55001,-1.03 3.30999,-1.87 5.20999,-2.51001 3.23001,-1.09 6.52002,-2.00998 9.85,-2.76999 3.47,-0.91 7.01001,-1.57999 10.57001,-2.01001 2.42001,-0.29999 4.87,-0.37998 7.29999,-0.25 3.97,0.28 7.86999,1.12002 11.59002,2.51001 l 12.09998,4.38 c 1.06,1.73999 1.76001,3.66999 2.04999,5.69001 0.33002,2.69998 0.52002,5.41998 0.56,8.14999 0.19,6 0.02,12.01999 -0.50995,18.01001 -0.07,2.63998 -0.98004,5.19 -2.61005,7.28998 -2.35998,2.57001 -5.54999,4.26001 -9.02997,4.78 -2.79004,0.43002 -5.60998,0.63 -8.43002,0.6 z" /><path
             id="path202"
             style="fill:#52595e;fill-opacity:1;fill-rule:nonzero;stroke:none"
             d="m 469.57001,386.12 v -1.76001 l 23.22998,7.04 V 393.16 Z m 3.82998,53.32 v -1.76001 l 14.30002,4.03 V 443.47 Z" /><path
             id="path204"
             style="fill:none;stroke:#000000;stroke-width:1;stroke-linecap:butt;stroke-linejoin:miter;stroke-miterlimit:10;stroke-dasharray:none;stroke-opacity:1"
             d="M 466,443.22 V 375.79999 L 502.25,367 l 30.38,9.06 v 68.16 l -35.73999,8.29999 z" /><path
             id="path206"
             style="fill:#9ea5b5;fill-opacity:1;fill-rule:nonzero;stroke:none"
             d="m 513.42999,426.88 c 1.22003,-4.1 8.06,-7.13 16.10999,-7.13 8.05005,0 14.90002,3.03 16.11004,7.13 v 22.99 c -1.21002,4.1 -8.05999,7.13 -16.11004,7.13 -8.04999,0 -14.88996,-3.03 -16.10999,-7.13 z" /><path
             id="path208"
             style="fill:none;stroke:#000000;stroke-width:1;stroke-linecap:butt;stroke-linejoin:miter;stroke-miterlimit:10;stroke-dasharray:none;stroke-opacity:1"
             d="m 513.42999,426.88 c 1.22003,-4.1 8.06,-7.13 16.10999,-7.13 8.05005,0 14.90002,3.03 16.11004,7.13 v 22.99 c -1.21002,4.1 -8.05999,7.13 -16.11004,7.13 -8.04999,0 -14.88996,-3.03 -16.10999,-7.13 z" /><path
             id="path210"
             style="fill:#b7bfd1;fill-opacity:1;fill-rule:nonzero;stroke:none"
             d="m 545.61078,427.41998 c 0,0.49845 -0.10321,0.9921 -0.30963,1.48096 -0.20636,0.48886 -0.5119,0.96356 -0.91675,1.42407 -0.40485,0.46054 -0.90112,0.89801 -1.48883,1.31244 -0.58765,0.41446 -1.25549,0.79791 -2.00354,1.15039 -0.74805,0.35245 -1.56183,0.66715 -2.44141,0.94409 -0.87958,0.27692 -1.80804,0.51075 -2.78534,0.70151 -0.97735,0.19077 -1.98474,0.33478 -3.02221,0.43201 -1.03754,0.0973 -2.08527,0.1459 -3.14307,0.14593 -1.05792,-3e-5 -2.10559,-0.0487 -3.14313,-0.14593 -1.03753,-0.0972 -2.04492,-0.24121 -3.02228,-0.43198 -0.97729,-0.19076 -1.90576,-0.42462 -2.78533,-0.70151 -0.87958,-0.27691 -1.69336,-0.59161 -2.44135,-0.94406 -0.74799,-0.35248 -1.41589,-0.73596 -2.0036,-1.15042 -0.58771,-0.41446 -1.08399,-0.85193 -1.48877,-1.31247 -0.40485,-0.46051 -0.71045,-0.93521 -0.91681,-1.42407 -0.20636,-0.48886 -0.30957,-0.98251 -0.30951,-1.48096 -6e-5,-0.49847 0.10315,-0.99215 0.30951,-1.48105 0.20636,-0.48889 0.51196,-0.96359 0.91681,-1.4241 0.40478,-0.46054 0.90106,-0.89801 1.48877,-1.31244 0.58771,-0.41446 1.25561,-0.79791 2.0036,-1.15036 0.74799,-0.35245 1.56183,-0.66717 2.44141,-0.94412 0.87957,-0.27689 1.80798,-0.51071 2.78527,-0.70148 0.97736,-0.19073 1.98475,-0.33471 3.02228,-0.43194 1.03754,-0.0973 2.08521,-0.14588 3.14313,-0.14588 1.0578,0 2.10553,0.0486 3.14307,0.14588 1.03747,0.0972 2.04486,0.24121 3.02221,0.43194 0.9773,0.19077 1.90576,0.42459 2.78534,0.70148 0.87958,0.27695 1.69336,0.59167 2.44141,0.94412 0.74805,0.35245 1.41589,0.7359 2.00354,1.15036 0.58771,0.41443 1.08398,0.8519 1.48883,1.31244 0.40485,0.46051 0.71045,0.93521 0.91681,1.4241 0.20636,0.4889 0.30957,0.98258 0.30957,1.48105 z" /><path
             id="path212"
             style="fill:#ffffff;fill-opacity:0.4;fill-rule:nonzero;stroke:none"
             d="m 514.62,448.04999 0.1,-17.51999 c 3.32001,3.36001 11.09003,5.13 18.59003,4.25 7.5,-0.88999 12.69,-4.19 12.40997,-7.9 l -0.0699,17.88001 c -0.16003,1.94998 -1.71002,3.69 -4.07,4.56 -1.95002,0.61999 -4.44001,0.78 -6.70002,0.42999 -2.26,-0.34 -4.01,-1.14999 -4.69,-2.16 -1.01001,-1.09 -3.03003,-1.85999 -5.40002,-2.07001 -2.38001,-0.22 -4.82001,0.15002 -6.53998,0.99002 l -3.63,1.53998 z" /><path
             id="path214"
             style="fill:none;stroke:#000000;stroke-width:1;stroke-linecap:butt;stroke-linejoin:miter;stroke-miterlimit:10;stroke-dasharray:none;stroke-opacity:1"
             d="m 513.42999,426.88 c 1.22003,-4.1 8.06,-7.13 16.10999,-7.13 8.05005,0 14.90002,3.03 16.11004,7.13 v 22.99 c -1.21002,4.1 -8.05999,7.13 -16.11004,7.13 -8.04999,0 -14.88996,-3.03 -16.10999,-7.13 z" /></g><g
           transform="scale(2.9949973)"
           id="g216"><text
             id="text220"
             style="font-variant:normal;font-weight:normal;font-size:12px;font-family:Arial;-inkscape-font-specification:ArialMT;writing-mode:lr-tb;fill:#000000;fill-opacity:1;fill-rule:nonzero;stroke:none"
             transform="translate(470.39063,475)"><tspan
               id="tspan218"
               y="0"
               x="0 8.6660156 17.332031 25.335938 37.517578 43.517578 49.517578 56.191406 62.865234 69.539062">UCS@school</tspan></text>
<text
             id="text224"
             style="font-variant:normal;font-weight:normal;font-size:12px;font-family:Arial;-inkscape-font-specification:ArialMT;writing-mode:lr-tb;fill:#000000;fill-opacity:1;fill-rule:nonzero;stroke:none"
             transform="translate(486.82813,489)"><tspan
               id="tspan222"
               y="0"
               x="0 3.9960938 10.669922 19.335938 27.339844 35.34375">(LDAP)</tspan></text>
</g><g
           transform="matrix(2.9949973,0,0,2.9949973,1.4974986,1.4974986)"
           id="g226"><path
             id="path228"
             style="fill:none;stroke:#000000;stroke-width:1;stroke-linecap:butt;stroke-linejoin:miter;stroke-miterlimit:10;stroke-dasharray:none;stroke-opacity:1"
             d="M 313.5,174 V 360.63" /><path
             id="path230"
             style="fill:#000000;fill-opacity:1;fill-rule:nonzero;stroke:none"
             d="m 313.5,365.88 -3.5,-7 3.5,1.75 3.5,-1.75 z" /><path
             id="path232"
             style="fill:none;stroke:#000000;stroke-width:1;stroke-linecap:butt;stroke-linejoin:miter;stroke-miterlimit:10;stroke-dasharray:none;stroke-opacity:1"
             d="m 313.5,365.88 -3.5,-7 3.5,1.75 3.5,-1.75 z" /></g><g
           transform="scale(2.9949973)"
           id="g234"><path
             id="path236"
             style="fill:#ffffff;fill-opacity:1;fill-rule:nonzero;stroke:none"
             d="m 263,332 h 99 v 14 h -99 z" /><text
             id="text240"
             style="font-variant:normal;font-weight:normal;font-size:12px;font-family:Arial;-inkscape-font-specification:ArialMT;writing-mode:lr-tb;fill:#000000;fill-opacity:1;fill-rule:nonzero;stroke:none"
             transform="translate(263.15625,343)"><tspan
               id="tspan238"
               y="0"
               x="0 8.6660156 15.996094 23.326172 31.330078 35.326172 43.330078 51.333984 54.667969 58.001953 61.998047 70.001953 76.675781 79.341797 85.341797 88.007812 94.681641">HTTP-API (Kelvin)</tspan></text>
</g><g
           transform="matrix(2.9949973,0,0,2.9949973,1.4974986,1.4974986)"
           id="g242"><path
             id="path244"
             style="fill:none;stroke:#000000;stroke-width:1;stroke-linecap:butt;stroke-linejoin:miter;stroke-miterlimit:10;stroke-dasharray:none;stroke-opacity:1"
             d="M 284.32999,174 155.49,361.75" /><path
             id="path246"
             style="fill:#000000;fill-opacity:1;fill-rule:nonzero;stroke:none"
             d="m 152.50999,366.07999 1.08001,-7.75 1.9,3.42001 3.87,0.54001 z" /><path
             id="path248"
             style="fill:none;stroke:#000000;stroke-width:1;stroke-linecap:butt;stroke-linejoin:miter;stroke-miterlimit:10;stroke-dasharray:none;stroke-opacity:1"
             d="m 152.50999,366.07999 1.08001,-7.75 1.9,3.42001 3.87,0.54001 z" /></g><g
           transform="scale(2.9949973)"
           id="g250"><path
             id="path252"
             style="fill:#ffffff;fill-opacity:1;fill-rule:nonzero;stroke:none"
             d="m 122,331 h 99 v 14 h -99 z" /><text
             id="text256"
             style="font-variant:normal;font-weight:normal;font-size:12px;font-family:Arial;-inkscape-font-specification:ArialMT;writing-mode:lr-tb;fill:#000000;fill-opacity:1;fill-rule:nonzero;stroke:none"
             transform="translate(122.15625,342)"><tspan
               id="tspan254"
               y="0"
               x="0 8.6660156 15.996094 23.326172 31.330078 35.326172 43.330078 51.333984 54.667969 58.001953 61.998047 70.001953 76.675781 79.341797 85.341797 88.007812 94.681641">HTTP-API (Kelvin)</tspan></text>
</g><g
           transform="matrix(2.9949973,0,0,2.9949973,1.4974986,1.4974986)"
           id="g258"><path
             id="path260"
             style="fill:none;stroke:#000000;stroke-width:1;stroke-linecap:butt;stroke-linejoin:miter;stroke-miterlimit:10;stroke-dasharray:none;stroke-opacity:1"
             d="m 342.67001,174 128.84,187.75" /><path
             id="path262"
             style="fill:#000000;fill-opacity:1;fill-rule:nonzero;stroke:none"
             d="m 474.48999,366.07999 -6.84998,-3.78998 3.87,-0.54001 1.89999,-3.42001 z" /><path
             id="path264"
             style="fill:none;stroke:#000000;stroke-width:1;stroke-linecap:butt;stroke-linejoin:miter;stroke-miterlimit:10;stroke-dasharray:none;stroke-opacity:1"
             d="m 474.48999,366.07999 -6.84998,-3.78998 3.87,-0.54001 1.89999,-3.42001 z" /></g><g
           transform="scale(2.9949973)"
           id="g266"><path
             id="path268"
             style="fill:#ffffff;fill-opacity:1;fill-rule:nonzero;stroke:none"
             d="m 412,331 h 99 v 14 h -99 z" /><text
             id="text272"
             style="font-variant:normal;font-weight:normal;font-size:12px;font-family:Arial;-inkscape-font-specification:ArialMT;writing-mode:lr-tb;fill:#000000;fill-opacity:1;fill-rule:nonzero;stroke:none"
             transform="translate(412.15625,342)"><tspan
               id="tspan270"
               y="0"
               x="0 8.6660156 15.996094 23.326172 31.330078 35.326172 43.330078 51.333984 54.667969 58.001953 61.998047 70.001953 76.675781 79.341797 85.341797 88.007812 94.681641">HTTP-API (Kelvin)</tspan></text>
</g><g
           transform="matrix(2.9949973,0,0,2.9949973,1.4974986,1.4974986)"
           id="g274"><path
             id="path276"
             style="fill:none;stroke:#000000;stroke-width:1;stroke-linecap:butt;stroke-linejoin:miter;stroke-miterlimit:10;stroke-dasharray:none;stroke-opacity:1"
             d="M 505.5,131.5 H 352.37" /><path
             id="path278"
             style="fill:#000000;fill-opacity:1;fill-rule:nonzero;stroke:none"
             d="m 347.12,131.5 7,-3.5 -1.75,3.5 1.75,3.5 z" /><path
             id="path280"
             style="fill:none;stroke:#000000;stroke-width:1;stroke-linecap:butt;stroke-linejoin:miter;stroke-miterlimit:10;stroke-dasharray:none;stroke-opacity:1"
             d="m 347.12,131.5 7,-3.5 -1.75,3.5 1.75,3.5 z" /></g><g
           transform="scale(2.9949973)"
           id="g282"><path
             id="path284"
             style="fill:#ffffff;fill-opacity:1;fill-rule:nonzero;stroke:none"
             d="m 404,139 h 45 v 39 h -45 z" /><text
             id="text288"
             style="font-variant:normal;font-weight:normal;font-size:11px;font-family:Arial;-inkscape-font-specification:ArialMT;writing-mode:lr-tb;fill:#000000;fill-opacity:1;fill-rule:nonzero;stroke:none"
             transform="translate(403.875,148)"><tspan
               id="tspan286"
               y="0"
               x="0 5.5 11.617676 17.735352 20.791504 23.235352 29.353027 35.470703 39.133789">configure</tspan></text>
<text
             id="text292"
             style="font-variant:normal;font-weight:normal;font-size:11px;font-family:Arial;-inkscape-font-specification:ArialMT;writing-mode:lr-tb;fill:#000000;fill-opacity:1;fill-rule:nonzero;stroke:none"
             transform="translate(417.32813,161)"><tspan
               id="tspan290"
               y="0"
               x="0 6.1176758 12.235352">and</tspan></text>
<text
             id="text296"
             style="font-variant:normal;font-weight:normal;font-size:11px;font-family:Arial;-inkscape-font-specification:ArialMT;writing-mode:lr-tb;fill:#000000;fill-opacity:1;fill-rule:nonzero;stroke:none"
             transform="translate(408.17188,174)"><tspan
               id="tspan294"
               y="0"
               x="0 9.1630859 15.280762 21.398438 23.842285 26.898438 33.016113">monitor</tspan></text>
</g><g
           transform="matrix(2.9949973,0,0,2.9949973,1.4974986,1.4974986)"
           id="g298"><path
             id="path300"
             style="fill:#9ea5b5;fill-opacity:1;fill-rule:nonzero;stroke:none"
             d="M 59.080002,105.31 C 61.599998,96.510002 75.879997,90 92.68,90 c 16.79,0 31.07,6.510002 33.59,15.31 v 49.38 c -2.52,8.8 -16.8,15.31 -33.59,15.31 -16.800003,0 -31.080002,-6.51 -33.599998,-15.31 z" /><path
             id="path302"
             style="fill:none;stroke:#000000;stroke-width:1;stroke-linecap:butt;stroke-linejoin:miter;stroke-miterlimit:10;stroke-dasharray:none;stroke-opacity:1"
             d="M 59.080002,105.31 C 61.599998,96.510002 75.879997,90 92.68,90 c 16.79,0 31.07,6.510002 33.59,15.31 v 49.38 c -2.52,8.8 -16.8,15.31 -33.59,15.31 -16.800003,0 -31.080002,-6.51 -33.599998,-15.31 z" /><path
             id="path304"
             style="fill:#b7bfd1;fill-opacity:1;fill-rule:nonzero;stroke:none"
             d="m 126.19836,106.49 c 0,0.53388 -0.0539,1.06647 -0.16178,1.59778 -0.10786,0.5313 -0.26912,1.05875 -0.48381,1.58236 -0.21467,0.52362 -0.48172,1.04088 -0.80114,1.55177 -0.31944,0.51088 -0.6897,1.01294 -1.11081,1.50618 -0.42109,0.49323 -0.89099,0.97527 -1.40971,1.4461 -0.51872,0.47084 -1.08376,0.9282 -1.6951,1.37211 -0.61133,0.4439 -1.26604,0.87221 -1.96413,1.28491 -0.69807,0.41269 -1.43615,0.80778 -2.21425,1.18529 -0.77809,0.37751 -1.59245,0.73561 -2.44306,1.07428 -0.8506,0.33869 -1.73339,0.65634 -2.64833,0.95294 -0.91494,0.2966 -1.85763,0.57074 -2.82809,0.82242 -0.97044,0.25167 -1.96398,0.47965 -2.98061,0.68395 -1.01663,0.20431 -2.05144,0.38395 -3.10444,0.53892 -1.053,0.15498 -2.11914,0.28455 -3.198384,0.3887 -1.079238,0.10416 -2.166404,0.18241 -3.261497,0.23474 -1.095085,0.0523 -2.192825,0.0785 -3.293221,0.0785 -1.100387,0 -2.19812,-0.0262 -3.293205,-0.0785 -1.0951,-0.0523 -2.182266,-0.13058 -3.261513,-0.23474 -1.079246,-0.10415 -2.14537,-0.23371 -3.198371,-0.38869 -1.053002,-0.15497 -2.087822,-0.33461 -3.104454,-0.53892 -1.016625,-0.2043 -2.010163,-0.43228 -2.980614,-0.68395 -0.970467,-0.25168 -1.913162,-0.52582 -2.828102,-0.82243 -0.91494,-0.2966 -1.797715,-0.61424 -2.648323,-0.95293 -0.850609,-0.33867 -1.664955,-0.69677 -2.443055,-1.07428 -0.778091,-0.37751 -1.516174,-0.7726 -2.214256,-1.1853 -0.698082,-0.4127 -1.352791,-0.841 -1.964134,-1.2849 -0.611343,-0.4439 -1.176373,-0.90127 -1.695091,-1.3721 -0.518719,-0.47084 -0.988629,-0.95288 -1.409733,-1.44611 -0.421097,-0.49324 -0.791355,-0.9953 -1.110779,-1.50619 -0.319427,-0.51089 -0.586479,-1.02814 -0.801155,-1.55177 -0.214672,-0.52361 -0.375938,-1.05106 -0.483791,-1.58235 -0.107857,-0.53131 -0.161785,-1.0639 -0.161789,-1.59778 4e-6,-0.53387 0.05393,-1.06646 0.161789,-1.59777 0.107853,-0.53131 0.269115,-1.05877 0.483787,-1.58239 0.214676,-0.52362 0.481728,-1.04087 0.801155,-1.55176 0.319424,-0.51089 0.689686,-1.01295 1.110783,-1.5062 0.421104,-0.493228 0.891018,-0.975269 1.409737,-1.446101 0.518718,-0.470841 1.083744,-0.928208 1.695087,-1.372109 0.611343,-0.443901 1.266052,-0.872192 1.964134,-1.284874 0.698082,-0.412697 1.436165,-0.8078 2.214256,-1.18531 0.7781,-0.377503 1.592446,-0.735596 2.443055,-1.074288 0.850608,-0.338691 1.733383,-0.656341 2.648323,-0.952949 0.91494,-0.296593 1.857635,-0.570732 2.828102,-0.822411 0.970451,-0.251663 1.963989,-0.479645 2.980614,-0.683952 1.016632,-0.2043 2.051452,-0.383934 3.104454,-0.53891 1.053001,-0.154976 2.119125,-0.284546 3.198371,-0.388702 1.079247,-0.104149 2.166413,-0.182389 3.261513,-0.234719 1.095085,-0.05233 2.192818,-0.0785 3.293205,-0.0785 1.100396,0 2.198136,0.02617 3.293221,0.0785 1.095093,0.05233 2.182259,0.13057 3.261497,0.234719 1.079244,0.104156 2.145384,0.233726 3.198384,0.38871 1.053,0.154968 2.08781,0.334602 3.10444,0.538909 1.01663,0.204308 2.01017,0.43229 2.98062,0.683953 0.97046,0.251671 1.91315,0.52581 2.82808,0.822403 0.91495,0.296608 1.79773,0.614265 2.64833,0.952957 0.85061,0.338684 1.66497,0.696777 2.44306,1.07428 0.7781,0.37751 1.51618,0.772606 2.21425,1.185295 0.69809,0.412697 1.35279,0.840988 1.96412,1.284889 0.61135,0.443901 1.17638,0.901268 1.69511,1.372109 0.51872,0.470832 0.98862,0.952873 1.40971,1.446101 0.42111,0.49325 0.79137,0.99531 1.1108,1.5062 0.31943,0.51089 0.58648,1.02814 0.80115,1.55175 0.21469,0.52363 0.37596,1.05109 0.48381,1.5824 0.10786,0.53131 0.16178,1.0639 0.16178,1.59777 z" /><path
             id="path306"
             style="fill:#ffffff;fill-opacity:0.4;fill-rule:nonzero;stroke:none"
             d="m 61.549999,150.77 0.23,-37.62 c 6.93,7.21 23.11,11.02 38.760001,9.12 15.64,-1.89 26.46,-8.97 25.89,-16.96 l -0.16,38.40001 c -0.33,4.18998 -3.57,7.91999 -8.49,9.79998 -4.06,1.32001 -9.26,1.66001 -13.97,0.92 C 99.099998,153.7 95.459999,151.97 94.029999,149.78999 91.93,147.46001 87.720001,145.8 82.760002,145.34 c -4.959999,-0.46 -10.060005,0.33999 -13.639999,2.14 z" /><path
             id="path308"
             style="fill:none;stroke:#000000;stroke-width:1;stroke-linecap:butt;stroke-linejoin:miter;stroke-miterlimit:10;stroke-dasharray:none;stroke-opacity:1"
             d="M 59.080002,105.31 C 61.599998,96.510002 75.879997,90 92.68,90 c 16.79,0 31.07,6.510002 33.59,15.31 v 49.38 c -2.52,8.8 -16.8,15.31 -33.59,15.31 -16.800003,0 -31.080002,-6.51 -33.599998,-15.31 z" /></g><g
           transform="scale(2.9949973)"
           id="g310"><text
             id="text314"
             style="font-variant:normal;font-weight:normal;font-size:12px;font-family:Arial;-inkscape-font-specification:ArialMT;writing-mode:lr-tb;fill:#000000;fill-opacity:1;fill-rule:nonzero;stroke:none"
             transform="translate(70.5,71)"><tspan
               id="tspan312"
               y="0"
               x="0 8.6660156 17.332031 25.335938 28.669922 37.335938">UCS DC</tspan></text>
<text
             id="text318"
             style="font-variant:normal;font-weight:normal;font-size:12px;font-family:Arial;-inkscape-font-specification:ArialMT;writing-mode:lr-tb;fill:#000000;fill-opacity:1;fill-rule:nonzero;stroke:none"
             transform="translate(73.84375,85)"><tspan
               id="tspan316"
               y="0"
               x="0 3.9960938 10.669922 19.335938 27.339844 35.34375">(LDAP)</tspan></text>
</g><g
           transform="matrix(2.9949973,0,0,2.9949973,1.4974986,1.4974986)"
           id="g320"><path
             id="path322"
             style="fill:#eaecf0;fill-opacity:1;fill-rule:nonzero;stroke:none"
             d="M 505.5,148.75 V 98.5 L 510.25,97 567,113.75 v 51 l -4.75,1.25 z" /><path
             id="path324"
             style="fill:#ffffff;fill-opacity:1;fill-rule:nonzero;stroke:none"
             d="M 505.5,98.5 510.25,97 567,113.75 562.25,115 Z" /><path
             id="path326"
             style="fill:#959fb0;fill-opacity:1;fill-rule:nonzero;stroke:none"
             d="m 562.25,115 4.75,-1.25 v 51 l -4.75,1.25 z" /><path
             id="path328"
             style="fill:#3a3736;fill-opacity:1;fill-rule:nonzero;stroke:none"
             d="m 550.75,127.25 8.75,2.25 v 0.75 L 550.75,128 Z" /><path
             id="path330"
             style="fill:#f9b75b;fill-opacity:1;fill-rule:nonzero;stroke:none"
             d="m 546.25,127.5 v -2.75 l 2.75,0.75 v 2.75 z" /><path
             id="path332"
             style="fill:#008dcf;fill-opacity:1;fill-rule:nonzero;stroke:none"
             d="m 520.5,147.75 c -2.70001,-2.26 -5.01001,-5.42999 -6.75,-9.25 -1.57001,-3.81 -2.32999,-8.07001 -2.20001,-12.35 0.06,-3.04 0.60998,-6.04 1.60003,-8.8 1.06995,-2.33 2.37,-4.32 3.84998,-5.9 1.41998,-1.27 3.12,-2.19 4.95001,-2.7 2.67999,-0.28 5.38001,0.32 7.70001,1.7 1.54999,0.94 2.96998,2.22 4.19996,3.8 1.76001,2.27 3.25,5.08 4.40002,8.3 0.96002,2.97 1.5,6.18 1.59998,9.45 0.02,1.67999 -0.1,3.35001 -0.34998,5 -0.40997,3.02 -1.5,5.86999 -3.15002,8.25 -1.60999,2.44 -3.81,4.23 -6.29999,5.10001 C 526.59003,151.11 522.96002,150.11999 520.5,147.75 Z" /><path
             id="path334"
             style="fill:#aece49;fill-opacity:1;fill-rule:nonzero;stroke:none"
             d="m 533.84998,114.25 c 1.76001,2.27 3.25,5.08 4.40002,8.3 0.96002,2.97 1.5,6.18 1.59998,9.45 0.02,1.67999 -0.1,3.35001 -0.34998,5 L 525,131.25 Z" /><path
             id="path336"
             style="fill:#f9b75b;fill-opacity:1;fill-rule:nonzero;stroke:none"
             d="m 521.95001,108.75 c 2.67999,-0.28 5.38001,0.32 7.70001,1.7 1.54999,0.94 2.96998,2.22 4.19996,3.8 L 525,131.25 Z" /><path
             id="path338"
             style="fill:#cf5395;fill-opacity:1;fill-rule:nonzero;stroke:none"
             d="m 513.15002,117.35 c 1.06995,-2.33 2.37,-4.32 3.84998,-5.9 1.41998,-1.27 3.12,-2.19 4.95001,-2.7 L 525,131.25 Z" /><path
             id="path340"
             style="fill:#aece49;fill-opacity:1;fill-rule:nonzero;stroke:none"
             d="m 546.25,132.28 v -2.75 l 2.75,0.75 v 2.75 z" /><path
             id="path342"
             style="fill:#008dcf;fill-opacity:1;fill-rule:nonzero;stroke:none"
             d="m 546.25,137.22 v -2.75 l 2.75,0.75 v 2.75 z" /><path
             id="path344"
             style="fill:#cf5395;fill-opacity:1;fill-rule:nonzero;stroke:none"
             d="m 546.25,142.11 v -2.75 l 2.75,0.75 v 2.75 z" /><path
             id="path346"
             style="fill:#3a3736;fill-opacity:1;fill-rule:nonzero;stroke:none"
             d="m 550.75,131.97 8.75,2.25 v 0.75 l -8.75,-2.25 z m 0,4.78 8.75,2.25 v 0.75 l -8.75,-2.25 z m 0,4.84 8.75,2.25 v 0.75 l -8.75,-2.25 z" /><path
             id="path348"
             style="fill:none;stroke:#000000;stroke-width:1;stroke-linecap:butt;stroke-linejoin:miter;stroke-miterlimit:10;stroke-dasharray:none;stroke-opacity:1"
             d="M 505.5,148.75 V 98.5 L 510.25,97 567,113.75 v 51 l -4.75,1.25 z" /><path
             id="path350"
             style="fill:none;stroke:#000000;stroke-width:1;stroke-linecap:butt;stroke-linejoin:miter;stroke-miterlimit:10;stroke-dasharray:none;stroke-opacity:1"
             d="m 520.5,147.75 c -2.70001,-2.26 -5.01001,-5.42999 -6.75,-9.25 -1.57001,-3.81 -2.32999,-8.07001 -2.20001,-12.35 0.06,-3.04 0.60998,-6.04 1.60003,-8.8 1.04999,-2.42 2.35999,-4.43 3.84998,-5.9 1.40997,-1.35 3.12,-2.27 4.95001,-2.7 2.67999,-0.24 5.37,0.35 7.70001,1.7 1.54999,0.94 2.96998,2.22 4.19996,3.8 1.76001,2.27 3.25,5.08 4.40002,8.3 0.96002,2.97 1.5,6.18 1.59998,9.45 0.02,1.67999 -0.1,3.35001 -0.34998,5 -0.40997,3.02 -1.5,5.86999 -3.15002,8.25 -1.60999,2.44 -3.81,4.23 -6.29999,5.10001 C 526.59003,151.11 522.96002,150.11999 520.5,147.75 Z" /></g><g
           transform="scale(2.9949973)"
           id="g352"><path
             id="path354"
             style="fill:#fcfcfc;fill-opacity:1;fill-rule:nonzero;stroke:none"
             d="M 463,55 H 610 V 83 H 463 Z" /><text
             id="text358"
             style="font-variant:normal;font-weight:normal;font-size:12px;font-family:Arial;-inkscape-font-specification:ArialMT;writing-mode:lr-tb;fill:#080808;fill-opacity:1;fill-rule:nonzero;stroke:none"
             transform="translate(463.375,66)"><tspan
               id="tspan356"
               y="0"
               x="0 8.6660156 17.332031 25.335938 37.517578 43.517578 49.517578 56.191406 62.865234 69.539062 72.205078 75.539062 78.873047 87.539062 90.873047 99.539062 106.21289 112.88672 119.56055 126.23438 132.23438 135.56836 142.24219">UCS@school ID Connector</tspan></text>
<text
             id="text362"
             style="font-variant:normal;font-weight:normal;font-size:12px;font-family:'DejaVu Sans Mono';-inkscape-font-specification:DejaVuSansMono;writing-mode:lr-tb;fill:#080808;fill-opacity:1;fill-rule:nonzero;stroke:none"
             transform="translate(507.59375,80)"><tspan
               id="tspan360"
               y="0"
               x="0 7.2246094 14.449219 21.673828 28.898438 36.123047 43.347656 50.572266">HTTP API</tspan></text>
</g></g></g></g></svg>
